<svg width="1440" height="989" viewBox="0 0 1440 989" fill="none" xmlns="http://www.w3.org/2000/svg">
<g clip-path="url(#clip0_41260_5937)">
<rect width="1440" height="989" fill="white"/>
<g opacity="0.5" filter="url(#filter0_f_41260_5937)">
<circle cx="-44.5" cy="93.5" r="126.5" fill="url(#paint0_linear_41260_5937)"/>
</g>
<g opacity="0.5" filter="url(#filter1_f_41260_5937)">
<circle cx="1369.5" cy="929.5" r="126.5" fill="url(#paint1_linear_41260_5937)"/>
</g>
<path d="M1375.44 928.25C1376.37 927.884 1376.98 928.767 1377.79 928.873C1377.52 927.45 1377.52 927.45 1378.27 925.797C1377.82 925.621 1377.38 925.325 1376.92 925.289C1375.46 925.175 1375.12 925.529 1374.96 927.101C1374.94 927.344 1374.9 927.586 1374.87 927.827C1374.95 928.122 1375.14 928.255 1375.44 928.25Z" fill="#DBD3D0"/>
<path d="M1380.24 927.31C1380.04 927.167 1379.85 927.022 1379.66 926.875C1379.7 927.221 1379.74 927.566 1379.78 927.911C1379.94 927.713 1380.09 927.511 1380.24 927.31Z" fill="#CEBFBB"/>
<path d="M991.563 605.531C991.837 605.933 992.111 606.334 992.387 606.735C992.697 605.931 992.464 605.502 991.563 605.531Z" fill="#C3B3AE"/>
<path d="M1090.61 922.305C1089.58 921.655 1090.71 921.618 1090.89 921.31C1090.79 921.642 1090.7 921.974 1090.61 922.305Z" fill="#B49C97"/>
<path d="M1337.58 918.613C1336.88 918.821 1336.46 918.487 1336.12 917.896C1335.88 917.48 1335.53 917.126 1335.23 916.746C1335.71 916.189 1336.19 915.63 1336.66 915.073C1337.9 916.01 1338.62 917.084 1337.58 918.613Z" fill="#916D68"/>
<path d="M1290.26 914C1290.51 914.245 1290.76 914.49 1291 914.734C1290.75 914.49 1290.51 914.245 1290.26 914Z" fill="#CCBDB9"/>
<path d="M1334.27 935.006C1334.52 935.412 1334.76 935.398 1335 935.001C1334.76 934.999 1334.51 935.001 1334.27 935.006Z" fill="#CCBDB9"/>
<path d="M1347.28 932.198C1346.82 930.803 1346.82 930.803 1348.04 930C1348.28 930.977 1348.52 931.953 1348.76 932.93C1348.27 932.686 1347.77 932.441 1347.28 932.198Z" fill="#77594F"/>
<path d="M1203.43 918.399C1203.43 918.644 1203.43 918.89 1203.44 919.135C1203.7 919.367 1204.12 919.447 1204.16 919.888C1203.92 920.37 1203.68 920.851 1203.44 921.331C1203.27 921.5 1203.05 921.639 1202.95 921.841C1201.71 924.31 1201.71 924.309 1199.69 922.196C1199.56 922.056 1199.24 922.1 1199 922.058C1199.53 921.15 1199.86 920.192 1199.74 919.119C1200.12 916.455 1201.64 916.714 1203.43 917.674C1203.43 917.917 1203.43 918.158 1203.43 918.399Z" fill="#885F55"/>
<path d="M1434 918.456C1434.03 917.508 1434.51 917.022 1435.46 917C1435.8 918.434 1435.8 918.434 1434 918.456Z" fill="#855C51"/>
<path d="M1418.71 919.796C1417.87 919.778 1417.01 919.837 1416.18 919.721C1414.82 919.529 1413.9 918.291 1414.01 916.878C1414.05 916.281 1414.2 915.692 1414.33 915.105C1414.46 914.488 1415.27 913.799 1415.54 914.055C1416.09 914.599 1415.37 914.824 1415.27 915.204C1415.16 915.665 1415.05 916.142 1415.05 916.613C1415.03 917.962 1415.45 918.568 1416.8 918.967C1417.48 919.17 1418.25 919.107 1418.71 919.794L1418.71 919.796Z" fill="#856A60"/>
</g>
<defs>
<filter id="filter0_f_41260_5937" x="-458.4" y="-320.4" width="827.8" height="827.8" filterUnits="userSpaceOnUse" color-interpolation-filters="sRGB">
<feFlood flood-opacity="0" result="BackgroundImageFix"/>
<feBlend mode="normal" in="SourceGraphic" in2="BackgroundImageFix" result="shape"/>
<feGaussianBlur stdDeviation="143.7" result="effect1_foregroundBlur_41260_5937"/>
</filter>
<filter id="filter1_f_41260_5937" x="955.6" y="515.6" width="827.8" height="827.8" filterUnits="userSpaceOnUse" color-interpolation-filters="sRGB">
<feFlood flood-opacity="0" result="BackgroundImageFix"/>
<feBlend mode="normal" in="SourceGraphic" in2="BackgroundImageFix" result="shape"/>
<feGaussianBlur stdDeviation="143.7" result="effect1_foregroundBlur_41260_5937"/>
</filter>
<linearGradient id="paint0_linear_41260_5937" x1="-171" y1="-33" x2="16.5568" y2="253.517" gradientUnits="userSpaceOnUse">
<stop stop-color="#F4EAD8"/>
<stop offset="1" stop-color="#E0B764"/>
</linearGradient>
<linearGradient id="paint1_linear_41260_5937" x1="1243" y1="803" x2="1430.56" y2="1089.52" gradientUnits="userSpaceOnUse">
<stop stop-color="#F4EAD8"/>
<stop offset="1" stop-color="#E0B764"/>
</linearGradient>
<clipPath id="clip0_41260_5937">
<rect width="1440" height="989" fill="white"/>
</clipPath>
</defs>
</svg>
