<svg width="40" height="40" viewBox="0 0 40 40" fill="none" xmlns="http://www.w3.org/2000/svg">
<circle cx="20" cy="20" r="20" fill="url(#paint0_linear_41260_5860)"/>
<circle cx="20" cy="20" r="15" fill="#FCF9F6"/>
<g clip-path="url(#clip0_41260_5860)">
<path d="M11.5082 10.7373C11.4496 10.7764 11.3637 10.8623 11.3246 10.9209C11.2543 11.0303 11.2504 11.1475 11.2504 13.3779V15.7217L10.9887 15.8584C10.6371 16.0381 10.3559 16.3311 10.1723 16.6982C10.0395 16.9678 10.0238 17.0264 10.0082 17.3975C9.98868 17.8271 10.0316 18.0264 10.2191 18.4014C10.3285 18.6201 10.7035 18.999 10.9145 19.1084C11.5199 19.417 12.1527 19.417 12.7582 19.1084C12.9691 18.999 13.3441 18.6201 13.4535 18.4014C13.641 18.0264 13.684 17.8271 13.6645 17.3975C13.6488 17.0264 13.6332 16.9678 13.5004 16.6982C13.3168 16.3311 13.0356 16.0381 12.684 15.8584L12.4223 15.7217V15.0264V14.335H14.1137C15.6996 14.335 15.809 14.3311 15.9145 14.2607C15.9731 14.2217 16.059 14.1357 16.0981 14.0771C16.1684 13.9717 16.1723 13.8701 16.1723 12.499C16.1723 11.1279 16.1684 11.0264 16.0981 10.9209C16.059 10.8623 15.9731 10.7764 15.9145 10.7373C15.8051 10.667 15.6918 10.6631 13.7113 10.6631C11.7309 10.6631 11.6176 10.667 11.5082 10.7373Z" fill="#B17400"/>
<path d="M24.8636 11.9727C23.0745 12.3008 21.6253 13.7969 21.3675 15.582C21.2972 16.0469 21.3363 16.9297 21.4417 17.3242C21.6488 18.1016 21.9925 18.7031 22.5628 19.2969L22.8792 19.6289L23.9847 21.7969C24.5902 22.9883 25.1136 24.0078 25.1449 24.0625C25.2542 24.25 25.391 24.3164 25.6644 24.3164C25.9378 24.3164 26.0745 24.25 26.1839 24.0625C26.2152 24.0078 26.7386 22.9883 27.3441 21.7969L28.4495 19.6289L28.766 19.2969C29.3363 18.7031 29.68 18.1016 29.887 17.3242C29.9925 16.9297 30.0316 16.0469 29.9613 15.582C29.6995 13.7852 28.2464 12.293 26.4456 11.9687C26.0785 11.9023 25.2269 11.9062 24.8636 11.9727ZM26.137 14.5078C26.7581 14.6953 27.2191 15.1562 27.4066 15.7773C27.4769 16.0078 27.4769 16.4922 27.4066 16.7227C27.2191 17.3437 26.7581 17.8047 26.137 17.9922C26.0394 18.0234 25.8245 18.0469 25.6644 18.0469C24.8519 18.0469 24.1644 17.5234 23.9222 16.7227C23.8519 16.4922 23.8519 16.0078 23.9222 15.7773C24.1097 15.1641 24.5667 14.7031 25.1761 14.5117C25.387 14.4414 25.9183 14.4414 26.137 14.5078Z" fill="#B17400"/>
<path d="M14.7852 17.4922V18.0781L15.9766 18.0938C17.0547 18.1133 17.1875 18.1211 17.3906 18.1953C18.2188 18.4961 18.7109 19.168 18.7109 20C18.7109 20.832 18.2227 21.5 17.3906 21.8086C17.1758 21.8867 17.082 21.8906 14.8047 21.9102L12.4414 21.9336L12.1289 22.043C11.625 22.2188 11.2695 22.4414 10.8984 22.8125C10.5273 23.1836 10.3047 23.5391 10.1289 24.043C10.0273 24.3359 10.0195 24.3945 10.0195 25C10.0195 25.6055 10.0273 25.6641 10.1289 25.957C10.3047 26.4609 10.5273 26.8164 10.8984 27.1875C11.2695 27.5586 11.625 27.7812 12.1289 27.957L12.4414 28.0664L17.5781 28.0781L22.7148 28.0859V27.5039V26.918L17.7344 26.9062L12.7539 26.8945L12.5312 26.8086C11.6914 26.4883 11.2109 25.8281 11.2109 25C11.2109 24.168 11.6992 23.5 12.5312 23.1914C12.7461 23.1133 12.8398 23.1094 15.1172 23.0898L17.4805 23.0664L17.793 22.957C18.2969 22.7812 18.6523 22.5586 19.0234 22.1875C19.3945 21.8164 19.6172 21.4609 19.793 20.957C19.8945 20.6641 19.9023 20.6055 19.9023 20C19.9023 19.3945 19.8945 19.3359 19.793 19.043C19.6172 18.5391 19.3945 18.1836 19.0234 17.8125C18.6523 17.4414 18.2969 17.2188 17.793 17.043L17.4805 16.9336L16.1328 16.9219L14.7852 16.9102V17.4922Z" fill="#B17400"/>
<path d="M25.0977 25.7383C24.7617 25.8594 24.5898 25.9648 24.3594 26.1953C23.9922 26.5625 23.8281 26.9648 23.8281 27.5C23.8281 28.0352 23.9922 28.4375 24.3594 28.8047C24.7266 29.1719 25.1289 29.3359 25.6641 29.3359C26.1992 29.3359 26.6016 29.1719 26.9688 28.8047C27.3359 28.4375 27.5 28.0352 27.5 27.5C27.5 26.9648 27.3359 26.5625 26.9688 26.1953C26.7305 25.957 26.5664 25.8555 26.2148 25.7383C25.9336 25.6406 25.3711 25.6406 25.0977 25.7383Z" fill="#B17400"/>
</g>
<defs>
<linearGradient id="paint0_linear_41260_5860" x1="0" y1="0" x2="29.6532" y2="45.2991" gradientUnits="userSpaceOnUse">
<stop stop-color="#F4EAD8"/>
<stop offset="1" stop-color="#E0B764"/>
</linearGradient>
<clipPath id="clip0_41260_5860">
<rect width="20" height="20" fill="white" transform="translate(10 10)"/>
</clipPath>
</defs>
</svg>
