<svg width="40" height="40" viewBox="0 0 40 40" fill="none" xmlns="http://www.w3.org/2000/svg">
<circle cx="20" cy="20" r="20" fill="url(#paint0_linear_41260_5918)"/>
<circle cx="20" cy="20" r="15" fill="#FCF9F6"/>
<path d="M24.9234 12.3648C24.9027 12.4044 24.8666 12.4305 24.8287 12.4461C24.7904 12.4619 24.7468 12.4687 24.7045 12.4679C24.6622 12.4671 24.6186 12.4585 24.5806 12.4411C24.5429 12.4239 24.5076 12.3966 24.4873 12.3566C24.4745 12.3328 24.4686 12.299 24.4653 12.266C24.4617 12.2302 24.4604 12.1868 24.4608 12.139C24.4618 12.0432 24.4699 11.9263 24.4824 11.8105C24.495 11.6946 24.5122 11.5787 24.5316 11.485C24.5413 11.4383 24.5517 11.3962 24.5626 11.3621C24.5728 11.3302 24.5856 11.2983 24.6027 11.2778L24.6027 11.2778L24.604 11.2764C24.657 11.2181 24.7429 11.1981 24.8178 11.2025C24.8924 11.2069 24.9752 11.2367 25.0186 11.3018L25.0186 11.3018L25.0192 11.3028C25.0273 11.3156 25.0311 11.3307 25.0334 11.3421C25.0359 11.3549 25.0376 11.3697 25.0388 11.3856C25.0412 11.4175 25.0417 11.4577 25.0408 11.5029C25.039 11.5934 25.0314 11.7075 25.0204 11.8226C25.0093 11.9377 24.9946 12.0546 24.9785 12.1508C24.9704 12.1989 24.9618 12.2423 24.953 12.278C24.9446 12.3121 24.935 12.3434 24.9234 12.3648ZM24.9234 12.3648C24.9235 12.3646 24.9236 12.3644 24.9237 12.3643L24.8793 12.3412L24.9231 12.3653C24.9232 12.3651 24.9233 12.365 24.9234 12.3648Z" fill="#B17400" stroke="#B17400" stroke-width="0.1"/>
<path d="M22.1484 12.6447C21.9922 12.3361 21.8398 12.0509 21.8047 12.0118L21.5117 12.0157C21.4727 12.0548 21.4453 12.1173 21.4453 12.1525C21.4453 12.1915 21.5781 12.4845 21.7383 12.8048C22.0508 13.4259 22.1328 13.5197 22.3008 13.4337C22.4648 13.3439 22.4414 13.2345 22.1484 12.6447ZM21.4751 11.9816C21.5732 11.8704 21.7439 11.8707 21.8417 11.9782L21.8419 11.9784C21.8548 11.9927 21.8735 12.0229 21.8944 12.0586C21.9165 12.0963 21.944 12.1458 21.9751 12.2034C22.0374 12.3187 22.1148 12.4675 22.193 12.6221L22.193 12.6221L22.1932 12.6224C22.3386 12.9151 22.4215 13.0967 22.4451 13.2171C22.4572 13.279 22.4553 13.3322 22.432 13.3781C22.4089 13.4235 22.3691 13.4533 22.3248 13.4776L22.3248 13.4776L22.3236 13.4782C22.2776 13.5017 22.2292 13.5175 22.1773 13.5083C22.1254 13.4991 22.0803 13.4669 22.0364 13.4177C21.9505 13.3213 21.8488 13.1357 21.6936 12.8273L21.6936 12.8272C21.6133 12.6666 21.5397 12.5126 21.4861 12.3937C21.4594 12.3343 21.4374 12.2832 21.422 12.2442C21.4144 12.2247 21.4081 12.2076 21.4037 12.1938C21.4 12.1823 21.3953 12.1663 21.3953 12.1525C21.3953 12.1244 21.4054 12.0923 21.4186 12.0643C21.432 12.0358 21.4513 12.0058 21.4751 11.9816Z" fill="#B17400" stroke="#B17400" stroke-width="0.1"/>
<path d="M26.5032 14.3851C26.4413 14.4243 26.3645 14.4194 26.2842 14.39C26.2292 14.3716 26.1764 14.3452 26.1478 14.2935C26.1189 14.2413 26.1221 14.177 26.1433 14.1017C26.1853 13.9519 26.3132 13.7105 26.5423 13.3066C26.6558 13.1011 26.7684 12.9072 26.8581 12.7597C26.903 12.6859 26.9423 12.6234 26.9733 12.5767C26.9887 12.5534 27.0023 12.5336 27.0136 12.5182C27.0241 12.504 27.035 12.4902 27.0445 12.4816L27.0444 12.4815L27.0465 12.4799C27.0712 12.4596 27.1009 12.4409 27.1297 12.4271C27.1568 12.4141 27.1896 12.4021 27.2187 12.4021C27.2831 12.4021 27.3461 12.4422 27.3902 12.4885C27.4347 12.5352 27.4719 12.6006 27.4719 12.667C27.4719 12.6771 27.4696 12.6869 27.4677 12.694C27.4655 12.7019 27.4626 12.7107 27.4592 12.7199C27.4523 12.7384 27.4425 12.7613 27.4306 12.7876C27.4066 12.8402 27.3726 12.909 27.3318 12.988C27.2501 13.1462 27.1404 13.3475 27.0279 13.547C26.9154 13.7466 26.7999 13.9449 26.7064 14.0972C26.6597 14.1733 26.6183 14.2384 26.5854 14.2865C26.5689 14.3105 26.5542 14.3309 26.5417 14.3466C26.5355 14.3544 26.5295 14.3615 26.5237 14.3676C26.5186 14.373 26.5115 14.3799 26.5032 14.3851ZM26.5032 14.3851C26.5032 14.3851 26.5031 14.3851 26.5031 14.3852L26.4766 14.3428L26.5034 14.385C26.5033 14.385 26.5033 14.385 26.5032 14.3851Z" fill="#B17400" stroke="#B17400" stroke-width="0.1"/>
<path d="M24.4221 12.783L24.4222 12.783C24.4158 12.7909 24.4118 12.7997 24.4096 12.8052C24.4069 12.8117 24.4045 12.819 24.4023 12.8266C24.3977 12.8418 24.3931 12.8611 24.3883 12.8834C24.3788 12.928 24.3681 12.9877 24.3571 13.057C24.3349 13.196 24.3105 13.3761 24.2888 13.5576C24.267 13.7392 24.2477 13.9227 24.2359 14.0684C24.23 14.1412 24.2259 14.2051 24.2242 14.2548C24.2234 14.2796 24.2232 14.3014 24.2237 14.3192C24.2242 14.3355 24.2254 14.3523 24.2288 14.3656M24.4221 12.783L24.7696 13.6114C24.7227 13.9942 24.6758 14.338 24.6641 14.3732L24.7121 14.3871C24.712 14.3873 24.712 14.3876 24.7119 14.3878C24.6961 14.4415 24.6568 14.4778 24.6121 14.4992C24.5676 14.5206 24.5153 14.5286 24.4653 14.5261C24.4152 14.5236 24.3637 14.5102 24.321 14.4848C24.2782 14.4593 24.2416 14.4199 24.2288 14.3656M24.4221 12.783L24.4227 12.7824C24.4691 12.7272 24.5507 12.7115 24.6202 12.7163C24.6909 12.7213 24.7696 12.7486 24.8183 12.8044L24.4221 12.783ZM24.2288 14.3656C24.2289 14.3659 24.229 14.3662 24.2291 14.3665L24.2774 14.3536L24.2286 14.3649C24.2287 14.3651 24.2288 14.3653 24.2288 14.3656Z" fill="#B17400" stroke="#B17400" stroke-width="0.1"/>
<path d="M22.3889 13.7044C22.3558 13.7229 22.3323 13.754 22.3173 13.787C22.3019 13.8209 22.2937 13.8602 22.2937 13.9C22.2937 13.9254 22.2998 13.9553 22.3084 13.9858C22.3172 14.017 22.3297 14.0522 22.3446 14.0891C22.3744 14.1631 22.4148 14.247 22.458 14.3266C22.5011 14.4062 22.5476 14.4827 22.5899 14.5416C22.6109 14.571 22.6316 14.597 22.6509 14.617C22.6682 14.635 22.691 14.6554 22.7165 14.6628L22.7176 14.6632L22.7176 14.6631C22.7923 14.6831 22.8712 14.6639 22.932 14.6246C22.9926 14.5853 23.0419 14.5215 23.0497 14.4444C23.0497 14.4443 23.0497 14.4441 23.0498 14.444L22.3889 13.7044ZM22.3889 13.7044C22.5064 13.6327 22.6548 13.6421 22.7404 13.7377L22.7404 13.7377L22.7406 13.738C22.8047 13.8106 22.8844 13.9584 22.9456 14.0965C22.9766 14.1665 23.0039 14.2361 23.0227 14.2954C23.0321 14.3249 23.0396 14.3526 23.0445 14.3769L22.3889 13.7044Z" fill="#B17400" stroke="#B17400" stroke-width="0.1"/>
<path d="M25.9141 15.2338L25.9353 15.2791C25.8535 15.3174 25.7629 15.2993 25.6955 15.2558C25.6283 15.2123 25.575 15.1376 25.575 15.0502C25.575 15.014 25.5883 14.9685 25.6056 14.924C25.6236 14.8779 25.6483 14.8267 25.676 14.7769C25.7302 14.6794 25.8004 14.5783 25.8592 14.5308L25.8592 14.5308L25.8603 14.53C25.9045 14.4963 25.949 14.4727 26.0025 14.4764C26.0526 14.4799 26.1006 14.5071 26.1536 14.5444C26.2168 14.5882 26.2609 14.6694 26.2609 14.7416C26.2609 14.7844 26.2464 14.8357 26.2264 14.8859C26.2059 14.9373 26.1777 14.9924 26.1463 15.0443C26.1149 15.0963 26.0796 15.1461 26.0444 15.1868C26.0104 15.2262 25.9725 15.2618 25.9351 15.2792L25.9141 15.2338ZM25.9141 15.2338C26.0234 15.183 26.2109 14.8744 26.2109 14.7416C26.2109 14.6869 26.1758 14.6205 26.125 14.5854C26.0195 14.5111 25.9727 14.5072 25.8906 14.5697C25.7891 14.6518 25.625 14.9447 25.625 15.0502C25.625 15.183 25.7891 15.2924 25.9141 15.2338Z" fill="#B17400" stroke="#B17400" stroke-width="0.1"/>
<path d="M28.3871 15.3139L28.3871 15.3138L28.3876 15.3126C28.4091 15.259 28.447 15.2211 28.5184 15.183C28.5875 15.1462 28.6938 15.1059 28.8592 15.0495C29.0908 14.9697 29.2506 14.9251 29.3624 14.9199C29.4192 14.9172 29.4683 14.9243 29.5095 14.9459C29.5515 14.9679 29.5798 15.002 29.5999 15.0432C29.6235 15.0894 29.6402 15.1354 29.6396 15.1813C29.6389 15.2302 29.6186 15.2722 29.5819 15.3092C29.5467 15.3447 29.4955 15.3766 29.4299 15.4087C29.3637 15.4411 29.2791 15.4755 29.1742 15.5147L29.1742 15.5147L29.1739 15.5148C28.9403 15.6005 28.7798 15.6489 28.666 15.6578C28.6081 15.6624 28.5582 15.6571 28.5154 15.6384C28.4721 15.6194 28.4405 15.5887 28.416 15.5504C28.3898 15.5131 28.3729 15.4762 28.3683 15.4354C28.3636 15.3945 28.372 15.3549 28.3871 15.3139Z" fill="#B17400" stroke="#B17400" stroke-width="0.1"/>
<path d="M27.7163 15.4768L27.7163 15.4768L28.0742 15.4258L28.0721 15.3758C28.0724 15.3758 28.0727 15.3758 28.0731 15.3758C28.1896 15.3713 28.2757 15.4465 28.3112 15.5369C28.3467 15.6275 28.3348 15.7418 28.248 15.8187L28.248 15.8187L28.2471 15.8195C28.2228 15.8399 28.172 15.867 28.1155 15.8942C28.0566 15.9225 27.9848 15.9542 27.9131 15.9837C27.8414 16.0133 27.7693 16.041 27.7098 16.0614C27.6801 16.0717 27.653 16.0802 27.6304 16.0863C27.6095 16.0919 27.5874 16.0969 27.5703 16.0969C27.5045 16.0969 27.4448 16.0501 27.4052 16.0004C27.3643 15.9489 27.3328 15.8797 27.3328 15.8125C27.3328 15.7767 27.3352 15.7422 27.3467 15.7099C27.3587 15.6761 27.3793 15.6484 27.4097 15.6234C27.439 15.5994 27.4777 15.5778 27.5266 15.5551C27.5758 15.5323 27.6381 15.5071 27.7163 15.4768Z" fill="#B17400" stroke="#B17400" stroke-width="0.1"/>
<mask id="path-11-outside-1_41260_5918" maskUnits="userSpaceOnUse" x="9.43457" y="14.8828" width="18" height="14" fill="black">
<rect fill="white" x="9.43457" y="14.8828" width="18" height="14"/>
<path d="M23.6915 15.6836C23.6486 15.6953 22.7892 15.8867 21.7775 16.1133C20.7697 16.3359 18.6525 16.8125 17.0743 17.1641L14.2072 17.8047H13.0079C11.7072 17.8047 11.6603 17.8125 11.4103 18.0234C11.34 18.082 11.2423 18.2109 11.1915 18.3164L11.0939 18.5039V19.9727V21.4414L11.1876 21.625C11.3009 21.8516 11.4142 21.957 11.6408 22.0586C11.8048 22.1328 11.8947 22.1406 12.9415 22.1406H14.0626V22.3945V22.6484H12.922C11.8478 22.6484 11.7736 22.6523 11.6134 22.7305C11.3829 22.8437 11.1798 23.0898 11.1056 23.3555C11.0587 23.5273 11.0236 23.582 10.9298 23.6211C10.7658 23.6953 10.5587 23.9219 10.4884 24.1094C10.4337 24.2461 10.4298 24.4766 10.4376 25.7578L10.4493 27.2461L10.5665 27.4375C10.6486 27.5664 10.754 27.6719 10.8986 27.7578L11.1095 27.8828H18.0548H25.0001L25.1759 27.8008C25.4611 27.668 25.6368 27.4258 25.7189 27.0586C25.7345 26.9922 25.8048 26.918 25.9181 26.8437C26.1173 26.7187 26.3165 26.4531 26.3478 26.2656C26.3595 26.1992 26.3673 25.5 26.3595 24.7148L26.3478 23.2852L26.2306 23.0937C26.1564 22.9766 26.0392 22.8594 25.922 22.7852L25.7306 22.668L24.5431 22.6562L23.3595 22.6445V22.3945V22.1445L24.5431 22.1328L25.7306 22.1211L25.922 22.0039C26.0392 21.9297 26.1564 21.8125 26.2306 21.6953L26.3478 21.5039V19.9727V18.4414L26.2306 18.25C26.1642 18.1445 26.0509 18.0195 25.9767 17.9727C25.715 17.8086 25.7033 17.7891 25.7033 17.5C25.7033 16.9453 25.4728 16.5625 25.0509 16.4141C24.8947 16.3594 24.8361 16.3164 24.797 16.2266C24.7267 16.0547 24.5392 15.8594 24.3634 15.7656C24.2072 15.6875 23.84 15.6406 23.6915 15.6836ZM24.1134 16.1406C24.2345 16.1914 24.4025 16.3437 24.3712 16.375C24.3517 16.3945 19.7931 17.0234 19.7814 17.0117C19.7658 16.9961 23.797 16.0937 23.8986 16.0898C23.9454 16.0859 24.0431 16.1094 24.1134 16.1406ZM25.004 16.8789C25.1993 17.0078 25.2736 17.1875 25.2736 17.5195V17.8047L21.3595 17.8008C19.2033 17.7969 17.4845 17.7852 17.5392 17.7773C18.1837 17.6719 24.5587 16.7969 24.6915 16.793C24.8204 16.7891 24.9103 16.8164 25.004 16.8789ZM25.6564 18.293C25.7267 18.3359 25.8243 18.4336 25.8712 18.5078C25.9533 18.6406 25.9572 18.6758 25.9572 19.9727C25.9572 21.8359 26.0509 21.7227 24.4454 21.7422L23.3595 21.7539V21.125V20.4961L23.5118 20.3516C23.6954 20.1758 23.7462 19.9805 23.6642 19.7656C23.5197 19.3789 22.9298 19.3281 22.7189 19.6797C22.59 19.9023 22.6642 20.2617 22.8673 20.3984L22.9689 20.4609V21.1055V21.75H18.7111H14.4533V21.1133V20.4766L14.5743 20.3867C14.7306 20.2695 14.8204 20.0586 14.7853 19.8828C14.7306 19.5977 14.547 19.4453 14.2579 19.4453C13.9376 19.4453 13.7501 19.6484 13.7501 19.9961C13.7501 20.1836 13.7618 20.2109 13.9064 20.3477L14.0626 20.4961V21.125V21.7539L13.0001 21.7422C11.9845 21.7305 11.9259 21.7266 11.797 21.6445C11.7228 21.5977 11.6251 21.5 11.5822 21.4297C11.5079 21.3086 11.504 21.2305 11.504 19.9727C11.504 18.7773 11.5118 18.6328 11.5743 18.5195C11.6525 18.3711 11.7853 18.2773 11.965 18.2344C12.0314 18.2148 15.1134 18.207 18.8087 18.207C25.4533 18.2148 25.5275 18.2148 25.6564 18.293ZM14.3517 19.9336C14.3673 19.9766 14.3478 19.9922 14.2775 19.9922C14.1837 19.9922 14.1525 19.9531 14.2072 19.9023C14.2501 19.8555 14.3283 19.8711 14.3517 19.9336ZM23.2736 19.9414C23.2814 19.9727 23.2501 19.9922 23.1876 19.9922C23.09 19.9922 23.0587 19.9531 23.1134 19.8984C23.1525 19.8594 23.254 19.8867 23.2736 19.9414ZM22.9689 22.3945V22.6484H18.7111H14.4533V22.3945V22.1406H18.7111H22.9689V22.3945ZM14.0626 23.6602V24.2812L13.9064 24.4375C13.7618 24.582 13.7501 24.6094 13.7501 24.8047C13.7501 24.9648 13.7697 25.0469 13.8322 25.125C14.1095 25.4805 14.6525 25.375 14.7697 24.9414C14.8243 24.7422 14.7618 24.5625 14.5861 24.4102L14.4533 24.293V23.6641V23.0391H18.7111H22.9689V23.6836C22.9689 24.2891 22.965 24.3281 22.8868 24.3672C22.6642 24.4883 22.5783 24.9219 22.7384 25.125C22.9923 25.4492 23.4806 25.4023 23.6408 25.0391C23.7462 24.8047 23.7111 24.6289 23.5118 24.4336L23.3595 24.2812V23.6562V23.0352L24.4454 23.0469C25.6564 23.0586 25.6954 23.0703 25.8712 23.3516C25.9533 23.4844 25.9572 23.5195 25.9572 24.8164C25.9572 26.1133 25.9533 26.1484 25.8712 26.2812C25.8243 26.3555 25.7267 26.4531 25.6564 26.4961C25.5275 26.5742 25.4572 26.5742 18.7306 26.5742H11.9337L11.797 26.4883C11.7228 26.4414 11.6251 26.3437 11.5822 26.2734C11.5079 26.1523 11.504 26.0742 11.504 24.8359C11.504 23.4023 11.5118 23.3437 11.7267 23.1875C11.9103 23.0586 12.0236 23.0469 13.0783 23.043L14.0626 23.0391V23.6602ZM11.2306 26.5391C11.3048 26.6562 11.422 26.7734 11.5392 26.8477L11.7306 26.9648L18.504 26.9766C23.8634 26.9844 25.2736 26.9961 25.2736 27.0352C25.2736 27.1289 25.1173 27.332 24.9923 27.4023C24.8712 27.4687 24.5353 27.4727 18.0665 27.4727C10.4533 27.4727 11.1251 27.5 10.9298 27.1914C10.84 27.0469 10.84 27.0234 10.8283 25.8711C10.8126 24.4961 10.8243 24.3359 10.9689 24.1641L11.0743 24.0391L11.0939 25.1914L11.1134 26.3477L11.2306 26.5391ZM14.3556 24.875C14.3439 24.8945 14.3087 24.9141 14.2775 24.9141C14.2462 24.9141 14.2111 24.8945 14.1993 24.875C14.1837 24.8516 14.2189 24.8359 14.2775 24.8359C14.3361 24.8359 14.3712 24.8516 14.3556 24.875ZM23.2423 24.8945C23.2033 24.9414 23.1798 24.9453 23.1408 24.9102C23.0626 24.8477 23.0704 24.8359 23.1876 24.8359C23.2736 24.8359 23.2853 24.8437 23.2423 24.8945Z"/>
</mask>
<path d="M23.6915 15.6836C23.6486 15.6953 22.7892 15.8867 21.7775 16.1133C20.7697 16.3359 18.6525 16.8125 17.0743 17.1641L14.2072 17.8047H13.0079C11.7072 17.8047 11.6603 17.8125 11.4103 18.0234C11.34 18.082 11.2423 18.2109 11.1915 18.3164L11.0939 18.5039V19.9727V21.4414L11.1876 21.625C11.3009 21.8516 11.4142 21.957 11.6408 22.0586C11.8048 22.1328 11.8947 22.1406 12.9415 22.1406H14.0626V22.3945V22.6484H12.922C11.8478 22.6484 11.7736 22.6523 11.6134 22.7305C11.3829 22.8437 11.1798 23.0898 11.1056 23.3555C11.0587 23.5273 11.0236 23.582 10.9298 23.6211C10.7658 23.6953 10.5587 23.9219 10.4884 24.1094C10.4337 24.2461 10.4298 24.4766 10.4376 25.7578L10.4493 27.2461L10.5665 27.4375C10.6486 27.5664 10.754 27.6719 10.8986 27.7578L11.1095 27.8828H18.0548H25.0001L25.1759 27.8008C25.4611 27.668 25.6368 27.4258 25.7189 27.0586C25.7345 26.9922 25.8048 26.918 25.9181 26.8437C26.1173 26.7187 26.3165 26.4531 26.3478 26.2656C26.3595 26.1992 26.3673 25.5 26.3595 24.7148L26.3478 23.2852L26.2306 23.0937C26.1564 22.9766 26.0392 22.8594 25.922 22.7852L25.7306 22.668L24.5431 22.6562L23.3595 22.6445V22.3945V22.1445L24.5431 22.1328L25.7306 22.1211L25.922 22.0039C26.0392 21.9297 26.1564 21.8125 26.2306 21.6953L26.3478 21.5039V19.9727V18.4414L26.2306 18.25C26.1642 18.1445 26.0509 18.0195 25.9767 17.9727C25.715 17.8086 25.7033 17.7891 25.7033 17.5C25.7033 16.9453 25.4728 16.5625 25.0509 16.4141C24.8947 16.3594 24.8361 16.3164 24.797 16.2266C24.7267 16.0547 24.5392 15.8594 24.3634 15.7656C24.2072 15.6875 23.84 15.6406 23.6915 15.6836ZM24.1134 16.1406C24.2345 16.1914 24.4025 16.3437 24.3712 16.375C24.3517 16.3945 19.7931 17.0234 19.7814 17.0117C19.7658 16.9961 23.797 16.0937 23.8986 16.0898C23.9454 16.0859 24.0431 16.1094 24.1134 16.1406ZM25.004 16.8789C25.1993 17.0078 25.2736 17.1875 25.2736 17.5195V17.8047L21.3595 17.8008C19.2033 17.7969 17.4845 17.7852 17.5392 17.7773C18.1837 17.6719 24.5587 16.7969 24.6915 16.793C24.8204 16.7891 24.9103 16.8164 25.004 16.8789ZM25.6564 18.293C25.7267 18.3359 25.8243 18.4336 25.8712 18.5078C25.9533 18.6406 25.9572 18.6758 25.9572 19.9727C25.9572 21.8359 26.0509 21.7227 24.4454 21.7422L23.3595 21.7539V21.125V20.4961L23.5118 20.3516C23.6954 20.1758 23.7462 19.9805 23.6642 19.7656C23.5197 19.3789 22.9298 19.3281 22.7189 19.6797C22.59 19.9023 22.6642 20.2617 22.8673 20.3984L22.9689 20.4609V21.1055V21.75H18.7111H14.4533V21.1133V20.4766L14.5743 20.3867C14.7306 20.2695 14.8204 20.0586 14.7853 19.8828C14.7306 19.5977 14.547 19.4453 14.2579 19.4453C13.9376 19.4453 13.7501 19.6484 13.7501 19.9961C13.7501 20.1836 13.7618 20.2109 13.9064 20.3477L14.0626 20.4961V21.125V21.7539L13.0001 21.7422C11.9845 21.7305 11.9259 21.7266 11.797 21.6445C11.7228 21.5977 11.6251 21.5 11.5822 21.4297C11.5079 21.3086 11.504 21.2305 11.504 19.9727C11.504 18.7773 11.5118 18.6328 11.5743 18.5195C11.6525 18.3711 11.7853 18.2773 11.965 18.2344C12.0314 18.2148 15.1134 18.207 18.8087 18.207C25.4533 18.2148 25.5275 18.2148 25.6564 18.293ZM14.3517 19.9336C14.3673 19.9766 14.3478 19.9922 14.2775 19.9922C14.1837 19.9922 14.1525 19.9531 14.2072 19.9023C14.2501 19.8555 14.3283 19.8711 14.3517 19.9336ZM23.2736 19.9414C23.2814 19.9727 23.2501 19.9922 23.1876 19.9922C23.09 19.9922 23.0587 19.9531 23.1134 19.8984C23.1525 19.8594 23.254 19.8867 23.2736 19.9414ZM22.9689 22.3945V22.6484H18.7111H14.4533V22.3945V22.1406H18.7111H22.9689V22.3945ZM14.0626 23.6602V24.2812L13.9064 24.4375C13.7618 24.582 13.7501 24.6094 13.7501 24.8047C13.7501 24.9648 13.7697 25.0469 13.8322 25.125C14.1095 25.4805 14.6525 25.375 14.7697 24.9414C14.8243 24.7422 14.7618 24.5625 14.5861 24.4102L14.4533 24.293V23.6641V23.0391H18.7111H22.9689V23.6836C22.9689 24.2891 22.965 24.3281 22.8868 24.3672C22.6642 24.4883 22.5783 24.9219 22.7384 25.125C22.9923 25.4492 23.4806 25.4023 23.6408 25.0391C23.7462 24.8047 23.7111 24.6289 23.5118 24.4336L23.3595 24.2812V23.6562V23.0352L24.4454 23.0469C25.6564 23.0586 25.6954 23.0703 25.8712 23.3516C25.9533 23.4844 25.9572 23.5195 25.9572 24.8164C25.9572 26.1133 25.9533 26.1484 25.8712 26.2812C25.8243 26.3555 25.7267 26.4531 25.6564 26.4961C25.5275 26.5742 25.4572 26.5742 18.7306 26.5742H11.9337L11.797 26.4883C11.7228 26.4414 11.6251 26.3437 11.5822 26.2734C11.5079 26.1523 11.504 26.0742 11.504 24.8359C11.504 23.4023 11.5118 23.3437 11.7267 23.1875C11.9103 23.0586 12.0236 23.0469 13.0783 23.043L14.0626 23.0391V23.6602ZM11.2306 26.5391C11.3048 26.6562 11.422 26.7734 11.5392 26.8477L11.7306 26.9648L18.504 26.9766C23.8634 26.9844 25.2736 26.9961 25.2736 27.0352C25.2736 27.1289 25.1173 27.332 24.9923 27.4023C24.8712 27.4687 24.5353 27.4727 18.0665 27.4727C10.4533 27.4727 11.1251 27.5 10.9298 27.1914C10.84 27.0469 10.84 27.0234 10.8283 25.8711C10.8126 24.4961 10.8243 24.3359 10.9689 24.1641L11.0743 24.0391L11.0939 25.1914L11.1134 26.3477L11.2306 26.5391ZM14.3556 24.875C14.3439 24.8945 14.3087 24.9141 14.2775 24.9141C14.2462 24.9141 14.2111 24.8945 14.1993 24.875C14.1837 24.8516 14.2189 24.8359 14.2775 24.8359C14.3361 24.8359 14.3712 24.8516 14.3556 24.875ZM23.2423 24.8945C23.2033 24.9414 23.1798 24.9453 23.1408 24.9102C23.0626 24.8477 23.0704 24.8359 23.1876 24.8359C23.2736 24.8359 23.2853 24.8437 23.2423 24.8945Z" fill="#B17400"/>
<path d="M23.6915 15.6836C23.6486 15.6953 22.7892 15.8867 21.7775 16.1133C20.7697 16.3359 18.6525 16.8125 17.0743 17.1641L14.2072 17.8047H13.0079C11.7072 17.8047 11.6603 17.8125 11.4103 18.0234C11.34 18.082 11.2423 18.2109 11.1915 18.3164L11.0939 18.5039V19.9727V21.4414L11.1876 21.625C11.3009 21.8516 11.4142 21.957 11.6408 22.0586C11.8048 22.1328 11.8947 22.1406 12.9415 22.1406H14.0626V22.3945V22.6484H12.922C11.8478 22.6484 11.7736 22.6523 11.6134 22.7305C11.3829 22.8437 11.1798 23.0898 11.1056 23.3555C11.0587 23.5273 11.0236 23.582 10.9298 23.6211C10.7658 23.6953 10.5587 23.9219 10.4884 24.1094C10.4337 24.2461 10.4298 24.4766 10.4376 25.7578L10.4493 27.2461L10.5665 27.4375C10.6486 27.5664 10.754 27.6719 10.8986 27.7578L11.1095 27.8828H18.0548H25.0001L25.1759 27.8008C25.4611 27.668 25.6368 27.4258 25.7189 27.0586C25.7345 26.9922 25.8048 26.918 25.9181 26.8437C26.1173 26.7187 26.3165 26.4531 26.3478 26.2656C26.3595 26.1992 26.3673 25.5 26.3595 24.7148L26.3478 23.2852L26.2306 23.0937C26.1564 22.9766 26.0392 22.8594 25.922 22.7852L25.7306 22.668L24.5431 22.6562L23.3595 22.6445V22.3945V22.1445L24.5431 22.1328L25.7306 22.1211L25.922 22.0039C26.0392 21.9297 26.1564 21.8125 26.2306 21.6953L26.3478 21.5039V19.9727V18.4414L26.2306 18.25C26.1642 18.1445 26.0509 18.0195 25.9767 17.9727C25.715 17.8086 25.7033 17.7891 25.7033 17.5C25.7033 16.9453 25.4728 16.5625 25.0509 16.4141C24.8947 16.3594 24.8361 16.3164 24.797 16.2266C24.7267 16.0547 24.5392 15.8594 24.3634 15.7656C24.2072 15.6875 23.84 15.6406 23.6915 15.6836ZM24.1134 16.1406C24.2345 16.1914 24.4025 16.3437 24.3712 16.375C24.3517 16.3945 19.7931 17.0234 19.7814 17.0117C19.7658 16.9961 23.797 16.0937 23.8986 16.0898C23.9454 16.0859 24.0431 16.1094 24.1134 16.1406ZM25.004 16.8789C25.1993 17.0078 25.2736 17.1875 25.2736 17.5195V17.8047L21.3595 17.8008C19.2033 17.7969 17.4845 17.7852 17.5392 17.7773C18.1837 17.6719 24.5587 16.7969 24.6915 16.793C24.8204 16.7891 24.9103 16.8164 25.004 16.8789ZM25.6564 18.293C25.7267 18.3359 25.8243 18.4336 25.8712 18.5078C25.9533 18.6406 25.9572 18.6758 25.9572 19.9727C25.9572 21.8359 26.0509 21.7227 24.4454 21.7422L23.3595 21.7539V21.125V20.4961L23.5118 20.3516C23.6954 20.1758 23.7462 19.9805 23.6642 19.7656C23.5197 19.3789 22.9298 19.3281 22.7189 19.6797C22.59 19.9023 22.6642 20.2617 22.8673 20.3984L22.9689 20.4609V21.1055V21.75H18.7111H14.4533V21.1133V20.4766L14.5743 20.3867C14.7306 20.2695 14.8204 20.0586 14.7853 19.8828C14.7306 19.5977 14.547 19.4453 14.2579 19.4453C13.9376 19.4453 13.7501 19.6484 13.7501 19.9961C13.7501 20.1836 13.7618 20.2109 13.9064 20.3477L14.0626 20.4961V21.125V21.7539L13.0001 21.7422C11.9845 21.7305 11.9259 21.7266 11.797 21.6445C11.7228 21.5977 11.6251 21.5 11.5822 21.4297C11.5079 21.3086 11.504 21.2305 11.504 19.9727C11.504 18.7773 11.5118 18.6328 11.5743 18.5195C11.6525 18.3711 11.7853 18.2773 11.965 18.2344C12.0314 18.2148 15.1134 18.207 18.8087 18.207C25.4533 18.2148 25.5275 18.2148 25.6564 18.293ZM14.3517 19.9336C14.3673 19.9766 14.3478 19.9922 14.2775 19.9922C14.1837 19.9922 14.1525 19.9531 14.2072 19.9023C14.2501 19.8555 14.3283 19.8711 14.3517 19.9336ZM23.2736 19.9414C23.2814 19.9727 23.2501 19.9922 23.1876 19.9922C23.09 19.9922 23.0587 19.9531 23.1134 19.8984C23.1525 19.8594 23.254 19.8867 23.2736 19.9414ZM22.9689 22.3945V22.6484H18.7111H14.4533V22.3945V22.1406H18.7111H22.9689V22.3945ZM14.0626 23.6602V24.2812L13.9064 24.4375C13.7618 24.582 13.7501 24.6094 13.7501 24.8047C13.7501 24.9648 13.7697 25.0469 13.8322 25.125C14.1095 25.4805 14.6525 25.375 14.7697 24.9414C14.8243 24.7422 14.7618 24.5625 14.5861 24.4102L14.4533 24.293V23.6641V23.0391H18.7111H22.9689V23.6836C22.9689 24.2891 22.965 24.3281 22.8868 24.3672C22.6642 24.4883 22.5783 24.9219 22.7384 25.125C22.9923 25.4492 23.4806 25.4023 23.6408 25.0391C23.7462 24.8047 23.7111 24.6289 23.5118 24.4336L23.3595 24.2812V23.6562V23.0352L24.4454 23.0469C25.6564 23.0586 25.6954 23.0703 25.8712 23.3516C25.9533 23.4844 25.9572 23.5195 25.9572 24.8164C25.9572 26.1133 25.9533 26.1484 25.8712 26.2812C25.8243 26.3555 25.7267 26.4531 25.6564 26.4961C25.5275 26.5742 25.4572 26.5742 18.7306 26.5742H11.9337L11.797 26.4883C11.7228 26.4414 11.6251 26.3437 11.5822 26.2734C11.5079 26.1523 11.504 26.0742 11.504 24.8359C11.504 23.4023 11.5118 23.3437 11.7267 23.1875C11.9103 23.0586 12.0236 23.0469 13.0783 23.043L14.0626 23.0391V23.6602ZM11.2306 26.5391C11.3048 26.6562 11.422 26.7734 11.5392 26.8477L11.7306 26.9648L18.504 26.9766C23.8634 26.9844 25.2736 26.9961 25.2736 27.0352C25.2736 27.1289 25.1173 27.332 24.9923 27.4023C24.8712 27.4687 24.5353 27.4727 18.0665 27.4727C10.4533 27.4727 11.1251 27.5 10.9298 27.1914C10.84 27.0469 10.84 27.0234 10.8283 25.8711C10.8126 24.4961 10.8243 24.3359 10.9689 24.1641L11.0743 24.0391L11.0939 25.1914L11.1134 26.3477L11.2306 26.5391ZM14.3556 24.875C14.3439 24.8945 14.3087 24.9141 14.2775 24.9141C14.2462 24.9141 14.2111 24.8945 14.1993 24.875C14.1837 24.8516 14.2189 24.8359 14.2775 24.8359C14.3361 24.8359 14.3712 24.8516 14.3556 24.875ZM23.2423 24.8945C23.2033 24.9414 23.1798 24.9453 23.1408 24.9102C23.0626 24.8477 23.0704 24.8359 23.1876 24.8359C23.2736 24.8359 23.2853 24.8437 23.2423 24.8945Z" stroke="#B17400" stroke-width="0.2" mask="url(#path-11-outside-1_41260_5918)"/>
<path d="M26.5534 16.2593C26.5103 16.1797 26.5038 16.0988 26.5451 16.0245C26.5843 15.9542 26.6617 15.8988 26.765 15.8541C26.9296 15.7808 27.0717 15.7499 27.1771 15.773C27.2316 15.7849 27.2777 15.8116 27.3094 15.855C27.3407 15.8979 27.3546 15.9522 27.3546 16.0132C27.3546 16.0486 27.3509 16.0825 27.3388 16.1143C27.3263 16.147 27.306 16.1744 27.2775 16.1987C27.2234 16.2448 27.1364 16.2815 27.0087 16.326C26.8926 16.3673 26.7995 16.3884 26.725 16.3803C26.6864 16.3761 26.652 16.3639 26.6222 16.3424C26.5928 16.3211 26.5707 16.2925 26.5534 16.2593Z" fill="#B17400" stroke="#B17400" stroke-width="0.1"/>
<defs>
<linearGradient id="paint0_linear_41260_5918" x1="0" y1="0" x2="29.6532" y2="45.2991" gradientUnits="userSpaceOnUse">
<stop stop-color="#F4EAD8"/>
<stop offset="1" stop-color="#E0B764"/>
</linearGradient>
</defs>
</svg>
