<svg width="40" height="40" viewBox="0 0 40 40" fill="none" xmlns="http://www.w3.org/2000/svg">
<circle cx="20" cy="20" r="20" fill="url(#paint0_linear_41260_5854)"/>
<circle cx="20" cy="20" r="15" fill="#FCF9F6"/>
<path d="M20 28C15.5867 28 12 24.4133 12 20C12 15.5867 15.5867 12 20 12C24.4133 12 28 15.5867 28 20C28 24.4133 24.4133 28 20 28ZM20 12.6667C15.9533 12.6667 12.6667 15.9533 12.6667 20C12.6667 24.0467 15.9533 27.3333 20 27.3333C24.0467 27.3333 27.3333 24.0467 27.3333 20C27.3333 15.9533 24.0467 12.6667 20 12.6667ZM17.8267 23.3333C17.6867 23.3333 17.5467 23.2867 17.4267 23.2C17.2 23.0333 17.1067 22.7333 17.1933 22.4667L17.82 20.46L16.24 19.1733C16.02 18.9867 15.9467 18.6933 16.04 18.4333C16.1333 18.1733 16.3867 18 16.6667 18H18.6667L19.3733 16.1C19.4667 15.8467 19.7133 15.6867 20 15.6867C20.2867 15.6867 20.5333 15.8467 20.6267 16.1L21.3333 18H23.3333C23.6133 18 23.8667 18.1733 23.96 18.44C24.0533 18.7 23.98 19 23.7667 19.1733L22.1867 20.46L22.84 22.4467C22.9267 22.7133 22.84 23.0133 22.6133 23.18C22.3867 23.3533 22.08 23.3667 21.8467 23.2133L20.0133 22.02L18.2067 23.2267C18.0933 23.3 17.96 23.34 17.8333 23.34L17.8267 23.3333ZM16.6667 18.66L18.4133 20.08C18.52 20.1667 18.56 20.3067 18.52 20.44L17.8267 22.6667L19.8133 21.34C19.9267 21.2667 20.0667 21.2667 20.18 21.34L22.2 22.6533L21.4733 20.4467C21.4267 20.3133 21.4733 20.1733 21.58 20.0867L23.3267 18.6667H21.0933C20.9533 18.6667 20.8267 18.58 20.78 18.4467L19.9933 16.3267L19.2067 18.4467C19.16 18.58 19.0333 18.6667 18.8933 18.6667H16.66L16.6667 18.66Z" fill="#B17400" stroke="#B17400" stroke-width="0.5"/>
<defs>
<linearGradient id="paint0_linear_41260_5854" x1="0" y1="0" x2="29.6532" y2="45.2991" gradientUnits="userSpaceOnUse">
<stop stop-color="#F4EAD8"/>
<stop offset="1" stop-color="#E0B764"/>
</linearGradient>
</defs>
</svg>
