<svg width="40" height="40" viewBox="0 0 40 40" fill="none" xmlns="http://www.w3.org/2000/svg">
<circle cx="20" cy="20" r="20" fill="url(#paint0_linear_41260_5848)"/>
<circle cx="20" cy="20" r="15" fill="#FCF9F6"/>
<g clip-path="url(#clip0_41260_5848)">
<path d="M29.1671 12.4998H20.8337C20.6127 12.4998 20.4007 12.5876 20.2445 12.7439C20.0882 12.9002 20.0004 13.1122 20.0004 13.3332V16.0582L18.0004 12.5915C17.8544 12.337 17.6439 12.1255 17.39 11.9784C17.1361 11.8314 16.8479 11.7539 16.5545 11.7539C16.2612 11.7539 15.973 11.8314 15.7191 11.9784C15.4652 12.1255 15.2547 12.337 15.1087 12.5915L10.1087 21.2498C10.0356 21.3765 9.99707 21.5202 9.99707 21.6665C9.99707 21.8128 10.0356 21.9565 10.1087 22.0832C10.1821 22.2103 10.2879 22.3159 10.4152 22.389C10.5425 22.4622 10.6869 22.5004 10.8337 22.4998H14.4087C14.2469 23.0406 14.1655 23.6021 14.167 24.1665C14.167 25.7136 14.7816 27.1973 15.8756 28.2913C16.9696 29.3853 18.4533 29.9998 20.0004 29.9998C21.5475 29.9998 23.0312 29.3853 24.1252 28.2913C25.2191 27.1973 25.8337 25.7136 25.8337 24.1665C25.8353 23.6021 25.7538 23.0406 25.5921 22.4998H29.1671C29.3881 22.4998 29.6 22.412 29.7563 22.2558C29.9126 22.0995 30.0004 21.8875 30.0004 21.6665V13.3332C30.0004 13.1122 29.9126 12.9002 29.7563 12.7439C29.6 12.5876 29.3881 12.4998 29.1671 12.4998ZM12.2754 20.8332L16.5504 13.4248L19.4087 18.3332C18.5753 18.4259 17.7717 18.6973 17.0527 19.1287C16.3336 19.5601 15.7161 20.1415 15.242 20.8332H12.2754ZM20.0004 28.3332C19.1763 28.3332 18.3707 28.0888 17.6855 27.631C17.0003 27.1731 16.4663 26.5224 16.1509 25.761C15.8355 24.9997 15.753 24.1619 15.9138 23.3536C16.0745 22.5454 16.4714 21.803 17.0541 21.2202C17.6368 20.6375 18.3793 20.2407 19.1875 20.0799C19.9958 19.9191 20.8335 20.0016 21.5949 20.317C22.3563 20.6324 23.007 21.1664 23.4648 21.8516C23.9227 22.5368 24.1671 23.3424 24.1671 24.1665C24.1671 25.2716 23.7281 26.3314 22.9467 27.1128C22.1653 27.8942 21.1055 28.3332 20.0004 28.3332ZM28.3337 20.8332H24.7837C24.0269 19.7527 22.9295 18.9575 21.6671 18.5748V14.1665H28.3337V20.8332Z" fill="#B17400"/>
</g>
<defs>
<linearGradient id="paint0_linear_41260_5848" x1="0" y1="0" x2="29.6532" y2="45.2991" gradientUnits="userSpaceOnUse">
<stop stop-color="#F4EAD8"/>
<stop offset="1" stop-color="#E0B764"/>
</linearGradient>
<clipPath id="clip0_41260_5848">
<rect width="20" height="20" fill="white" transform="translate(10 10)"/>
</clipPath>
</defs>
</svg>
