<svg width="40" height="40" viewBox="0 0 40 40" fill="none" xmlns="http://www.w3.org/2000/svg">
<circle cx="20" cy="20" r="20" fill="url(#paint0_linear_41260_5897)"/>
<circle cx="20" cy="20" r="15" fill="#FCF9F6"/>
<g clip-path="url(#clip0_41260_5897)">
<path d="M11.3253 10.1014C11.2502 10.203 11.2502 10.2303 11.2502 13.1288C11.2502 15.2303 11.261 16.078 11.2896 16.1483C11.3683 16.3358 11.6508 16.3553 11.7724 16.1795C11.8117 16.1249 11.8189 15.5545 11.8225 13.3475V10.5858H17.5628H23.3031V11.0741V11.5624H21.5041H19.7015L19.6264 11.6522C19.5191 11.7772 19.5227 11.9686 19.6371 12.0897L19.723 12.1874H22.3553H24.984V14.9217C24.984 17.1053 24.9733 17.6561 24.9375 17.6561C24.8517 17.6561 24.6371 17.8475 24.5799 17.9764C24.5513 18.0467 24.4261 18.7733 24.3081 19.5897C24.0291 21.4725 24.0684 21.2889 23.954 21.2889C23.8145 21.2889 23.5642 21.4374 23.4676 21.578C23.4175 21.6444 23.3031 21.9256 23.2065 22.203C23.0384 22.6952 23.0313 22.7108 22.9097 22.7459C22.7272 22.7967 22.6021 22.91 22.5377 23.0858C22.4912 23.2108 22.4805 23.3944 22.4805 23.9842V24.7264H20.1879H17.8954L17.9848 24.6092C18.0349 24.5467 18.5642 23.9374 19.165 23.2538C20.7316 21.4686 20.8961 21.2499 21.1572 20.6444C21.4039 20.0819 21.5077 19.3827 21.4504 18.6952C21.4111 18.2264 21.3467 18.1249 21.0928 18.1249C20.9354 18.1249 20.9211 18.1366 20.6243 18.4764C20.4562 18.6678 19.5942 19.6522 18.7073 20.66C17.8239 21.6678 17.0942 22.4842 17.0907 22.4686C17.0871 22.453 16.7438 21.1678 16.3289 19.6092C15.914 18.0506 15.5456 16.7342 15.5099 16.6795C15.4741 16.6249 15.3954 16.5663 15.3382 16.5467C15.1164 16.4803 14.9483 16.6639 14.6515 17.3045C14.3332 17.9881 14.2116 18.66 14.2867 19.3241C14.3439 19.8319 14.3833 20.0077 14.9948 22.2967C15.4884 24.16 15.5134 24.2616 15.4562 24.3319C15.3525 24.4569 15.2237 24.453 14.5764 24.3124C14.233 24.2381 13.8504 24.1639 13.7288 24.1522L13.5034 24.1288V18.16V12.1874H16.0714C18.8682 12.1874 18.7537 12.1952 18.8324 11.9686C18.8718 11.8553 18.8145 11.6522 18.7251 11.6014C18.6822 11.578 17.62 11.5624 15.8675 11.5624H13.0778L13.0063 11.6639L12.9312 11.7694V17.4452V23.1249H12.3768H11.8225V20.1756V17.2225L11.7295 17.1209C11.6544 17.0389 11.615 17.0272 11.5077 17.0467C11.2324 17.0936 11.2502 16.8553 11.2502 20.3905C11.2502 23.5233 11.2502 23.5428 11.3253 23.6483L11.3969 23.7499H12.1658H12.9312V24.0038C12.9312 24.1913 12.9169 24.2577 12.8811 24.2577C12.8561 24.2577 12.7166 24.3241 12.57 24.4022C12.0943 24.66 11.6794 25.2186 11.5328 25.8006C11.4577 26.0936 11.4684 26.8045 11.5507 27.0702C11.776 27.7967 12.2302 28.3006 12.8775 28.5389C13.1064 28.6209 13.228 28.6444 13.5034 28.6444C13.9147 28.6444 14.115 28.5936 14.4691 28.41C14.7159 28.285 14.7981 28.2069 15.4526 27.4725L16.1679 26.6756L16.4004 27.5467C16.5256 28.0272 16.6615 28.5038 16.7008 28.6131C16.9333 29.2499 17.4698 29.7694 18.0814 29.9413C18.4283 30.0389 19.0184 30.0077 19.3403 29.8709C19.6014 29.7616 19.9411 29.5272 20.0878 29.3514C20.7781 28.5389 20.8639 27.3319 20.2988 26.453C19.9948 25.9803 19.6801 25.7538 18.9755 25.5038L18.5642 25.3592L20.5241 25.3553L22.4805 25.3514V27.41C22.4805 28.6913 22.4948 29.5272 22.5162 29.617C22.5377 29.6952 22.6092 29.8124 22.6808 29.8788L22.8059 29.9999H25.1128C27.6914 29.9999 27.5484 30.0155 27.6986 29.7264C27.7737 29.5819 27.7737 29.5545 27.7737 26.3905C27.7737 22.992 27.7773 23.0467 27.602 22.8788C27.5627 22.8397 27.4625 22.785 27.3767 22.7577C27.2372 22.7108 27.2229 22.6952 27.1407 22.4569C26.9118 21.7811 26.8653 21.6678 26.783 21.5584C26.6686 21.4139 26.4504 21.2889 26.3073 21.2889C26.2501 21.2889 26.2 21.2733 26.2 21.2538C26.2 21.2342 26.0963 20.5116 25.9676 19.6444C25.7637 18.2889 25.7208 18.0467 25.6457 17.9217L25.5563 17.7733V14.7733C25.5563 11.7928 25.5563 11.7655 25.4812 11.6639L25.4096 11.5624H24.6407H23.8753V10.8827C23.8753 10.2577 23.8682 10.1991 23.8002 10.1014L23.7287 9.99985H17.5628H11.3969L11.3253 10.1014ZM15.9176 20.3241C16.5327 22.6366 16.6186 22.9881 16.5792 23.0663C16.5542 23.1131 16.4111 23.2889 16.2609 23.453L15.982 23.7538L15.4777 21.8475C14.816 19.3631 14.7767 19.1327 14.8732 18.535C14.9376 18.1522 15.1451 17.5428 15.1844 17.6209C15.2023 17.6522 15.5313 18.867 15.9176 20.3241ZM25.1807 18.328C25.2165 18.492 25.6242 21.2655 25.6135 21.2811C25.6063 21.285 25.3846 21.285 25.1199 21.2811L24.6371 21.2694L24.8445 19.8827C25.0985 18.1795 25.0877 18.242 25.1271 18.242C25.145 18.242 25.17 18.2811 25.1807 18.328ZM20.871 19.4686C20.8067 20.0702 20.635 20.5116 20.2487 21.0389C20.027 21.3475 18.9254 22.6249 18.017 23.6327C17.6879 23.9959 17.5342 24.1444 17.5199 24.1053C17.4805 23.9999 17.2087 23.703 17.0871 23.6366L16.9619 23.5663L18.9218 21.3319C20.002 20.1053 20.8889 19.1053 20.8925 19.1131C20.8997 19.1209 20.8889 19.2811 20.871 19.4686ZM26.3359 21.9608C26.3574 21.9881 26.4289 22.1756 26.4969 22.3709L26.6221 22.7342H25.1414C24.3259 22.7342 23.6607 22.7225 23.6607 22.703C23.6607 22.6639 23.8646 22.0897 23.9111 21.9881C23.9468 21.9178 24.0005 21.9139 25.1235 21.9139C26.0212 21.9139 26.3073 21.9256 26.3359 21.9608ZM27.2015 24.2967V25.2342H25.1271H23.0527V24.2967V23.3592H25.1271H27.2015V24.2967ZM16.8868 24.2616C17.0156 24.3944 17.0585 24.5428 17.012 24.6991C16.9834 24.7889 16.6365 25.2147 15.9319 26.0194C14.3046 27.8827 14.276 27.9061 13.7466 28.0077C13.321 28.0897 12.8203 27.9139 12.4984 27.5702C11.5793 26.5975 12.1336 24.9061 13.4104 24.7772C13.6322 24.7577 13.9112 24.8006 14.5943 24.9647C15.3632 25.1444 15.635 25.0741 16.0857 24.5663C16.2395 24.3944 16.4111 24.2264 16.4648 24.1952C16.59 24.1209 16.7795 24.1522 16.8868 24.2616ZM17.738 25.7186C17.8382 25.7694 18.1958 25.9061 18.5284 26.0155C19.2187 26.2459 19.419 26.3514 19.6586 26.6053C19.9769 26.9452 20.1557 27.5116 20.0878 27.9725C20.0055 28.5233 19.6836 28.9999 19.233 29.2303C19.0077 29.3475 18.9683 29.3553 18.6 29.3553C18.2423 29.3553 18.1887 29.3475 18.0027 29.2459C17.738 29.1014 17.4412 28.8084 17.3196 28.5624C17.2659 28.4569 17.0907 27.8709 16.9262 27.2616L16.6257 26.1522L16.9691 25.7616L17.3124 25.367L17.434 25.4959C17.502 25.5663 17.6379 25.6678 17.738 25.7186ZM27.2015 26.6405V27.4217H25.1271H23.0527V26.6405V25.8592H25.1271H27.2015V26.6405ZM27.2015 28.7108V29.3749H25.1271H23.0527V28.7108V28.0467H25.1271H27.2015V28.7108Z" fill="#B17400" stroke="#B17400" stroke-width="0.3"/>
<path d="M13.167 25.3354C12.9345 25.4135 12.6448 25.7299 12.5625 25.9917C12.491 26.2143 12.4839 26.5463 12.5411 26.7573C12.609 27.0073 12.82 27.269 13.0561 27.4018C13.2349 27.5034 13.3029 27.519 13.5353 27.5151C13.7571 27.5151 13.8429 27.4956 13.986 27.4135C14.3508 27.2065 14.5547 26.8471 14.5547 26.4057C14.5547 25.6167 13.8823 25.0971 13.167 25.3354ZM13.7106 25.9526C14.0182 26.1245 14.0754 26.5424 13.8215 26.7729C13.4388 27.1284 12.8987 26.6557 13.1276 26.1674C13.2385 25.937 13.5067 25.8354 13.7106 25.9526Z" fill="#B17400" stroke="#B17400" stroke-width="0.3"/>
<path d="M18.3782 26.6055C17.7129 26.7422 17.3517 27.5586 17.6629 28.2305C17.8381 28.6055 18.1779 28.8281 18.582 28.8281C18.9969 28.8281 19.3224 28.6094 19.5012 28.2109C19.587 28.0234 19.6013 27.9414 19.5978 27.6953C19.5942 27.3477 19.5298 27.1719 19.3295 26.9336C19.1042 26.668 18.7215 26.5312 18.3782 26.6055ZM18.7501 27.2461C18.793 27.2578 18.8681 27.3203 18.9182 27.3867C19.2616 27.8281 18.768 28.4375 18.3281 28.1133C18.1886 28.0117 18.092 27.7656 18.1278 27.6094C18.1636 27.457 18.3209 27.2695 18.4497 27.2305C18.5641 27.1953 18.5963 27.1992 18.7501 27.2461Z" fill="#B17400" stroke="#B17400" stroke-width="0.3"/>
</g>
<defs>
<linearGradient id="paint0_linear_41260_5897" x1="0" y1="0" x2="29.6532" y2="45.2991" gradientUnits="userSpaceOnUse">
<stop stop-color="#F4EAD8"/>
<stop offset="1" stop-color="#E0B764"/>
</linearGradient>
<clipPath id="clip0_41260_5897">
<rect width="20" height="20" fill="white" transform="translate(10 10)"/>
</clipPath>
</defs>
</svg>
