<svg width="40" height="40" viewBox="0 0 40 40" fill="none" xmlns="http://www.w3.org/2000/svg">
<circle cx="20" cy="20" r="20" fill="url(#paint0_linear_41260_5870)"/>
<circle cx="20" cy="20" r="15" fill="#FCF9F6"/>
<g clip-path="url(#clip0_41260_5870)">
<path d="M19.6719 10.0742C19.4258 10.2383 19.4141 10.2891 19.4141 11.1914C19.4141 11.9297 19.4219 12.0234 19.4883 12.125C19.6094 12.3047 19.7578 12.3828 20 12.3828C20.2422 12.3828 20.3906 12.3047 20.5117 12.125C20.5781 12.0234 20.5859 11.9297 20.5859 11.1914C20.5859 10.4531 20.5781 10.3594 20.5117 10.2578C20.3906 10.0781 20.2422 10 20 10C19.8555 10 19.75 10.0234 19.6719 10.0742Z" fill="#B17400"/>
<path d="M15.0586 11.3242C15.0156 11.3438 14.9297 11.4141 14.8633 11.4805C14.7656 11.5859 14.7461 11.6406 14.7383 11.8477L14.7227 12.0898L15.0859 12.7148C15.4883 13.4062 15.5781 13.4922 15.8945 13.4922C16.2617 13.4883 16.4844 13.2656 16.4844 12.8945C16.4844 12.7031 16.457 12.6367 16.1523 12.1133C15.7383 11.3984 15.6641 11.3164 15.3633 11.3008C15.2383 11.2969 15.1016 11.3047 15.0586 11.3242Z" fill="#B17400"/>
<path d="M24.4336 11.3242C24.293 11.3867 24.1562 11.5742 23.832 12.1367C23.5469 12.6406 23.5156 12.7109 23.5156 12.8984C23.5156 13.2656 23.7383 13.4883 24.1055 13.4922C24.4219 13.4922 24.5078 13.4062 24.9141 12.7148L25.2773 12.0898L25.2656 11.8438C25.25 11.6211 25.2344 11.5859 25.1094 11.457C24.9805 11.3281 24.9375 11.3125 24.7383 11.3008C24.6133 11.2969 24.4766 11.3047 24.4336 11.3242Z" fill="#B17400"/>
<path d="M11.6211 14.7656C11.5781 14.7813 11.4922 14.8516 11.4258 14.9219C11.3203 15.0352 11.3086 15.0664 11.3086 15.3125C11.3086 15.5586 11.3203 15.5898 11.4258 15.7031C11.4883 15.7695 11.8008 15.9727 12.1172 16.1563C12.6406 16.4531 12.7109 16.4844 12.8984 16.4844C13.2656 16.4844 13.4883 16.2617 13.4922 15.8945C13.4922 15.5781 13.4062 15.4883 12.7148 15.0898C12.1484 14.7617 12.0703 14.7266 11.8945 14.7305C11.7891 14.7305 11.6641 14.7461 11.6211 14.7656Z" fill="#B17400"/>
<path d="M19.0425 14.7901C17.3628 15.0909 15.9371 16.1768 15.2105 17.7159C15.0152 18.126 14.8707 18.6065 14.7808 19.13C14.6832 19.6925 14.7222 20.7003 14.8589 21.2432C15.1011 22.2003 15.5074 22.919 16.2769 23.7628C16.6363 24.1534 16.8355 24.5089 16.9566 24.9815C17.023 25.2432 17.0425 25.4776 17.066 26.4464L17.0972 27.5987L17.2183 27.9659C17.3902 28.4659 17.6167 28.8331 17.9644 29.1807C18.5191 29.7276 19.0699 29.962 19.8863 29.9932C20.4839 30.0128 20.855 29.9346 21.3667 29.6807C21.6285 29.5479 21.773 29.4425 22.0542 29.1612C22.4488 28.7706 22.6441 28.462 22.8042 27.9776C22.898 27.6925 22.9058 27.6143 22.9292 26.505C22.9644 25.1651 22.9917 24.9854 23.2574 24.4346C23.3785 24.1925 23.5113 23.9932 23.6988 23.7901C24.4371 22.9737 24.7964 22.3917 25.0503 21.5831C25.273 20.8721 25.3394 19.8175 25.2144 19.0792C24.8355 16.919 23.0816 15.1651 20.9214 14.7862C20.4839 14.712 19.4761 14.712 19.0425 14.7901ZM21.0269 16.0557C21.4019 16.1534 21.9605 16.4073 22.3082 16.6417C22.6246 16.8565 23.1402 17.3721 23.3511 17.6846C23.8824 18.4737 24.0894 19.2081 24.0503 20.1846C24.0152 21.2315 23.7027 21.9464 22.8902 22.8526C22.5191 23.2667 22.3511 23.5011 22.1597 23.8878C22.0152 24.1729 21.855 24.669 21.7925 25.0167L21.7496 25.2745H19.9996H18.2496L18.2027 25.0089C18.0582 24.1534 17.7535 23.5518 17.1011 22.837C16.2691 21.9229 15.9332 21.1143 15.9332 20.0206C15.9371 18.4542 16.7144 17.1339 18.0621 16.4034C18.9332 15.9346 20.0503 15.8057 21.0269 16.0557ZM21.7574 26.7081C21.7535 27.4581 21.6011 27.8995 21.2144 28.2862C20.8785 28.6221 20.5582 28.7628 20.0933 28.7823C19.6558 28.8018 19.398 28.7354 19.0699 28.5167C18.8199 28.3487 18.6207 28.1104 18.4644 27.7901C18.3355 27.5323 18.2925 27.3253 18.2574 26.8448L18.23 26.4464H19.9957H21.7574V26.7081Z" fill="#B17400"/>
<path d="M19.4181 17.7305C18.9493 17.9062 18.6056 18.2188 18.3907 18.668C18.2306 19 18.1876 19.5039 18.3009 19.7148C18.4025 19.9023 18.5822 20 18.8282 20C19.1837 20 19.3829 19.8125 19.4337 19.4297C19.4806 19.0742 19.6915 18.8672 20.0001 18.8672C20.3126 18.8672 20.547 19.1016 20.547 19.4141C20.547 19.6758 20.4415 19.8125 20.1173 19.9844C19.6486 20.2305 19.4142 20.6094 19.4142 21.125C19.4142 21.5469 19.6095 21.7578 20.0001 21.7578C20.3165 21.7578 20.5861 21.543 20.5861 21.2852C20.5861 21.1523 20.6407 21.0938 20.9142 20.9336C21.2072 20.7617 21.465 20.4766 21.6173 20.1562C21.7345 19.9141 21.7384 19.8789 21.7384 19.4141C21.7384 18.9375 21.7345 18.918 21.6056 18.6523C21.4298 18.293 21.1212 17.9844 20.7618 17.8125C20.5079 17.6875 20.4532 17.6758 20.0587 17.668C19.7072 17.6562 19.59 17.668 19.4181 17.7305Z" fill="#B17400"/>
<path d="M19.6719 23.0039C19.4922 23.125 19.4141 23.2734 19.4141 23.5156C19.4141 23.7578 19.4922 23.9062 19.6719 24.0273C19.75 24.0781 19.8555 24.1016 20 24.1016C20.3711 24.1016 20.5859 23.8867 20.5859 23.5156C20.5859 23.1445 20.3711 22.9297 20 22.9297C19.8555 22.9297 19.75 22.9531 19.6719 23.0039Z" fill="#B17400"/>
<path d="M27.2852 15.0859C26.5938 15.4883 26.5078 15.5781 26.5078 15.8945C26.5117 16.2617 26.7344 16.4844 27.1055 16.4844C27.2969 16.4844 27.3633 16.457 27.8867 16.1523C28.2031 15.9727 28.5117 15.7695 28.5742 15.7031C28.6797 15.5898 28.6914 15.5586 28.6914 15.3125C28.6914 15.0508 28.6875 15.0352 28.5469 14.8945C28.4141 14.7617 28.3789 14.75 28.1562 14.7383L27.9102 14.7227L27.2852 15.0859Z" fill="#B17400"/>
<path d="M10.2578 19.4883C10.0781 19.6094 10 19.7578 10 20C10 20.2422 10.0781 20.3906 10.2578 20.5117C10.3594 20.5781 10.4531 20.5859 11.1914 20.5859C12.0938 20.5859 12.1445 20.5742 12.3086 20.3281C12.4102 20.1758 12.4102 19.8242 12.3086 19.6719C12.1445 19.4258 12.0938 19.4141 11.1914 19.4141C10.4531 19.4141 10.3594 19.4219 10.2578 19.4883Z" fill="#B17400"/>
<path d="M27.875 19.4883C27.6953 19.6094 27.6172 19.7578 27.6172 20C27.6172 20.2422 27.6953 20.3906 27.875 20.5117C27.9766 20.5781 28.0703 20.5859 28.8086 20.5859C29.7109 20.5859 29.7617 20.5742 29.9258 20.3281C30.0273 20.1758 30.0273 19.8242 29.9258 19.6719C29.7617 19.4258 29.7109 19.4141 28.8086 19.4141C28.0703 19.4141 27.9766 19.4219 27.875 19.4883Z" fill="#B17400"/>
<path d="M12.1172 23.8438C11.8086 24.0234 11.5 24.2227 11.4336 24.293C11.3164 24.4062 11.3086 24.4336 11.3086 24.6875C11.3086 24.9492 11.3125 24.9648 11.4531 25.1055C11.5859 25.2383 11.6211 25.25 11.8438 25.2656L12.0898 25.2773L12.7148 24.9141C13.4062 24.5078 13.4922 24.4219 13.4922 24.1055C13.4883 23.7344 13.2656 23.5156 12.8906 23.5195C12.6953 23.5195 12.6289 23.5469 12.1172 23.8438Z" fill="#B17400"/>
<path d="M26.7695 23.5938C26.6055 23.6914 26.5117 23.8828 26.5078 24.1055C26.5078 24.4219 26.5938 24.5117 27.2852 24.9141L27.9102 25.2773L28.1562 25.2617C28.3789 25.25 28.4141 25.2383 28.5469 25.1055C28.6875 24.9648 28.6914 24.9492 28.6914 24.6875C28.6914 24.4414 28.6797 24.4102 28.5742 24.2969C28.5117 24.2305 28.2031 24.0273 27.8867 23.8477C27.3633 23.543 27.2969 23.5156 27.1055 23.5156C26.9648 23.5156 26.8516 23.543 26.7695 23.5938Z" fill="#B17400"/>
</g>
<defs>
<linearGradient id="paint0_linear_41260_5870" x1="0" y1="0" x2="29.6532" y2="45.2991" gradientUnits="userSpaceOnUse">
<stop stop-color="#F4EAD8"/>
<stop offset="1" stop-color="#E0B764"/>
</linearGradient>
<clipPath id="clip0_41260_5870">
<rect width="20" height="20" fill="white" transform="translate(10 10)"/>
</clipPath>
</defs>
</svg>
