<svg width="40" height="40" viewBox="0 0 40 40" fill="none" xmlns="http://www.w3.org/2000/svg">
<circle cx="20" cy="20" r="20" fill="url(#paint0_linear_41260_5888)"/>
<circle cx="20" cy="20" r="15" fill="#FCF9F6"/>
<g clip-path="url(#clip0_41260_5888)">
<path d="M23.2912 10.6294C22.8431 10.7471 22.5088 10.9446 22.1442 11.3131C21.9467 11.5106 21.7758 11.7233 21.7074 11.8524L21.5935 12.0727H17.7915C14.4074 12.0727 13.9706 12.0803 13.7845 12.1335C13.0704 12.3462 12.5501 12.8703 12.3184 13.6147C12.2538 13.8274 12.25 14.1617 12.25 21.0363C12.25 27.911 12.2538 28.2453 12.3184 28.4579C12.5425 29.1796 13.021 29.6772 13.7085 29.9126L13.9592 29.9962L19.8501 30H25.7411L25.8436 29.9012L25.9424 29.7987V23.9647V18.1308L26.2576 17.9674C27.4274 17.3673 28.7758 15.9848 29.3645 14.7884C29.8089 13.8806 29.8735 12.8627 29.5354 12.0993C29.2202 11.3852 28.5593 10.8193 27.8186 10.6294C27.4502 10.5344 26.8653 10.5268 26.5159 10.6142C26.2918 10.6712 25.8094 10.8915 25.6309 11.0168C25.5739 11.0548 25.5436 11.051 25.46 10.9978C25.2511 10.8611 24.8181 10.6674 24.594 10.6104C24.275 10.5306 23.6407 10.5382 23.2912 10.6294ZM24.4953 11.4194C24.689 11.4764 24.9472 11.6283 25.2739 11.8828C25.5056 12.0613 25.6537 12.0423 25.95 11.803C26.5691 11.3017 27.2375 11.2029 27.9098 11.522C28.301 11.7043 28.5669 11.9701 28.7644 12.3727L28.9239 12.6918V13.2083C28.9201 13.6755 28.9125 13.7515 28.8176 14.006C28.4529 15.0011 27.5718 16.0798 26.4551 16.9002C26.1209 17.1432 25.6727 17.3901 25.5625 17.3901C25.3081 17.3901 24.3737 16.7292 23.7394 16.0987C22.2619 14.6365 21.7986 13.2045 22.4632 12.1714C22.6418 11.8942 22.9038 11.6701 23.2191 11.5182C23.6483 11.3169 24.0471 11.2865 24.4953 11.4194ZM21.3732 13.2387C21.3846 14.2946 21.9429 15.4075 23.014 16.5317C23.5381 17.0825 24.3699 17.7206 24.9093 17.994L25.1447 18.1118V21.9669V25.822H20.1312H15.1176V19.3272V12.8323H18.2435H21.3694L21.3732 13.2387ZM14.32 19.3462V25.822H14.1529C13.925 25.822 13.549 25.9436 13.2793 26.1069C13.1578 26.1791 13.0514 26.2398 13.0438 26.2398C13.0324 26.2398 13.0324 23.4672 13.0362 20.0754L13.0476 13.9148L13.1388 13.6869C13.3097 13.2615 13.8072 12.8779 14.1985 12.8741L14.32 12.8703V19.3462ZM25.1447 27.0564V27.5312H19.6602H14.1795L14.0807 27.6262C13.9174 27.7933 13.9174 28.0288 14.0807 28.1959L14.1795 28.2908H19.6602H25.1447V28.7656V29.2442L19.6298 29.2328L14.1111 29.2214L13.8832 29.1302C13.568 29.0049 13.2603 28.6896 13.1464 28.3858C12.8501 27.5996 13.3515 26.7412 14.1757 26.6196C14.2858 26.6044 16.8002 26.5893 19.7628 26.5855L25.1447 26.5817V27.0564Z" fill="#B17400" stroke="#B17400" stroke-width="0.4"/>
<path d="M16.4579 20.7843L16.3516 20.8754V22.7821V24.6888L16.4579 24.7799L16.5643 24.8711H20.1497H23.7352L23.8415 24.7799L23.9479 24.6888V22.7821V20.8754L23.8415 20.7843L23.7352 20.6931H20.1497H16.5643L16.4579 20.7843ZM23.1693 22.7821V24.1115H20.1497H17.1302V22.7821V21.4528H20.1497H23.1693V22.7821Z" fill="#B17400" stroke="#B17400" stroke-width="0.4"/>
<path d="M18.1679 22.4956C18.0767 22.5753 18.0615 22.6171 18.0615 22.7842C18.0615 22.9514 18.0767 22.9931 18.1679 23.0729L18.2742 23.1641H20.1505H22.0268L22.1331 23.0729C22.2243 22.9931 22.2395 22.9514 22.2395 22.7842C22.2395 22.6171 22.2243 22.5753 22.1331 22.4956L22.0268 22.4044H20.1505H18.2742L18.1679 22.4956Z" fill="#B17400" stroke="#B17400" stroke-width="0.4"/>
</g>
<defs>
<linearGradient id="paint0_linear_41260_5888" x1="0" y1="0" x2="29.6532" y2="45.2991" gradientUnits="userSpaceOnUse">
<stop stop-color="#F4EAD8"/>
<stop offset="1" stop-color="#E0B764"/>
</linearGradient>
<clipPath id="clip0_41260_5888">
<rect width="20" height="20" fill="white" transform="translate(11 10)"/>
</clipPath>
</defs>
</svg>
