<svg width="40" height="40" viewBox="0 0 40 40" fill="none" xmlns="http://www.w3.org/2000/svg">
<circle cx="20" cy="20" r="20" fill="url(#paint0_linear_41260_5906)"/>
<circle cx="20" cy="20" r="15" fill="#FCF9F6"/>
<path d="M15.2342 11.0842C14.2018 11.351 13.4223 12.1686 13.2109 13.2011C13.1624 13.4401 13.1555 14.1296 13.1555 19.4649V25.4586H12.2894H11.4198L11.3366 25.5452C11.25 25.6283 11.25 25.6318 11.25 26.3455C11.25 27.1285 11.2812 27.3225 11.4579 27.6724C11.7073 28.1678 12.1889 28.5558 12.7294 28.6944C12.9164 28.7429 13.5366 28.7499 18.2899 28.7499C24.2108 28.7499 23.8124 28.7637 24.2974 28.5212C24.7651 28.2891 25.1531 27.8456 25.3437 27.3294L25.4372 27.0696L25.4476 22.2608L25.4545 17.4555H26.8369H28.2192L28.3301 17.3654L28.4375 17.2754L28.4271 14.7566L28.4167 12.2414L28.2885 11.9746C28.0772 11.5277 27.7238 11.2124 27.2873 11.0773C27.0829 11.015 26.875 11.0115 21.2867 11.015C15.6499 11.015 15.4871 11.0184 15.2342 11.0842ZM24.9972 11.9019C24.9245 12.0509 24.8483 12.2553 24.8309 12.3592C24.8101 12.477 24.7963 15.1135 24.7963 19.6901C24.7963 26.7508 24.7963 26.8409 24.727 27.0626C24.5884 27.513 24.1831 27.9114 23.7292 28.0431C23.5629 28.0916 23.5213 28.0916 23.2961 28.0431C22.825 27.9357 22.4647 27.6481 22.2395 27.1943L22.1113 26.9344L22.094 26.2866C22.0766 25.6595 22.0732 25.6352 21.9935 25.5486L21.9103 25.4586H17.8603H13.8137L13.8207 19.3852L13.8311 13.3154L13.9211 13.0867C14.0459 12.7611 14.1706 12.5671 14.4027 12.3176C14.718 11.9781 15.1753 11.739 15.6153 11.6767C15.7435 11.6559 17.8568 11.642 20.4864 11.6386L25.1289 11.6351L24.9972 11.9019ZM27.1348 11.7252C27.3323 11.7945 27.5852 12.0301 27.6892 12.2414C27.755 12.3731 27.7585 12.4701 27.7688 14.5869L27.7758 16.7972H26.6152H25.4511L25.4615 14.6042L25.4719 12.4146L25.555 12.2587C25.7213 11.94 25.9985 11.7252 26.3172 11.6663C26.5355 11.6282 26.927 11.6559 27.1348 11.7252ZM21.4357 26.4875C21.4357 27.073 21.5639 27.4749 21.8896 27.9114L22.0281 28.0916L17.4619 28.0847L12.8956 28.0743L12.6982 27.9807C12.421 27.8525 12.1716 27.61 12.0364 27.3329C11.929 27.1146 11.9256 27.0903 11.9152 26.6122L11.9048 26.1168H16.6685H21.4357V26.4875Z" fill="#B17400" stroke="#B17400" stroke-width="0.3"/>
<path d="M14.8497 13.9406C14.6592 14.0445 14.6349 14.3425 14.8081 14.4776C14.8948 14.5469 14.9433 14.5469 17.7876 14.5469C20.7637 14.5469 20.7671 14.5469 20.8711 14.4118C20.9438 14.3148 20.923 14.1103 20.833 14.0029L20.7498 13.9059L17.8431 13.899C15.3833 13.8921 14.9259 13.899 14.8497 13.9406Z" fill="#B17400" stroke="#B17400" stroke-width="0.3"/>
<path d="M14.7937 16.2235C14.6586 16.3413 14.6586 16.5526 14.7937 16.6842L14.8873 16.7812H19.1278H23.3684L23.455 16.7016C23.5035 16.6565 23.5486 16.5768 23.559 16.5283C23.5832 16.4105 23.507 16.2269 23.4169 16.1784C23.365 16.1507 22.0796 16.1403 19.1174 16.1403H14.8907L14.7937 16.2235Z" fill="#B17400" stroke="#B17400" stroke-width="0.3"/>
<path d="M14.8493 18.3039C14.6622 18.4078 14.6379 18.6642 14.8008 18.827L14.8839 18.9102H17.9708C20.2539 18.9102 21.0785 18.8998 21.1339 18.8686C21.2517 18.8062 21.2933 18.73 21.2967 18.5741C21.2967 18.4563 21.2794 18.4147 21.1893 18.342L21.0819 18.2519H18.0124C15.4244 18.2554 14.9255 18.2623 14.8493 18.3039Z" fill="#B17400" stroke="#B17400" stroke-width="0.3"/>
<path d="M14.7804 20.2829C14.725 20.3452 14.6973 20.4111 14.6973 20.5046C14.6973 20.5981 14.725 20.664 14.7804 20.7263L14.8636 20.8164H17.9955H21.1274L21.2106 20.7298C21.2764 20.6674 21.2972 20.6085 21.2972 20.5046C21.2972 20.4007 21.2764 20.3418 21.2106 20.2794L21.1274 20.1928H17.9955H14.8636L14.7804 20.2829Z" fill="#B17400" stroke="#B17400" stroke-width="0.3"/>
<path d="M14.7937 22.5267C14.6586 22.6445 14.6586 22.8558 14.7937 22.9875L14.8873 23.0845L18.622 23.0949C20.673 23.1018 22.4053 23.0949 22.4711 23.0845C22.7379 23.036 22.8522 22.7138 22.6651 22.5301L22.582 22.4435H18.7363H14.8907L14.7937 22.5267Z" fill="#B17400" stroke="#B17400" stroke-width="0.3"/>
<defs>
<linearGradient id="paint0_linear_41260_5906" x1="0" y1="0" x2="29.6532" y2="45.2991" gradientUnits="userSpaceOnUse">
<stop stop-color="#F4EAD8"/>
<stop offset="1" stop-color="#E0B764"/>
</linearGradient>
</defs>
</svg>
