<svg width="187" height="91" viewBox="0 0 187 91" fill="none" xmlns="http://www.w3.org/2000/svg">
<path d="M45.0722 0C20.1443 0 0 20.2055 0 45.0721C0 64.7013 12.4895 81.393 30.0481 87.5536V48.5808C32.0065 48.2952 33.9648 48.1219 36.0353 48.1219V89.2212C37.9885 89.6241 40.0081 89.9148 42.0225 90.027V48.5808C44.093 48.9276 46.1635 49.3866 48.0097 50.0241V90.027C50.0802 89.9148 52.0946 89.6241 54.053 89.2212V52.727C54.7975 53.1299 55.6084 53.5888 56.2969 54.109C57.6789 55.0321 58.9437 56.0673 60.0962 57.2199V87.5536C68.8475 84.5039 76.3289 78.7462 81.6838 71.377C86.9774 63.9517 90.0882 54.9148 90.0882 45.0721C90.0882 20.2055 69.9389 0 45.0722 0ZM63.0898 45.1282H27.0545V36.0914C40.8699 36.0914 53.4767 38.2792 63.0898 41.793V45.1282ZM69.077 33.0978H21.0112V24.117H69.077V33.0978Z" fill="url(#paint0_linear_41260_3746)"/>
<path d="M104.684 28.7318V12.1982H98.2529V8.29688H115.47V12.1982H109.008V28.7318H104.684Z" fill="url(#paint1_linear_41260_3746)"/>
<path d="M120.498 28.7306H116.541V8.30078H120.498V15.5272C121.549 14.135 122.86 13.2527 124.854 13.2527C127.898 13.2527 130.005 15.2467 130.005 18.9135V28.7306H126.078V20.2496C126.078 18.0006 125.195 16.7512 123.405 16.7512C121.84 16.7512 120.504 18.0057 120.504 20.4485V28.7306H120.498Z" fill="url(#paint2_linear_41260_3746)"/>
<path d="M131.539 21.0782C131.539 16.5547 134.696 13.25 139.082 13.25C143.891 13.25 147.078 17.1514 146.364 22.0982H135.578C135.833 24.5716 137.032 25.9383 139.051 25.9383C140.785 25.9383 141.953 25.0867 142.407 23.5771H146.334C145.482 27.0195 142.835 28.9829 139.133 28.9829C134.579 28.9829 131.534 25.8261 131.534 21.0731M135.634 19.5942H142.177C142.065 17.4879 140.867 16.1518 138.99 16.1518C137.113 16.1518 135.971 17.3452 135.634 19.5942Z" fill="url(#paint3_linear_41260_3746)"/>
<path d="M113.792 47.5209C113.792 52.1005 111.059 55.2879 105.994 55.2879C100.93 55.2879 98.309 52.1005 98.2529 47.7453H102.578C102.634 49.9076 103.516 51.4172 105.994 51.4172C108.473 51.4172 109.437 49.9382 109.437 47.6331V34.4297H113.792V47.5209Z" fill="url(#paint4_linear_41260_3746)"/>
<path d="M125.797 39.6641H129.724V54.8615H126.108V52.8675C125.282 54.2036 123.604 55.142 121.666 55.142C118.622 55.142 116.403 53.2908 116.403 49.3384V39.6641H120.361V48.5734C120.361 50.7051 121.411 51.6486 123.008 51.6486C124.43 51.6486 125.797 50.5114 125.797 48.4612V39.6692V39.6641Z" fill="url(#paint5_linear_41260_3746)"/>
<path d="M136.256 34.4297H132.273V54.8595H136.256V34.4297Z" fill="url(#paint6_linear_41260_3746)"/>
<path d="M138.796 54.8615L139.082 39.6641H142.468L142.753 54.8615H138.796Z" fill="url(#paint7_linear_41260_3746)"/>
<path d="M154.346 52.9903C153.351 54.4132 151.842 55.1526 149.766 55.1526C146.609 55.1526 144.503 53.3014 144.503 50.4557C144.503 47.61 146.895 45.9016 151.332 45.9016C152.183 45.9016 152.923 45.9577 153.866 46.0699V45.157C153.866 43.4486 152.897 42.4541 151.25 42.4541C149.603 42.4541 148.516 43.4486 148.379 45.157H144.819C145.049 41.6585 147.578 39.3789 151.25 39.3789C155.233 39.3789 157.569 41.5718 157.569 45.2998V54.8619H154.351V52.9852L154.346 52.9903ZM150.618 52.4191C152.637 52.4191 153.861 51.3074 153.861 49.5428V48.4617C152.923 48.3189 152.265 48.2628 151.587 48.2628C149.338 48.2628 148.231 48.9717 148.231 50.3384C148.231 51.6185 149.144 52.414 150.623 52.414" fill="url(#paint8_linear_41260_3746)"/>
<path d="M163.974 54.8658H160.017V39.6684H163.658V41.8307C164.77 40.3212 166.335 39.3828 168.324 39.3828C171.369 39.3828 173.475 41.3768 173.475 45.0436V54.8607H169.548V46.3797C169.548 44.1307 168.666 42.8813 166.876 42.8813C165.31 42.8813 163.974 44.1358 163.974 46.5786V54.8607V54.8658Z" fill="url(#paint9_linear_41260_3746)"/>
<path d="M142.616 34.457H138.939V38.134H142.616V34.457Z" fill="url(#paint10_linear_41260_3746)"/>
<path d="M145.381 61.2031H141.704V64.8801H145.381V61.2031Z" fill="url(#paint11_linear_41260_3746)"/>
<path d="M102.578 75.0754V81.7357H98.2529V61.3008H105.796C110.773 61.3008 113.879 63.662 113.879 68.1039C113.879 72.5459 110.778 75.0754 105.796 75.0754H102.578ZM102.578 64.9421V71.429H105.765C108.213 71.429 109.58 70.149 109.58 68.1294C109.58 66.1099 108.213 64.9421 105.765 64.9421H102.578Z" fill="url(#paint12_linear_41260_3746)"/>
<path d="M119.065 81.7368H115.107V66.5394H118.749V69.4718C119.86 67.539 122.222 66.3711 124.67 66.3711V70.4663C121.314 70.2113 119.065 71.0068 119.065 74.3676V81.7368Z" fill="url(#paint13_linear_41260_3746)"/>
<path d="M124.782 74.1382C124.782 69.7014 128.082 66.2539 132.493 66.2539C136.904 66.2539 140.204 69.6963 140.204 74.1382C140.204 78.5801 136.904 82.0225 132.493 82.0225C128.082 82.0225 124.782 78.5495 124.782 74.1382ZM136.139 74.1382C136.139 71.3231 134.462 69.783 132.498 69.783C130.535 69.783 128.857 71.318 128.857 74.1382C128.857 76.9584 130.535 78.519 132.498 78.519C134.462 78.519 136.139 76.9533 136.139 74.1382Z" fill="url(#paint14_linear_41260_3746)"/>
<path d="M145.65 81.6753C145.65 85.7756 143.432 87.5095 140.413 87.5095C139.699 87.5095 138.96 87.4534 138.281 87.1984V83.5265C138.71 83.756 139.276 83.8682 139.934 83.8682C140.984 83.8682 141.729 83.2409 141.729 81.5631V66.5391H145.656V81.6804L145.65 81.6753Z" fill="url(#paint15_linear_41260_3746)"/>
<path d="M147.181 74.0821C147.181 69.5586 150.338 66.2539 154.724 66.2539C159.533 66.2539 162.72 70.1553 162.006 75.1021H151.22C151.475 77.5755 152.673 78.9422 154.693 78.9422C156.427 78.9422 157.595 78.0906 158.049 76.581H161.975C161.124 80.0234 158.477 81.9868 154.775 81.9868C150.22 81.9868 147.176 78.83 147.176 74.077M151.276 72.5981H157.819C157.707 70.4919 156.508 69.1557 154.632 69.1557C152.755 69.1557 151.613 70.3491 151.276 72.5981Z" fill="url(#paint16_linear_41260_3746)"/>
<path d="M162.796 74.1382C162.796 69.5841 165.927 66.2539 170.196 66.2539C174.153 66.2539 177.08 68.9313 177.565 73.0264H173.409C173.21 71.0069 171.986 69.7524 170.191 69.7524C168.141 69.7524 166.835 71.4302 166.835 74.1331C166.835 76.836 168.115 78.5138 170.191 78.5138C172.011 78.5138 173.179 77.3205 173.409 75.2398H177.565C177.111 79.4216 174.265 82.0123 170.196 82.0123C165.815 82.0123 162.796 78.7689 162.796 74.128" fill="url(#paint17_linear_41260_3746)"/>
<path d="M186.857 81.3356C185.888 81.8201 184.98 82.0189 183.812 82.0189C180.681 82.0189 178.718 80.2238 178.718 76.812V62.043H182.645V66.541H187V69.9273H182.645V75.9043C182.645 77.6688 183.44 78.3777 184.863 78.3777C185.603 78.3777 186.286 78.2043 186.857 77.8932V81.3356Z" fill="url(#paint18_linear_41260_3746)"/>
<defs>
<linearGradient id="paint0_linear_41260_3746" x1="0" y1="0" x2="66.7217" y2="101.995" gradientUnits="userSpaceOnUse">
<stop stop-color="#F4EAD8"/>
<stop offset="1" stop-color="#E0B764"/>
</linearGradient>
<linearGradient id="paint1_linear_41260_3746" x1="98.2529" y1="8.29688" x2="114.27" y2="28.9114" gradientUnits="userSpaceOnUse">
<stop stop-color="#F4EAD8"/>
<stop offset="1" stop-color="#E0B764"/>
</linearGradient>
<linearGradient id="paint2_linear_41260_3746" x1="116.541" y1="8.30078" x2="133.066" y2="24.9368" gradientUnits="userSpaceOnUse">
<stop stop-color="#F4EAD8"/>
<stop offset="1" stop-color="#E0B764"/>
</linearGradient>
<linearGradient id="paint3_linear_41260_3746" x1="131.534" y1="13.25" x2="143.431" y2="30.4959" gradientUnits="userSpaceOnUse">
<stop stop-color="#F4EAD8"/>
<stop offset="1" stop-color="#E0B764"/>
</linearGradient>
<linearGradient id="paint4_linear_41260_3746" x1="98.2529" y1="34.4297" x2="114.985" y2="53.4714" gradientUnits="userSpaceOnUse">
<stop stop-color="#F4EAD8"/>
<stop offset="1" stop-color="#E0B764"/>
</linearGradient>
<linearGradient id="paint5_linear_41260_3746" x1="116.403" y1="39.6641" x2="128.469" y2="55.5265" gradientUnits="userSpaceOnUse">
<stop stop-color="#F4EAD8"/>
<stop offset="1" stop-color="#E0B764"/>
</linearGradient>
<linearGradient id="paint6_linear_41260_3746" x1="132.273" y1="34.4297" x2="141.315" y2="37.1223" gradientUnits="userSpaceOnUse">
<stop stop-color="#F4EAD8"/>
<stop offset="1" stop-color="#E0B764"/>
</linearGradient>
<linearGradient id="paint7_linear_41260_3746" x1="138.796" y1="39.6641" x2="147.24" y2="43.0231" gradientUnits="userSpaceOnUse">
<stop stop-color="#F4EAD8"/>
<stop offset="1" stop-color="#E0B764"/>
</linearGradient>
<linearGradient id="paint8_linear_41260_3746" x1="144.503" y1="39.3789" x2="156.917" y2="55.0867" gradientUnits="userSpaceOnUse">
<stop stop-color="#F4EAD8"/>
<stop offset="1" stop-color="#E0B764"/>
</linearGradient>
<linearGradient id="paint9_linear_41260_3746" x1="160.017" y1="39.3828" x2="172.053" y2="55.3659" gradientUnits="userSpaceOnUse">
<stop stop-color="#F4EAD8"/>
<stop offset="1" stop-color="#E0B764"/>
</linearGradient>
<linearGradient id="paint10_linear_41260_3746" x1="138.939" y1="34.457" x2="141.665" y2="38.6211" gradientUnits="userSpaceOnUse">
<stop stop-color="#F4EAD8"/>
<stop offset="1" stop-color="#E0B764"/>
</linearGradient>
<linearGradient id="paint11_linear_41260_3746" x1="141.704" y1="61.2031" x2="144.43" y2="65.3672" gradientUnits="userSpaceOnUse">
<stop stop-color="#F4EAD8"/>
<stop offset="1" stop-color="#E0B764"/>
</linearGradient>
<linearGradient id="paint12_linear_41260_3746" x1="98.2529" y1="61.3008" x2="114.585" y2="80.3783" gradientUnits="userSpaceOnUse">
<stop stop-color="#F4EAD8"/>
<stop offset="1" stop-color="#E0B764"/>
</linearGradient>
<linearGradient id="paint13_linear_41260_3746" x1="115.107" y1="66.3711" x2="127.521" y2="78.1716" gradientUnits="userSpaceOnUse">
<stop stop-color="#F4EAD8"/>
<stop offset="1" stop-color="#E0B764"/>
</linearGradient>
<linearGradient id="paint14_linear_41260_3746" x1="124.782" y1="66.2539" x2="136.574" y2="83.8711" gradientUnits="userSpaceOnUse">
<stop stop-color="#F4EAD8"/>
<stop offset="1" stop-color="#E0B764"/>
</linearGradient>
<linearGradient id="paint15_linear_41260_3746" x1="138.281" y1="66.5391" x2="152.424" y2="74.1366" gradientUnits="userSpaceOnUse">
<stop stop-color="#F4EAD8"/>
<stop offset="1" stop-color="#E0B764"/>
</linearGradient>
<linearGradient id="paint16_linear_41260_3746" x1="147.176" y1="66.2539" x2="159.072" y2="83.4997" gradientUnits="userSpaceOnUse">
<stop stop-color="#F4EAD8"/>
<stop offset="1" stop-color="#E0B764"/>
</linearGradient>
<linearGradient id="paint17_linear_41260_3746" x1="162.796" y1="66.2539" x2="174.764" y2="83.3883" gradientUnits="userSpaceOnUse">
<stop stop-color="#F4EAD8"/>
<stop offset="1" stop-color="#E0B764"/>
</linearGradient>
<linearGradient id="paint18_linear_41260_3746" x1="178.718" y1="62.043" x2="193.326" y2="71.295" gradientUnits="userSpaceOnUse">
<stop stop-color="#F4EAD8"/>
<stop offset="1" stop-color="#E0B764"/>
</linearGradient>
</defs>
</svg>
