<svg width="434" height="370" viewBox="0 0 434 370" fill="none" xmlns="http://www.w3.org/2000/svg">
<path d="M298.914 25.3926H300.08V32.9746H304.439V34H298.914V25.3926ZM307.943 33.3203C308.643 33.3203 309.121 33.0566 309.379 32.5293C309.641 31.998 309.771 31.4082 309.771 30.7598C309.771 30.1738 309.678 29.6973 309.49 29.3301C309.193 28.752 308.682 28.4629 307.955 28.4629C307.311 28.4629 306.842 28.709 306.549 29.2012C306.256 29.6934 306.109 30.2871 306.109 30.9824C306.109 31.6504 306.256 32.207 306.549 32.6523C306.842 33.0977 307.307 33.3203 307.943 33.3203ZM307.984 27.543C308.793 27.543 309.477 27.8125 310.035 28.3516C310.594 28.8906 310.873 29.6836 310.873 30.7305C310.873 31.7422 310.627 32.5781 310.135 33.2383C309.643 33.8984 308.879 34.2285 307.844 34.2285C306.98 34.2285 306.295 33.9375 305.787 33.3555C305.279 32.7695 305.025 31.9844 305.025 31C305.025 29.9453 305.293 29.1055 305.828 28.4805C306.363 27.8555 307.082 27.543 307.984 27.543ZM312.162 27.7246H313.164V28.8086C313.246 28.5977 313.447 28.3418 313.768 28.041C314.088 27.7363 314.457 27.584 314.875 27.584C314.895 27.584 314.928 27.5859 314.975 27.5898C315.021 27.5938 315.102 27.6016 315.215 27.6133V28.7266C315.152 28.7148 315.094 28.707 315.039 28.7031C314.988 28.6992 314.932 28.6973 314.869 28.6973C314.338 28.6973 313.93 28.8691 313.645 29.2129C313.359 29.5527 313.217 29.9453 313.217 30.3906V34H312.162V27.7246ZM318.742 27.584C319.188 27.584 319.619 27.6895 320.037 27.9004C320.455 28.1074 320.773 28.377 320.992 28.709C321.203 29.0254 321.344 29.3945 321.414 29.8164C321.477 30.1055 321.508 30.5664 321.508 31.1992H316.908C316.928 31.8359 317.078 32.3477 317.359 32.7344C317.641 33.1172 318.076 33.3086 318.666 33.3086C319.217 33.3086 319.656 33.127 319.984 32.7637C320.172 32.5527 320.305 32.3086 320.383 32.0312H321.42C321.393 32.2617 321.301 32.5195 321.145 32.8047C320.992 33.0859 320.82 33.3164 320.629 33.4961C320.309 33.8086 319.912 34.0195 319.439 34.1289C319.186 34.1914 318.898 34.2227 318.578 34.2227C317.797 34.2227 317.135 33.9395 316.592 33.373C316.049 32.8027 315.777 32.0059 315.777 30.9824C315.777 29.9746 316.051 29.1562 316.598 28.5273C317.145 27.8984 317.859 27.584 318.742 27.584ZM320.424 30.3613C320.381 29.9043 320.281 29.5391 320.125 29.2656C319.836 28.7578 319.354 28.5039 318.678 28.5039C318.193 28.5039 317.787 28.6797 317.459 29.0312C317.131 29.3789 316.957 29.8223 316.938 30.3613H320.424ZM322.809 27.7246H323.852V28.6152C324.102 28.3066 324.328 28.082 324.531 27.9414C324.879 27.7031 325.273 27.584 325.715 27.584C326.215 27.584 326.617 27.707 326.922 27.9531C327.094 28.0938 327.25 28.3008 327.391 28.5742C327.625 28.2383 327.9 27.9902 328.217 27.8301C328.533 27.666 328.889 27.584 329.283 27.584C330.127 27.584 330.701 27.8887 331.006 28.498C331.17 28.8262 331.252 29.2676 331.252 29.8223V34H330.156V29.6406C330.156 29.2227 330.051 28.9355 329.84 28.7793C329.633 28.623 329.379 28.5449 329.078 28.5449C328.664 28.5449 328.307 28.6836 328.006 28.9609C327.709 29.2383 327.561 29.7012 327.561 30.3496V34H326.488V29.9043C326.488 29.4785 326.438 29.168 326.336 28.9727C326.176 28.6797 325.877 28.5332 325.439 28.5332C325.041 28.5332 324.678 28.6875 324.35 28.9961C324.025 29.3047 323.863 29.8633 323.863 30.6719V34H322.809V27.7246ZM336.549 25.3926H337.727V34H336.549V25.3926ZM342.133 33.291C342.625 33.291 343.033 33.0859 343.357 32.6758C343.686 32.2617 343.85 31.6445 343.85 30.8242C343.85 30.3242 343.777 29.8945 343.633 29.5352C343.359 28.8438 342.859 28.498 342.133 28.498C341.402 28.498 340.902 28.8633 340.633 29.5938C340.488 29.9844 340.416 30.4805 340.416 31.082C340.416 31.5664 340.488 31.9785 340.633 32.3184C340.906 32.9668 341.406 33.291 342.133 33.291ZM339.402 27.7539H340.428V28.5859C340.639 28.3008 340.869 28.0801 341.119 27.9238C341.475 27.6895 341.893 27.5723 342.373 27.5723C343.084 27.5723 343.688 27.8457 344.184 28.3926C344.68 28.9355 344.928 29.7129 344.928 30.7246C344.928 32.0918 344.57 33.0684 343.855 33.6543C343.402 34.0254 342.875 34.2109 342.273 34.2109C341.801 34.2109 341.404 34.1074 341.084 33.9004C340.896 33.7832 340.688 33.582 340.457 33.2969V36.502H339.402V27.7539ZM346.791 32.0312C346.822 32.3828 346.91 32.6523 347.055 32.8398C347.32 33.1797 347.781 33.3496 348.438 33.3496C348.828 33.3496 349.172 33.2656 349.469 33.0977C349.766 32.9258 349.914 32.6621 349.914 32.3066C349.914 32.0371 349.795 31.832 349.557 31.6914C349.404 31.6055 349.104 31.5059 348.654 31.3926L347.816 31.1816C347.281 31.0488 346.887 30.9004 346.633 30.7363C346.18 30.4512 345.953 30.0566 345.953 29.5527C345.953 28.959 346.166 28.4785 346.592 28.1113C347.021 27.7441 347.598 27.5605 348.32 27.5605C349.266 27.5605 349.947 27.8379 350.365 28.3926C350.627 28.7441 350.754 29.123 350.746 29.5293H349.75C349.73 29.291 349.646 29.0742 349.498 28.8789C349.256 28.6016 348.836 28.4629 348.238 28.4629C347.84 28.4629 347.537 28.5391 347.33 28.6914C347.127 28.8438 347.025 29.0449 347.025 29.2949C347.025 29.5684 347.16 29.7871 347.43 29.9512C347.586 30.0488 347.816 30.1348 348.121 30.209L348.818 30.3789C349.576 30.5625 350.084 30.7402 350.342 30.9121C350.752 31.1816 350.957 31.6055 350.957 32.1836C350.957 32.7422 350.744 33.2246 350.318 33.6309C349.896 34.0371 349.252 34.2402 348.385 34.2402C347.451 34.2402 346.789 34.0293 346.398 33.6074C346.012 33.1816 345.805 32.6562 345.777 32.0312H346.791ZM353.219 27.7246V31.8906C353.219 32.2109 353.27 32.4727 353.371 32.6758C353.559 33.0508 353.908 33.2383 354.42 33.2383C355.154 33.2383 355.654 32.9102 355.92 32.2539C356.064 31.9023 356.137 31.4199 356.137 30.8066V27.7246H357.191V34H356.195L356.207 33.0742C356.07 33.3125 355.9 33.5137 355.697 33.6777C355.295 34.0059 354.807 34.1699 354.232 34.1699C353.338 34.1699 352.729 33.8711 352.404 33.2734C352.229 32.9531 352.141 32.5254 352.141 31.9902V27.7246H353.219ZM358.844 27.7246H359.887V28.6152C360.137 28.3066 360.363 28.082 360.566 27.9414C360.914 27.7031 361.309 27.584 361.75 27.584C362.25 27.584 362.652 27.707 362.957 27.9531C363.129 28.0938 363.285 28.3008 363.426 28.5742C363.66 28.2383 363.936 27.9902 364.252 27.8301C364.568 27.666 364.924 27.584 365.318 27.584C366.162 27.584 366.736 27.8887 367.041 28.498C367.205 28.8262 367.287 29.2676 367.287 29.8223V34H366.191V29.6406C366.191 29.2227 366.086 28.9355 365.875 28.7793C365.668 28.623 365.414 28.5449 365.113 28.5449C364.699 28.5449 364.342 28.6836 364.041 28.9609C363.744 29.2383 363.596 29.7012 363.596 30.3496V34H362.523V29.9043C362.523 29.4785 362.473 29.168 362.371 28.9727C362.211 28.6797 361.912 28.5332 361.475 28.5332C361.076 28.5332 360.713 28.6875 360.385 28.9961C360.061 29.3047 359.898 29.8633 359.898 30.6719V34H358.844V27.7246ZM376.082 30.4727L374.775 26.6699L373.387 30.4727H376.082ZM374.166 25.3926H375.484L378.607 34H377.33L376.457 31.4219H373.053L372.121 34H370.926L374.166 25.3926ZM379.527 27.7246H380.57V28.6152C380.82 28.3066 381.047 28.082 381.25 27.9414C381.598 27.7031 381.992 27.584 382.434 27.584C382.934 27.584 383.336 27.707 383.641 27.9531C383.812 28.0938 383.969 28.3008 384.109 28.5742C384.344 28.2383 384.619 27.9902 384.936 27.8301C385.252 27.666 385.607 27.584 386.002 27.584C386.846 27.584 387.42 27.8887 387.725 28.498C387.889 28.8262 387.971 29.2676 387.971 29.8223V34H386.875V29.6406C386.875 29.2227 386.77 28.9355 386.559 28.7793C386.352 28.623 386.098 28.5449 385.797 28.5449C385.383 28.5449 385.025 28.6836 384.725 28.9609C384.428 29.2383 384.279 29.7012 384.279 30.3496V34H383.207V29.9043C383.207 29.4785 383.156 29.168 383.055 28.9727C382.895 28.6797 382.596 28.5332 382.158 28.5332C381.76 28.5332 381.396 28.6875 381.068 28.9961C380.744 29.3047 380.582 29.8633 380.582 30.6719V34H379.527V27.7246ZM392.137 27.584C392.582 27.584 393.014 27.6895 393.432 27.9004C393.85 28.1074 394.168 28.377 394.387 28.709C394.598 29.0254 394.738 29.3945 394.809 29.8164C394.871 30.1055 394.902 30.5664 394.902 31.1992H390.303C390.322 31.8359 390.473 32.3477 390.754 32.7344C391.035 33.1172 391.471 33.3086 392.061 33.3086C392.611 33.3086 393.051 33.127 393.379 32.7637C393.566 32.5527 393.699 32.3086 393.777 32.0312H394.814C394.787 32.2617 394.695 32.5195 394.539 32.8047C394.387 33.0859 394.215 33.3164 394.023 33.4961C393.703 33.8086 393.307 34.0195 392.834 34.1289C392.58 34.1914 392.293 34.2227 391.973 34.2227C391.191 34.2227 390.529 33.9395 389.986 33.373C389.443 32.8027 389.172 32.0059 389.172 30.9824C389.172 29.9746 389.445 29.1562 389.992 28.5273C390.539 27.8984 391.254 27.584 392.137 27.584ZM393.818 30.3613C393.775 29.9043 393.676 29.5391 393.52 29.2656C393.23 28.7578 392.748 28.5039 392.072 28.5039C391.588 28.5039 391.182 28.6797 390.854 29.0312C390.525 29.3789 390.352 29.8223 390.332 30.3613H393.818ZM396.414 25.9727H397.48V27.7246H398.482V28.5859H397.48V32.6816C397.48 32.9004 397.555 33.0469 397.703 33.1211C397.785 33.1641 397.922 33.1855 398.113 33.1855C398.164 33.1855 398.219 33.1855 398.277 33.1855C398.336 33.1816 398.404 33.1758 398.482 33.168V34C398.361 34.0352 398.234 34.0605 398.102 34.0762C397.973 34.0918 397.832 34.0996 397.68 34.0996C397.188 34.0996 396.854 33.9746 396.678 33.7246C396.502 33.4707 396.414 33.1426 396.414 32.7402V28.5859H395.564V27.7246H396.414V25.9727ZM403.785 31.2227C403.812 31.7109 403.928 32.1074 404.131 32.4121C404.518 32.9824 405.199 33.2676 406.176 33.2676C406.613 33.2676 407.012 33.2051 407.371 33.0801C408.066 32.8379 408.414 32.4043 408.414 31.7793C408.414 31.3105 408.268 30.9766 407.975 30.7773C407.678 30.582 407.213 30.4121 406.58 30.2676L405.414 30.0039C404.652 29.832 404.113 29.6426 403.797 29.4355C403.25 29.0762 402.977 28.5391 402.977 27.8242C402.977 27.0508 403.244 26.416 403.779 25.9199C404.314 25.4238 405.072 25.1758 406.053 25.1758C406.955 25.1758 407.721 25.3945 408.35 25.832C408.982 26.2656 409.299 26.9609 409.299 27.918H408.203C408.145 27.457 408.02 27.1035 407.828 26.8574C407.473 26.4082 406.869 26.1836 406.018 26.1836C405.33 26.1836 404.836 26.3281 404.535 26.6172C404.234 26.9062 404.084 27.2422 404.084 27.625C404.084 28.0469 404.26 28.3555 404.611 28.5508C404.842 28.6758 405.363 28.832 406.176 29.0195L407.383 29.2949C407.965 29.4277 408.414 29.6094 408.73 29.8398C409.277 30.2422 409.551 30.8262 409.551 31.5918C409.551 32.5449 409.203 33.2266 408.508 33.6367C407.816 34.0469 407.012 34.252 406.094 34.252C405.023 34.252 404.186 33.9785 403.58 33.4316C402.975 32.8887 402.678 32.1523 402.689 31.2227H403.785ZM410.887 27.7539H411.959V34H410.887V27.7539ZM410.887 25.3926H411.959V26.5879H410.887V25.3926ZM413.77 25.9727H414.836V27.7246H415.838V28.5859H414.836V32.6816C414.836 32.9004 414.91 33.0469 415.059 33.1211C415.141 33.1641 415.277 33.1855 415.469 33.1855C415.52 33.1855 415.574 33.1855 415.633 33.1855C415.691 33.1816 415.76 33.1758 415.838 33.168V34C415.717 34.0352 415.59 34.0605 415.457 34.0762C415.328 34.0918 415.188 34.0996 415.035 34.0996C414.543 34.0996 414.209 33.9746 414.033 33.7246C413.857 33.4707 413.77 33.1426 413.77 32.7402V28.5859H412.92V27.7246H413.77V25.9727ZM299.594 44.3926L302.066 51.7227L304.51 44.3926H305.816L302.676 53H301.439L298.305 44.3926H299.594ZM308.734 46.584C309.18 46.584 309.611 46.6895 310.029 46.9004C310.447 47.1074 310.766 47.377 310.984 47.709C311.195 48.0254 311.336 48.3945 311.406 48.8164C311.469 49.1055 311.5 49.5664 311.5 50.1992H306.9C306.92 50.8359 307.07 51.3477 307.352 51.7344C307.633 52.1172 308.068 52.3086 308.658 52.3086C309.209 52.3086 309.648 52.127 309.977 51.7637C310.164 51.5527 310.297 51.3086 310.375 51.0312H311.412C311.385 51.2617 311.293 51.5195 311.137 51.8047C310.984 52.0859 310.812 52.3164 310.621 52.4961C310.301 52.8086 309.904 53.0195 309.432 53.1289C309.178 53.1914 308.891 53.2227 308.57 53.2227C307.789 53.2227 307.127 52.9395 306.584 52.373C306.041 51.8027 305.77 51.0059 305.77 49.9824C305.77 48.9746 306.043 48.1562 306.59 47.5273C307.137 46.8984 307.852 46.584 308.734 46.584ZM310.416 49.3613C310.373 48.9043 310.273 48.5391 310.117 48.2656C309.828 47.7578 309.346 47.5039 308.67 47.5039C308.186 47.5039 307.779 47.6797 307.451 48.0312C307.123 48.3789 306.949 48.8223 306.93 49.3613H310.416ZM312.83 44.3926H313.885V53H312.83V44.3926ZM315.988 46.7246L317.664 51.834L319.416 46.7246H320.57L318.203 53H317.078L314.764 46.7246H315.988ZM324.086 46.584C324.531 46.584 324.963 46.6895 325.381 46.9004C325.799 47.1074 326.117 47.377 326.336 47.709C326.547 48.0254 326.688 48.3945 326.758 48.8164C326.82 49.1055 326.852 49.5664 326.852 50.1992H322.252C322.271 50.8359 322.422 51.3477 322.703 51.7344C322.984 52.1172 323.42 52.3086 324.01 52.3086C324.561 52.3086 325 52.127 325.328 51.7637C325.516 51.5527 325.648 51.3086 325.727 51.0312H326.764C326.736 51.2617 326.645 51.5195 326.488 51.8047C326.336 52.0859 326.164 52.3164 325.973 52.4961C325.652 52.8086 325.256 53.0195 324.783 53.1289C324.529 53.1914 324.242 53.2227 323.922 53.2227C323.141 53.2227 322.479 52.9395 321.936 52.373C321.393 51.8027 321.121 51.0059 321.121 49.9824C321.121 48.9746 321.395 48.1562 321.941 47.5273C322.488 46.8984 323.203 46.584 324.086 46.584ZM325.768 49.3613C325.725 48.9043 325.625 48.5391 325.469 48.2656C325.18 47.7578 324.697 47.5039 324.021 47.5039C323.537 47.5039 323.131 47.6797 322.803 48.0312C322.475 48.3789 322.301 48.8223 322.281 49.3613H325.768ZM328.363 44.9727H329.43V46.7246H330.432V47.5859H329.43V51.6816C329.43 51.9004 329.504 52.0469 329.652 52.1211C329.734 52.1641 329.871 52.1855 330.062 52.1855C330.113 52.1855 330.168 52.1855 330.227 52.1855C330.285 52.1816 330.354 52.1758 330.432 52.168V53C330.311 53.0352 330.184 53.0605 330.051 53.0762C329.922 53.0918 329.781 53.0996 329.629 53.0996C329.137 53.0996 328.803 52.9746 328.627 52.7246C328.451 52.4707 328.363 52.1426 328.363 51.7402V47.5859H327.514V46.7246H328.363V44.9727ZM335.002 44.3926H336.18V47.9492H340.656V44.3926H341.834V53H340.656V48.9746H336.18V53H335.002V44.3926ZM344.172 49.9355C344.172 50.6074 344.314 51.1699 344.6 51.623C344.885 52.0762 345.342 52.3027 345.971 52.3027C346.459 52.3027 346.859 52.0938 347.172 51.6758C347.488 51.2539 347.646 50.6504 347.646 49.8652C347.646 49.0723 347.484 48.4863 347.16 48.1074C346.836 47.7246 346.436 47.5332 345.959 47.5332C345.428 47.5332 344.996 47.7363 344.664 48.1426C344.336 48.5488 344.172 49.1465 344.172 49.9355ZM345.76 46.6133C346.24 46.6133 346.643 46.7148 346.967 46.918C347.154 47.0352 347.367 47.2402 347.605 47.5332V44.3633H348.619V53H347.67V52.127C347.424 52.5137 347.133 52.793 346.797 52.9648C346.461 53.1367 346.076 53.2227 345.643 53.2227C344.943 53.2227 344.338 52.9297 343.826 52.3438C343.314 51.7539 343.059 50.9707 343.059 49.9941C343.059 49.0801 343.291 48.2891 343.756 47.6211C344.225 46.9492 344.893 46.6133 345.76 46.6133ZM350.447 45.7695C350.463 45.332 350.539 45.0117 350.676 44.8086C350.922 44.4492 351.396 44.2695 352.1 44.2695C352.166 44.2695 352.234 44.2715 352.305 44.2754C352.375 44.2793 352.455 44.2852 352.545 44.293V45.2539C352.436 45.2461 352.355 45.2422 352.305 45.2422C352.258 45.2383 352.213 45.2363 352.17 45.2363C351.85 45.2363 351.658 45.3203 351.596 45.4883C351.533 45.6523 351.502 46.0742 351.502 46.7539H352.545V47.5859H351.49V53H350.447V47.5859H349.574V46.7539H350.447V45.7695ZM354.15 51.0312C354.182 51.3828 354.27 51.6523 354.414 51.8398C354.68 52.1797 355.141 52.3496 355.797 52.3496C356.188 52.3496 356.531 52.2656 356.828 52.0977C357.125 51.9258 357.273 51.6621 357.273 51.3066C357.273 51.0371 357.154 50.832 356.916 50.6914C356.764 50.6055 356.463 50.5059 356.014 50.3926L355.176 50.1816C354.641 50.0488 354.246 49.9004 353.992 49.7363C353.539 49.4512 353.312 49.0566 353.312 48.5527C353.312 47.959 353.525 47.4785 353.951 47.1113C354.381 46.7441 354.957 46.5605 355.68 46.5605C356.625 46.5605 357.307 46.8379 357.725 47.3926C357.986 47.7441 358.113 48.123 358.105 48.5293H357.109C357.09 48.291 357.006 48.0742 356.857 47.8789C356.615 47.6016 356.195 47.4629 355.598 47.4629C355.199 47.4629 354.896 47.5391 354.689 47.6914C354.486 47.8438 354.385 48.0449 354.385 48.2949C354.385 48.5684 354.52 48.7871 354.789 48.9512C354.945 49.0488 355.176 49.1348 355.48 49.209L356.178 49.3789C356.936 49.5625 357.443 49.7402 357.701 49.9121C358.111 50.1816 358.316 50.6055 358.316 51.1836C358.316 51.7422 358.104 52.2246 357.678 52.6309C357.256 53.0371 356.611 53.2402 355.744 53.2402C354.811 53.2402 354.148 53.0293 353.758 52.6074C353.371 52.1816 353.164 51.6562 353.137 51.0312H354.15ZM360.039 46.7246L361.715 51.834L363.467 46.7246H364.621L362.254 53H361.129L358.814 46.7246H360.039ZM366.578 46.7246V50.8906C366.578 51.2109 366.629 51.4727 366.73 51.6758C366.918 52.0508 367.268 52.2383 367.779 52.2383C368.514 52.2383 369.014 51.9102 369.279 51.2539C369.424 50.9023 369.496 50.4199 369.496 49.8066V46.7246H370.551V53H369.555L369.566 52.0742C369.43 52.3125 369.26 52.5137 369.057 52.6777C368.654 53.0059 368.166 53.1699 367.592 53.1699C366.697 53.1699 366.088 52.8711 365.764 52.2734C365.588 51.9531 365.5 51.5254 365.5 50.9902V46.7246H366.578ZM373.258 45.6113H372.203V44.3926H373.258V45.6113ZM371.207 54.5879C371.68 54.5723 371.963 54.5293 372.057 54.459C372.154 54.3926 372.203 54.1797 372.203 53.8203V46.7539H373.258V53.9316C373.258 54.3887 373.184 54.7305 373.035 54.957C372.789 55.3398 372.322 55.5312 371.635 55.5312C371.584 55.5312 371.529 55.5293 371.471 55.5254C371.416 55.5215 371.328 55.5137 371.207 55.502V54.5879ZM375.127 51.7227H376.352V53H375.127V51.7227Z" fill="#1A1A1A"/>
<path d="M0.914062 337.393H2.08008V344.975H6.43945V346H0.914062V337.393ZM9.94336 345.32C10.6426 345.32 11.1211 345.057 11.3789 344.529C11.6406 343.998 11.7715 343.408 11.7715 342.76C11.7715 342.174 11.6777 341.697 11.4902 341.33C11.1934 340.752 10.6816 340.463 9.95508 340.463C9.31055 340.463 8.8418 340.709 8.54883 341.201C8.25586 341.693 8.10938 342.287 8.10938 342.982C8.10938 343.65 8.25586 344.207 8.54883 344.652C8.8418 345.098 9.30664 345.32 9.94336 345.32ZM9.98438 339.543C10.793 339.543 11.4766 339.812 12.0352 340.352C12.5938 340.891 12.873 341.684 12.873 342.73C12.873 343.742 12.627 344.578 12.1348 345.238C11.6426 345.898 10.8789 346.229 9.84375 346.229C8.98047 346.229 8.29492 345.938 7.78711 345.355C7.2793 344.77 7.02539 343.984 7.02539 343C7.02539 341.945 7.29297 341.105 7.82812 340.48C8.36328 339.855 9.08203 339.543 9.98438 339.543ZM14.1621 339.725H15.1641V340.809C15.2461 340.598 15.4473 340.342 15.7676 340.041C16.0879 339.736 16.457 339.584 16.875 339.584C16.8945 339.584 16.9277 339.586 16.9746 339.59C17.0215 339.594 17.1016 339.602 17.2148 339.613V340.727C17.1523 340.715 17.0938 340.707 17.0391 340.703C16.9883 340.699 16.9316 340.697 16.8691 340.697C16.3379 340.697 15.9297 340.869 15.6445 341.213C15.3594 341.553 15.2168 341.945 15.2168 342.391V346H14.1621V339.725ZM20.7422 339.584C21.1875 339.584 21.6191 339.689 22.0371 339.9C22.4551 340.107 22.7734 340.377 22.9922 340.709C23.2031 341.025 23.3438 341.395 23.4141 341.816C23.4766 342.105 23.5078 342.566 23.5078 343.199H18.9082C18.9277 343.836 19.0781 344.348 19.3594 344.734C19.6406 345.117 20.0762 345.309 20.666 345.309C21.2168 345.309 21.6562 345.127 21.9844 344.764C22.1719 344.553 22.3047 344.309 22.3828 344.031H23.4199C23.3926 344.262 23.3008 344.52 23.1445 344.805C22.9922 345.086 22.8203 345.316 22.6289 345.496C22.3086 345.809 21.9121 346.02 21.4395 346.129C21.1855 346.191 20.8984 346.223 20.5781 346.223C19.7969 346.223 19.1348 345.939 18.5918 345.373C18.0488 344.803 17.7773 344.006 17.7773 342.982C17.7773 341.975 18.0508 341.156 18.5977 340.527C19.1445 339.898 19.8594 339.584 20.7422 339.584ZM22.4238 342.361C22.3809 341.904 22.2812 341.539 22.125 341.266C21.8359 340.758 21.3535 340.504 20.6777 340.504C20.1934 340.504 19.7871 340.68 19.459 341.031C19.1309 341.379 18.957 341.822 18.9375 342.361H22.4238ZM24.8086 339.725H25.8516V340.615C26.1016 340.307 26.3281 340.082 26.5312 339.941C26.8789 339.703 27.2734 339.584 27.7148 339.584C28.2148 339.584 28.6172 339.707 28.9219 339.953C29.0938 340.094 29.25 340.301 29.3906 340.574C29.625 340.238 29.9004 339.99 30.2168 339.83C30.5332 339.666 30.8887 339.584 31.2832 339.584C32.127 339.584 32.7012 339.889 33.0059 340.498C33.1699 340.826 33.252 341.268 33.252 341.822V346H32.1562V341.641C32.1562 341.223 32.0508 340.936 31.8398 340.779C31.6328 340.623 31.3789 340.545 31.0781 340.545C30.6641 340.545 30.3066 340.684 30.0059 340.961C29.709 341.238 29.5605 341.701 29.5605 342.35V346H28.4883V341.904C28.4883 341.479 28.4375 341.168 28.3359 340.973C28.1758 340.68 27.877 340.533 27.4395 340.533C27.041 340.533 26.6777 340.688 26.3496 340.996C26.0254 341.305 25.8633 341.863 25.8633 342.672V346H24.8086V339.725ZM38.5488 337.393H39.7266V346H38.5488V337.393ZM44.1328 345.291C44.625 345.291 45.0332 345.086 45.3574 344.676C45.6855 344.262 45.8496 343.645 45.8496 342.824C45.8496 342.324 45.7773 341.895 45.6328 341.535C45.3594 340.844 44.8594 340.498 44.1328 340.498C43.4023 340.498 42.9023 340.863 42.6328 341.594C42.4883 341.984 42.416 342.48 42.416 343.082C42.416 343.566 42.4883 343.979 42.6328 344.318C42.9062 344.967 43.4062 345.291 44.1328 345.291ZM41.4023 339.754H42.4277V340.586C42.6387 340.301 42.8691 340.08 43.1191 339.924C43.4746 339.689 43.8926 339.572 44.373 339.572C45.084 339.572 45.6875 339.846 46.1836 340.393C46.6797 340.936 46.9277 341.713 46.9277 342.725C46.9277 344.092 46.5703 345.068 45.8555 345.654C45.4023 346.025 44.875 346.211 44.2734 346.211C43.8008 346.211 43.4043 346.107 43.084 345.9C42.8965 345.783 42.6875 345.582 42.457 345.297V348.502H41.4023V339.754ZM48.791 344.031C48.8223 344.383 48.9102 344.652 49.0547 344.84C49.3203 345.18 49.7812 345.35 50.4375 345.35C50.8281 345.35 51.1719 345.266 51.4688 345.098C51.7656 344.926 51.9141 344.662 51.9141 344.307C51.9141 344.037 51.7949 343.832 51.5566 343.691C51.4043 343.605 51.1035 343.506 50.6543 343.393L49.8164 343.182C49.2812 343.049 48.8867 342.9 48.6328 342.736C48.1797 342.451 47.9531 342.057 47.9531 341.553C47.9531 340.959 48.166 340.479 48.5918 340.111C49.0215 339.744 49.5977 339.561 50.3203 339.561C51.2656 339.561 51.9473 339.838 52.3652 340.393C52.627 340.744 52.7539 341.123 52.7461 341.529H51.75C51.7305 341.291 51.6465 341.074 51.498 340.879C51.2559 340.602 50.8359 340.463 50.2383 340.463C49.8398 340.463 49.5371 340.539 49.3301 340.691C49.127 340.844 49.0254 341.045 49.0254 341.295C49.0254 341.568 49.1602 341.787 49.4297 341.951C49.5859 342.049 49.8164 342.135 50.1211 342.209L50.8184 342.379C51.5762 342.562 52.084 342.74 52.3418 342.912C52.752 343.182 52.957 343.605 52.957 344.184C52.957 344.742 52.7441 345.225 52.3184 345.631C51.8965 346.037 51.252 346.24 50.3848 346.24C49.4512 346.24 48.7891 346.029 48.3984 345.607C48.0117 345.182 47.8047 344.656 47.7773 344.031H48.791ZM55.2188 339.725V343.891C55.2188 344.211 55.2695 344.473 55.3711 344.676C55.5586 345.051 55.9082 345.238 56.4199 345.238C57.1543 345.238 57.6543 344.91 57.9199 344.254C58.0645 343.902 58.1367 343.42 58.1367 342.807V339.725H59.1914V346H58.1953L58.207 345.074C58.0703 345.312 57.9004 345.514 57.6973 345.678C57.2949 346.006 56.8066 346.17 56.2324 346.17C55.3379 346.17 54.7285 345.871 54.4043 345.273C54.2285 344.953 54.1406 344.525 54.1406 343.99V339.725H55.2188ZM60.8438 339.725H61.8867V340.615C62.1367 340.307 62.3633 340.082 62.5664 339.941C62.9141 339.703 63.3086 339.584 63.75 339.584C64.25 339.584 64.6523 339.707 64.957 339.953C65.1289 340.094 65.2852 340.301 65.4258 340.574C65.6602 340.238 65.9355 339.99 66.252 339.83C66.5684 339.666 66.9238 339.584 67.3184 339.584C68.1621 339.584 68.7363 339.889 69.041 340.498C69.2051 340.826 69.2871 341.268 69.2871 341.822V346H68.1914V341.641C68.1914 341.223 68.0859 340.936 67.875 340.779C67.668 340.623 67.4141 340.545 67.1133 340.545C66.6992 340.545 66.3418 340.684 66.041 340.961C65.7441 341.238 65.5957 341.701 65.5957 342.35V346H64.5234V341.904C64.5234 341.479 64.4727 341.168 64.3711 340.973C64.2109 340.68 63.9121 340.533 63.4746 340.533C63.0762 340.533 62.7129 340.688 62.3848 340.996C62.0605 341.305 61.8984 341.863 61.8984 342.672V346H60.8438V339.725ZM78.082 342.473L76.7754 338.67L75.3867 342.473H78.082ZM76.166 337.393H77.4844L80.6074 346H79.3301L78.457 343.422H75.0527L74.1211 346H72.9258L76.166 337.393ZM81.5273 339.725H82.5703V340.615C82.8203 340.307 83.0469 340.082 83.25 339.941C83.5977 339.703 83.9922 339.584 84.4336 339.584C84.9336 339.584 85.3359 339.707 85.6406 339.953C85.8125 340.094 85.9688 340.301 86.1094 340.574C86.3438 340.238 86.6191 339.99 86.9355 339.83C87.252 339.666 87.6074 339.584 88.002 339.584C88.8457 339.584 89.4199 339.889 89.7246 340.498C89.8887 340.826 89.9707 341.268 89.9707 341.822V346H88.875V341.641C88.875 341.223 88.7695 340.936 88.5586 340.779C88.3516 340.623 88.0977 340.545 87.7969 340.545C87.3828 340.545 87.0254 340.684 86.7246 340.961C86.4277 341.238 86.2793 341.701 86.2793 342.35V346H85.207V341.904C85.207 341.479 85.1562 341.168 85.0547 340.973C84.8945 340.68 84.5957 340.533 84.1582 340.533C83.7598 340.533 83.3965 340.688 83.0684 340.996C82.7441 341.305 82.582 341.863 82.582 342.672V346H81.5273V339.725ZM94.1367 339.584C94.582 339.584 95.0137 339.689 95.4316 339.9C95.8496 340.107 96.168 340.377 96.3867 340.709C96.5977 341.025 96.7383 341.395 96.8086 341.816C96.8711 342.105 96.9023 342.566 96.9023 343.199H92.3027C92.3223 343.836 92.4727 344.348 92.7539 344.734C93.0352 345.117 93.4707 345.309 94.0605 345.309C94.6113 345.309 95.0508 345.127 95.3789 344.764C95.5664 344.553 95.6992 344.309 95.7773 344.031H96.8145C96.7871 344.262 96.6953 344.52 96.5391 344.805C96.3867 345.086 96.2148 345.316 96.0234 345.496C95.7031 345.809 95.3066 346.02 94.834 346.129C94.5801 346.191 94.293 346.223 93.9727 346.223C93.1914 346.223 92.5293 345.939 91.9863 345.373C91.4434 344.803 91.1719 344.006 91.1719 342.982C91.1719 341.975 91.4453 341.156 91.9922 340.527C92.5391 339.898 93.2539 339.584 94.1367 339.584ZM95.8184 342.361C95.7754 341.904 95.6758 341.539 95.5195 341.266C95.2305 340.758 94.748 340.504 94.0723 340.504C93.5879 340.504 93.1816 340.68 92.8535 341.031C92.5254 341.379 92.3516 341.822 92.332 342.361H95.8184ZM98.4141 337.973H99.4805V339.725H100.482V340.586H99.4805V344.682C99.4805 344.9 99.5547 345.047 99.7031 345.121C99.7852 345.164 99.9219 345.186 100.113 345.186C100.164 345.186 100.219 345.186 100.277 345.186C100.336 345.182 100.404 345.176 100.482 345.168V346C100.361 346.035 100.234 346.061 100.102 346.076C99.9727 346.092 99.832 346.1 99.6797 346.1C99.1875 346.1 98.8535 345.975 98.6777 345.725C98.502 345.471 98.4141 345.143 98.4141 344.74V340.586H97.5645V339.725H98.4141V337.973ZM105.785 343.223C105.812 343.711 105.928 344.107 106.131 344.412C106.518 344.982 107.199 345.268 108.176 345.268C108.613 345.268 109.012 345.205 109.371 345.08C110.066 344.838 110.414 344.404 110.414 343.779C110.414 343.311 110.268 342.977 109.975 342.777C109.678 342.582 109.213 342.412 108.58 342.268L107.414 342.004C106.652 341.832 106.113 341.643 105.797 341.436C105.25 341.076 104.977 340.539 104.977 339.824C104.977 339.051 105.244 338.416 105.779 337.92C106.314 337.424 107.072 337.176 108.053 337.176C108.955 337.176 109.721 337.395 110.35 337.832C110.982 338.266 111.299 338.961 111.299 339.918H110.203C110.145 339.457 110.02 339.104 109.828 338.857C109.473 338.408 108.869 338.184 108.018 338.184C107.33 338.184 106.836 338.328 106.535 338.617C106.234 338.906 106.084 339.242 106.084 339.625C106.084 340.047 106.26 340.355 106.611 340.551C106.842 340.676 107.363 340.832 108.176 341.02L109.383 341.295C109.965 341.428 110.414 341.609 110.73 341.84C111.277 342.242 111.551 342.826 111.551 343.592C111.551 344.545 111.203 345.227 110.508 345.637C109.816 346.047 109.012 346.252 108.094 346.252C107.023 346.252 106.186 345.979 105.58 345.432C104.975 344.889 104.678 344.152 104.689 343.223H105.785ZM112.887 339.754H113.959V346H112.887V339.754ZM112.887 337.393H113.959V338.588H112.887V337.393ZM115.77 337.973H116.836V339.725H117.838V340.586H116.836V344.682C116.836 344.9 116.91 345.047 117.059 345.121C117.141 345.164 117.277 345.186 117.469 345.186C117.52 345.186 117.574 345.186 117.633 345.186C117.691 345.182 117.76 345.176 117.838 345.168V346C117.717 346.035 117.59 346.061 117.457 346.076C117.328 346.092 117.188 346.1 117.035 346.1C116.543 346.1 116.209 345.975 116.033 345.725C115.857 345.471 115.77 345.143 115.77 344.74V340.586H114.92V339.725H115.77V337.973ZM1.59375 356.393L4.06641 363.723L6.50977 356.393H7.81641L4.67578 365H3.43945L0.304688 356.393H1.59375ZM10.7344 358.584C11.1797 358.584 11.6113 358.689 12.0293 358.9C12.4473 359.107 12.7656 359.377 12.9844 359.709C13.1953 360.025 13.3359 360.395 13.4062 360.816C13.4688 361.105 13.5 361.566 13.5 362.199H8.90039C8.91992 362.836 9.07031 363.348 9.35156 363.734C9.63281 364.117 10.0684 364.309 10.6582 364.309C11.209 364.309 11.6484 364.127 11.9766 363.764C12.1641 363.553 12.2969 363.309 12.375 363.031H13.4121C13.3848 363.262 13.293 363.52 13.1367 363.805C12.9844 364.086 12.8125 364.316 12.6211 364.496C12.3008 364.809 11.9043 365.02 11.4316 365.129C11.1777 365.191 10.8906 365.223 10.5703 365.223C9.78906 365.223 9.12695 364.939 8.58398 364.373C8.04102 363.803 7.76953 363.006 7.76953 361.982C7.76953 360.975 8.04297 360.156 8.58984 359.527C9.13672 358.898 9.85156 358.584 10.7344 358.584ZM12.416 361.361C12.373 360.904 12.2734 360.539 12.1172 360.266C11.8281 359.758 11.3457 359.504 10.6699 359.504C10.1855 359.504 9.7793 359.68 9.45117 360.031C9.12305 360.379 8.94922 360.822 8.92969 361.361H12.416ZM14.8301 356.393H15.8848V365H14.8301V356.393ZM17.9883 358.725L19.6641 363.834L21.416 358.725H22.5703L20.2031 365H19.0781L16.7637 358.725H17.9883ZM26.0859 358.584C26.5312 358.584 26.9629 358.689 27.3809 358.9C27.7988 359.107 28.1172 359.377 28.3359 359.709C28.5469 360.025 28.6875 360.395 28.7578 360.816C28.8203 361.105 28.8516 361.566 28.8516 362.199H24.252C24.2715 362.836 24.4219 363.348 24.7031 363.734C24.9844 364.117 25.4199 364.309 26.0098 364.309C26.5605 364.309 27 364.127 27.3281 363.764C27.5156 363.553 27.6484 363.309 27.7266 363.031H28.7637C28.7363 363.262 28.6445 363.52 28.4883 363.805C28.3359 364.086 28.1641 364.316 27.9727 364.496C27.6523 364.809 27.2559 365.02 26.7832 365.129C26.5293 365.191 26.2422 365.223 25.9219 365.223C25.1406 365.223 24.4785 364.939 23.9355 364.373C23.3926 363.803 23.1211 363.006 23.1211 361.982C23.1211 360.975 23.3945 360.156 23.9414 359.527C24.4883 358.898 25.2031 358.584 26.0859 358.584ZM27.7676 361.361C27.7246 360.904 27.625 360.539 27.4688 360.266C27.1797 359.758 26.6973 359.504 26.0215 359.504C25.5371 359.504 25.1309 359.68 24.8027 360.031C24.4746 360.379 24.3008 360.822 24.2812 361.361H27.7676ZM30.3633 356.973H31.4297V358.725H32.4316V359.586H31.4297V363.682C31.4297 363.9 31.5039 364.047 31.6523 364.121C31.7344 364.164 31.8711 364.186 32.0625 364.186C32.1133 364.186 32.168 364.186 32.2266 364.186C32.2852 364.182 32.3535 364.176 32.4316 364.168V365C32.3105 365.035 32.1836 365.061 32.0508 365.076C31.9219 365.092 31.7812 365.1 31.6289 365.1C31.1367 365.1 30.8027 364.975 30.627 364.725C30.4512 364.471 30.3633 364.143 30.3633 363.74V359.586H29.5137V358.725H30.3633V356.973ZM37.002 356.393H38.1797V359.949H42.6562V356.393H43.834V365H42.6562V360.975H38.1797V365H37.002V356.393ZM46.1719 361.936C46.1719 362.607 46.3145 363.17 46.5996 363.623C46.8848 364.076 47.3418 364.303 47.9707 364.303C48.459 364.303 48.8594 364.094 49.1719 363.676C49.4883 363.254 49.6465 362.65 49.6465 361.865C49.6465 361.072 49.4844 360.486 49.1602 360.107C48.8359 359.725 48.4355 359.533 47.959 359.533C47.4277 359.533 46.9961 359.736 46.6641 360.143C46.3359 360.549 46.1719 361.146 46.1719 361.936ZM47.7598 358.613C48.2402 358.613 48.6426 358.715 48.9668 358.918C49.1543 359.035 49.3672 359.24 49.6055 359.533V356.363H50.6191V365H49.6699V364.127C49.4238 364.514 49.1328 364.793 48.7969 364.965C48.4609 365.137 48.0762 365.223 47.6426 365.223C46.9434 365.223 46.3379 364.93 45.8262 364.344C45.3145 363.754 45.0586 362.971 45.0586 361.994C45.0586 361.08 45.291 360.289 45.7559 359.621C46.2246 358.949 46.8926 358.613 47.7598 358.613ZM52.4473 357.77C52.4629 357.332 52.5391 357.012 52.6758 356.809C52.9219 356.449 53.3965 356.27 54.0996 356.27C54.166 356.27 54.2344 356.271 54.3047 356.275C54.375 356.279 54.4551 356.285 54.5449 356.293V357.254C54.4355 357.246 54.3555 357.242 54.3047 357.242C54.2578 357.238 54.2129 357.236 54.1699 357.236C53.8496 357.236 53.6582 357.32 53.5957 357.488C53.5332 357.652 53.502 358.074 53.502 358.754H54.5449V359.586H53.4902V365H52.4473V359.586H51.5742V358.754H52.4473V357.77ZM56.1504 363.031C56.1816 363.383 56.2695 363.652 56.4141 363.84C56.6797 364.18 57.1406 364.35 57.7969 364.35C58.1875 364.35 58.5312 364.266 58.8281 364.098C59.125 363.926 59.2734 363.662 59.2734 363.307C59.2734 363.037 59.1543 362.832 58.916 362.691C58.7637 362.605 58.4629 362.506 58.0137 362.393L57.1758 362.182C56.6406 362.049 56.2461 361.9 55.9922 361.736C55.5391 361.451 55.3125 361.057 55.3125 360.553C55.3125 359.959 55.5254 359.479 55.9512 359.111C56.3809 358.744 56.957 358.561 57.6797 358.561C58.625 358.561 59.3066 358.838 59.7246 359.393C59.9863 359.744 60.1133 360.123 60.1055 360.529H59.1094C59.0898 360.291 59.0059 360.074 58.8574 359.879C58.6152 359.602 58.1953 359.463 57.5977 359.463C57.1992 359.463 56.8965 359.539 56.6895 359.691C56.4863 359.844 56.3848 360.045 56.3848 360.295C56.3848 360.568 56.5195 360.787 56.7891 360.951C56.9453 361.049 57.1758 361.135 57.4805 361.209L58.1777 361.379C58.9355 361.562 59.4434 361.74 59.7012 361.912C60.1113 362.182 60.3164 362.605 60.3164 363.184C60.3164 363.742 60.1035 364.225 59.6777 364.631C59.2559 365.037 58.6113 365.24 57.7441 365.24C56.8105 365.24 56.1484 365.029 55.7578 364.607C55.3711 364.182 55.1641 363.656 55.1367 363.031H56.1504ZM62.0391 358.725L63.7148 363.834L65.4668 358.725H66.6211L64.2539 365H63.1289L60.8145 358.725H62.0391ZM68.5781 358.725V362.891C68.5781 363.211 68.6289 363.473 68.7305 363.676C68.918 364.051 69.2676 364.238 69.7793 364.238C70.5137 364.238 71.0137 363.91 71.2793 363.254C71.4238 362.902 71.4961 362.42 71.4961 361.807V358.725H72.5508V365H71.5547L71.5664 364.074C71.4297 364.312 71.2598 364.514 71.0566 364.678C70.6543 365.006 70.166 365.17 69.5918 365.17C68.6973 365.17 68.0879 364.871 67.7637 364.273C67.5879 363.953 67.5 363.525 67.5 362.99V358.725H68.5781ZM75.2578 357.611H74.2031V356.393H75.2578V357.611ZM73.207 366.588C73.6797 366.572 73.9629 366.529 74.0566 366.459C74.1543 366.393 74.2031 366.18 74.2031 365.82V358.754H75.2578V365.932C75.2578 366.389 75.1836 366.73 75.0352 366.957C74.7891 367.34 74.3223 367.531 73.6348 367.531C73.584 367.531 73.5293 367.529 73.4707 367.525C73.416 367.521 73.3281 367.514 73.207 367.502V366.588ZM77.127 363.723H78.3516V365H77.127V363.723Z" fill="#1A1A1A"/>
<circle cx="185.781" cy="163.664" r="132.367" fill="#C6B18B"/>
<g filter="url(#filter0_d_43101_2446)">
<path d="M186.222 13C186.222 11.8954 185.326 10.9986 184.222 11.0131C154.813 11.3995 126.13 20.2983 101.652 36.6541C76.6193 53.3805 57.1086 77.1543 45.5872 104.969C34.0659 132.784 31.0514 163.391 36.9249 192.919C42.7984 222.448 57.2962 249.571 78.5849 270.86C99.8735 292.148 126.997 306.646 156.525 312.52C186.053 318.393 216.66 315.379 244.475 303.857C272.29 292.336 296.064 272.825 312.79 247.792C329.146 223.314 338.045 194.631 338.431 165.223C338.446 164.118 337.549 163.222 336.445 163.222H188.222C187.118 163.222 186.222 162.327 186.222 161.222L186.222 13Z" fill="url(#paint0_linear_43101_2446)"/>
</g>
<path d="M144.463 207.916C144.463 208.709 144.59 209.365 144.845 209.885C145.319 210.842 146.181 211.32 147.429 211.32C148.195 211.32 148.86 211.061 149.425 210.541C150 210.012 150.287 209.256 150.287 208.271C150.287 206.968 149.758 206.098 148.701 205.66C148.099 205.414 147.151 205.291 145.857 205.291V202.502C147.124 202.484 148.008 202.361 148.509 202.133C149.375 201.75 149.808 200.975 149.808 199.809C149.808 199.052 149.585 198.437 149.138 197.963C148.701 197.489 148.081 197.252 147.279 197.252C146.358 197.252 145.679 197.544 145.242 198.127C144.813 198.71 144.608 199.49 144.627 200.465H140.99C141.026 199.48 141.195 198.546 141.496 197.662C141.815 196.887 142.316 196.172 143 195.516C143.51 195.051 144.116 194.695 144.818 194.449C145.52 194.203 146.381 194.08 147.402 194.08C149.298 194.08 150.824 194.572 151.982 195.557C153.149 196.532 153.732 197.844 153.732 199.494C153.732 200.661 153.386 201.645 152.693 202.447C152.255 202.949 151.8 203.29 151.326 203.473C151.681 203.473 152.192 203.778 152.857 204.389C153.851 205.309 154.347 206.567 154.347 208.162C154.347 209.839 153.764 211.316 152.597 212.592C151.44 213.859 149.722 214.492 147.443 214.492C144.636 214.492 142.685 213.576 141.591 211.744C141.017 210.769 140.698 209.493 140.634 207.916H144.463ZM160.267 208.244C160.267 209.219 160.518 209.976 161.019 210.514C161.53 211.051 162.231 211.32 163.125 211.32C164.018 211.32 164.715 211.051 165.216 210.514C165.727 209.976 165.982 209.219 165.982 208.244C165.982 207.232 165.722 206.467 165.203 205.947C164.692 205.419 164 205.154 163.125 205.154C162.25 205.154 161.552 205.419 161.033 205.947C160.522 206.467 160.267 207.232 160.267 208.244ZM156.22 208.504C156.22 207.392 156.471 206.385 156.972 205.482C157.483 204.58 158.226 203.901 159.201 203.445C158.244 202.807 157.619 202.119 157.328 201.381C157.045 200.633 156.904 199.936 156.904 199.289C156.904 197.849 157.446 196.623 158.531 195.611C159.616 194.59 161.147 194.08 163.125 194.08C165.102 194.08 166.634 194.59 167.718 195.611C168.803 196.623 169.345 197.849 169.345 199.289C169.345 199.936 169.199 200.633 168.908 201.381C168.625 202.119 168.005 202.762 167.048 203.309C168.024 203.855 168.757 204.58 169.25 205.482C169.742 206.385 169.988 207.392 169.988 208.504C169.988 210.172 169.368 211.594 168.129 212.77C166.898 213.936 165.175 214.52 162.961 214.52C160.746 214.52 159.069 213.936 157.929 212.77C156.79 211.594 156.22 210.172 156.22 208.504ZM160.623 199.727C160.623 200.447 160.841 201.035 161.279 201.49C161.726 201.946 162.341 202.174 163.125 202.174C163.918 202.174 164.528 201.946 164.957 201.49C165.394 201.035 165.613 200.447 165.613 199.727C165.613 198.943 165.394 198.332 164.957 197.895C164.528 197.448 163.918 197.225 163.125 197.225C162.341 197.225 161.726 197.448 161.279 197.895C160.841 198.332 160.623 198.943 160.623 199.727ZM175.853 207.725C175.853 208.791 176.14 209.661 176.714 210.336C177.289 211.01 178.018 211.348 178.902 211.348C179.768 211.348 180.447 211.024 180.939 210.377C181.44 209.721 181.691 208.873 181.691 207.834C181.691 206.676 181.408 205.792 180.843 205.182C180.278 204.562 179.586 204.252 178.765 204.252C178.1 204.252 177.512 204.452 177.002 204.854C176.236 205.446 175.853 206.403 175.853 207.725ZM181.336 199.166C181.336 198.847 181.213 198.496 180.966 198.113C180.547 197.493 179.914 197.184 179.066 197.184C177.799 197.184 176.897 197.895 176.359 199.316C176.067 200.1 175.867 201.258 175.757 202.789C176.241 202.215 176.801 201.796 177.439 201.531C178.077 201.267 178.806 201.135 179.627 201.135C181.386 201.135 182.826 201.732 183.947 202.926C185.077 204.12 185.642 205.646 185.642 207.506C185.642 209.356 185.091 210.988 183.988 212.4C182.885 213.813 181.172 214.52 178.847 214.52C176.35 214.52 174.509 213.476 173.324 211.389C172.403 209.757 171.943 207.652 171.943 205.072C171.943 203.559 172.007 202.329 172.134 201.381C172.362 199.695 172.804 198.291 173.461 197.17C174.026 196.213 174.764 195.443 175.675 194.859C176.596 194.276 177.694 193.984 178.97 193.984C180.811 193.984 182.279 194.458 183.373 195.406C184.466 196.345 185.082 197.598 185.218 199.166H181.336ZM101.072 228.227C102.15 228.227 103.082 228.435 103.869 228.852C105.009 229.451 105.707 230.5 105.963 232H104.423C104.236 231.161 103.848 230.552 103.259 230.172C102.671 229.786 101.929 229.594 101.033 229.594C99.9703 229.594 99.0745 229.992 98.3453 230.789C97.6214 231.586 97.2594 232.773 97.2594 234.352C97.2594 235.716 97.5589 236.828 98.1578 237.688C98.7568 238.542 99.7334 238.969 101.088 238.969C102.124 238.969 102.981 238.669 103.658 238.07C104.34 237.466 104.689 236.492 104.705 235.148H101.111V233.859H106.15V240H105.15L104.775 238.523C104.249 239.102 103.783 239.503 103.377 239.727C102.694 240.112 101.827 240.305 100.775 240.305C99.4156 240.305 98.2464 239.865 97.2672 238.984C96.1995 237.88 95.6656 236.365 95.6656 234.438C95.6656 232.516 96.1865 230.987 97.2281 229.852C98.2177 228.768 99.499 228.227 101.072 228.227ZM108.416 231.633H109.752V233.078C109.861 232.797 110.129 232.456 110.556 232.055C110.983 231.648 111.476 231.445 112.033 231.445C112.059 231.445 112.103 231.448 112.166 231.453C112.228 231.458 112.335 231.469 112.486 231.484V232.969C112.403 232.953 112.324 232.943 112.252 232.938C112.184 232.932 112.108 232.93 112.025 232.93C111.317 232.93 110.772 233.159 110.392 233.617C110.012 234.07 109.822 234.594 109.822 235.188V240H108.416V231.633ZM114.783 237.773C114.783 238.18 114.931 238.5 115.228 238.734C115.525 238.969 115.877 239.086 116.283 239.086C116.778 239.086 117.257 238.971 117.72 238.742C118.502 238.362 118.892 237.74 118.892 236.875V235.742C118.72 235.852 118.499 235.943 118.228 236.016C117.957 236.089 117.692 236.141 117.431 236.172L116.58 236.281C116.069 236.349 115.686 236.456 115.431 236.602C114.999 236.846 114.783 237.237 114.783 237.773ZM118.189 234.93C118.512 234.888 118.728 234.753 118.838 234.523C118.9 234.398 118.931 234.219 118.931 233.984C118.931 233.505 118.759 233.159 118.416 232.945C118.077 232.727 117.59 232.617 116.955 232.617C116.22 232.617 115.699 232.815 115.392 233.211C115.22 233.43 115.108 233.755 115.056 234.188H113.744C113.77 233.156 114.103 232.44 114.744 232.039C115.39 231.633 116.137 231.43 116.986 231.43C117.97 231.43 118.77 231.617 119.384 231.992C119.994 232.367 120.298 232.951 120.298 233.742V238.562C120.298 238.708 120.327 238.826 120.384 238.914C120.447 239.003 120.574 239.047 120.767 239.047C120.83 239.047 120.9 239.044 120.978 239.039C121.056 239.029 121.14 239.016 121.228 239V240.039C121.009 240.102 120.843 240.141 120.728 240.156C120.614 240.172 120.457 240.18 120.259 240.18C119.775 240.18 119.423 240.008 119.205 239.664C119.09 239.482 119.009 239.224 118.963 238.891C118.676 239.266 118.265 239.591 117.728 239.867C117.192 240.143 116.601 240.281 115.955 240.281C115.179 240.281 114.543 240.047 114.048 239.578C113.559 239.104 113.314 238.513 113.314 237.805C113.314 237.029 113.556 236.427 114.041 236C114.525 235.573 115.16 235.31 115.947 235.211L118.189 234.93ZM122.611 231.633H123.947V232.82C124.343 232.331 124.762 231.979 125.205 231.766C125.647 231.552 126.14 231.445 126.681 231.445C127.869 231.445 128.671 231.859 129.088 232.688C129.317 233.141 129.431 233.789 129.431 234.633V240H128.002V234.727C128.002 234.216 127.926 233.805 127.775 233.492C127.525 232.971 127.072 232.711 126.416 232.711C126.082 232.711 125.809 232.745 125.595 232.812C125.21 232.927 124.871 233.156 124.58 233.5C124.345 233.776 124.192 234.062 124.119 234.359C124.051 234.651 124.017 235.07 124.017 235.617V240H122.611V231.633ZM131.798 229.297H133.22V231.633H134.556V232.781H133.22V238.242C133.22 238.534 133.319 238.729 133.517 238.828C133.627 238.885 133.809 238.914 134.064 238.914C134.132 238.914 134.205 238.914 134.283 238.914C134.361 238.909 134.452 238.901 134.556 238.891V240C134.395 240.047 134.226 240.081 134.048 240.102C133.877 240.122 133.689 240.133 133.486 240.133C132.83 240.133 132.384 239.966 132.15 239.633C131.916 239.294 131.798 238.857 131.798 238.32V232.781H130.666V231.633H131.798V229.297ZM136.806 237.375C136.848 237.844 136.965 238.203 137.158 238.453C137.512 238.906 138.127 239.133 139.002 239.133C139.522 239.133 139.981 239.021 140.377 238.797C140.772 238.568 140.97 238.216 140.97 237.742C140.97 237.383 140.811 237.109 140.494 236.922C140.291 236.807 139.89 236.674 139.291 236.523L138.173 236.242C137.46 236.065 136.934 235.867 136.595 235.648C135.991 235.268 135.689 234.742 135.689 234.07C135.689 233.279 135.973 232.638 136.541 232.148C137.114 231.659 137.882 231.414 138.845 231.414C140.106 231.414 141.015 231.784 141.572 232.523C141.921 232.992 142.09 233.497 142.08 234.039H140.752C140.726 233.721 140.614 233.432 140.416 233.172C140.093 232.802 139.533 232.617 138.736 232.617C138.205 232.617 137.801 232.719 137.525 232.922C137.254 233.125 137.119 233.393 137.119 233.727C137.119 234.091 137.298 234.383 137.658 234.602C137.866 234.732 138.173 234.846 138.58 234.945L139.509 235.172C140.52 235.417 141.197 235.654 141.541 235.883C142.088 236.242 142.361 236.807 142.361 237.578C142.361 238.323 142.077 238.966 141.509 239.508C140.947 240.049 140.088 240.32 138.931 240.32C137.686 240.32 136.804 240.039 136.283 239.477C135.767 238.909 135.491 238.208 135.455 237.375H136.806ZM153.572 228.227C154.65 228.227 155.582 228.435 156.369 228.852C157.509 229.451 158.207 230.5 158.463 232H156.923C156.736 231.161 156.348 230.552 155.759 230.172C155.171 229.786 154.429 229.594 153.533 229.594C152.47 229.594 151.574 229.992 150.845 230.789C150.121 231.586 149.759 232.773 149.759 234.352C149.759 235.716 150.059 236.828 150.658 237.688C151.257 238.542 152.233 238.969 153.588 238.969C154.624 238.969 155.481 238.669 156.158 238.07C156.84 237.466 157.189 236.492 157.205 235.148H153.611V233.859H158.65V240H157.65L157.275 238.523C156.749 239.102 156.283 239.503 155.877 239.727C155.194 240.112 154.327 240.305 153.275 240.305C151.916 240.305 150.746 239.865 149.767 238.984C148.699 237.88 148.166 236.365 148.166 234.438C148.166 232.516 148.686 230.987 149.728 229.852C150.718 228.768 151.999 228.227 153.572 228.227ZM160.877 231.672H162.306V240H160.877V231.672ZM160.877 228.523H162.306V230.117H160.877V228.523ZM165.127 231.633L167.361 238.445L169.697 231.633H171.236L168.08 240H166.58L163.494 231.633H165.127ZM175.923 231.445C176.517 231.445 177.093 231.586 177.65 231.867C178.207 232.143 178.632 232.503 178.923 232.945C179.205 233.367 179.392 233.859 179.486 234.422C179.569 234.807 179.611 235.422 179.611 236.266H173.478C173.504 237.115 173.705 237.797 174.08 238.312C174.455 238.823 175.035 239.078 175.822 239.078C176.556 239.078 177.142 238.836 177.58 238.352C177.83 238.07 178.007 237.745 178.111 237.375H179.494C179.457 237.682 179.335 238.026 179.127 238.406C178.923 238.781 178.694 239.089 178.439 239.328C178.012 239.745 177.483 240.026 176.853 240.172C176.515 240.255 176.132 240.297 175.705 240.297C174.663 240.297 173.78 239.919 173.056 239.164C172.332 238.404 171.97 237.341 171.97 235.977C171.97 234.633 172.335 233.542 173.064 232.703C173.793 231.865 174.746 231.445 175.923 231.445ZM178.166 235.148C178.108 234.539 177.976 234.052 177.767 233.688C177.382 233.01 176.739 232.672 175.838 232.672C175.192 232.672 174.65 232.906 174.213 233.375C173.775 233.839 173.543 234.43 173.517 235.148H178.166ZM181.345 231.633H182.681V232.82C183.077 232.331 183.496 231.979 183.939 231.766C184.382 231.552 184.874 231.445 185.416 231.445C186.603 231.445 187.405 231.859 187.822 232.688C188.051 233.141 188.166 233.789 188.166 234.633V240H186.736V234.727C186.736 234.216 186.66 233.805 186.509 233.492C186.259 232.971 185.806 232.711 185.15 232.711C184.817 232.711 184.543 232.745 184.33 232.812C183.944 232.927 183.606 233.156 183.314 233.5C183.08 233.776 182.926 234.062 182.853 234.359C182.785 234.651 182.752 235.07 182.752 235.617V240H181.345V231.633ZM199.908 235.297L198.166 230.227L196.314 235.297H199.908ZM197.353 228.523H199.111L203.275 240H201.572L200.408 236.562H195.869L194.627 240H193.033L197.353 228.523ZM204.869 231.633L206.478 238.227L208.111 231.633H209.689L211.33 238.188L213.041 231.633H214.447L212.017 240H210.556L208.853 233.523L207.205 240H205.744L203.33 231.633H204.869ZM216.861 237.773C216.861 238.18 217.009 238.5 217.306 238.734C217.603 238.969 217.955 239.086 218.361 239.086C218.856 239.086 219.335 238.971 219.798 238.742C220.58 238.362 220.97 237.74 220.97 236.875V235.742C220.798 235.852 220.577 235.943 220.306 236.016C220.035 236.089 219.77 236.141 219.509 236.172L218.658 236.281C218.147 236.349 217.765 236.456 217.509 236.602C217.077 236.846 216.861 237.237 216.861 237.773ZM220.267 234.93C220.59 234.888 220.806 234.753 220.916 234.523C220.978 234.398 221.009 234.219 221.009 233.984C221.009 233.505 220.838 233.159 220.494 232.945C220.155 232.727 219.668 232.617 219.033 232.617C218.298 232.617 217.778 232.815 217.47 233.211C217.298 233.43 217.186 233.755 217.134 234.188H215.822C215.848 233.156 216.181 232.44 216.822 232.039C217.468 231.633 218.215 231.43 219.064 231.43C220.048 231.43 220.848 231.617 221.463 231.992C222.072 232.367 222.377 232.951 222.377 233.742V238.562C222.377 238.708 222.405 238.826 222.463 238.914C222.525 239.003 222.653 239.047 222.845 239.047C222.908 239.047 222.978 239.044 223.056 239.039C223.134 239.029 223.218 239.016 223.306 239V240.039C223.088 240.102 222.921 240.141 222.806 240.156C222.692 240.172 222.535 240.18 222.338 240.18C221.853 240.18 221.502 240.008 221.283 239.664C221.168 239.482 221.088 239.224 221.041 238.891C220.754 239.266 220.343 239.591 219.806 239.867C219.27 240.143 218.679 240.281 218.033 240.281C217.257 240.281 216.621 240.047 216.127 239.578C215.637 239.104 215.392 238.513 215.392 237.805C215.392 237.029 215.634 236.427 216.119 236C216.603 235.573 217.239 235.31 218.025 235.211L220.267 234.93ZM229.916 231.633H231.47C231.272 232.169 230.832 233.393 230.15 235.305C229.64 236.742 229.213 237.914 228.869 238.82C228.056 240.956 227.483 242.258 227.15 242.727C226.817 243.195 226.244 243.43 225.431 243.43C225.233 243.43 225.08 243.422 224.97 243.406C224.866 243.391 224.736 243.362 224.58 243.32V242.039C224.825 242.107 225.002 242.148 225.111 242.164C225.22 242.18 225.317 242.188 225.4 242.188C225.66 242.188 225.851 242.143 225.97 242.055C226.095 241.971 226.2 241.867 226.283 241.742C226.309 241.701 226.403 241.487 226.564 241.102C226.726 240.716 226.843 240.43 226.916 240.242L223.822 231.633H225.416L227.658 238.445L229.916 231.633Z" fill="#FCF9F6"/>
<path d="M217.781 96.3281V93.6758C219.011 93.6211 219.872 93.5391 220.365 93.4297C221.149 93.2565 221.787 92.9102 222.279 92.3906C222.616 92.0352 222.871 91.5612 223.044 90.9688C223.145 90.6133 223.195 90.349 223.195 90.1758H226.435V110H222.443V96.3281H217.781ZM231.835 96.3281V93.6758C233.066 93.6211 233.927 93.5391 234.419 93.4297C235.203 93.2565 235.841 92.9102 236.333 92.3906C236.671 92.0352 236.926 91.5612 237.099 90.9688C237.199 90.6133 237.249 90.349 237.249 90.1758H240.49V110H236.497V96.3281H231.835ZM260.122 105.734H257.88V110H254.066V105.734H246.218V102.33L253.505 90.2988H257.88V102.686H260.122V105.734ZM254.066 102.686V94.127L249.103 102.686H254.066ZM205.023 124.227C206.101 124.227 207.033 124.435 207.82 124.852C208.96 125.451 209.658 126.5 209.914 128H208.374C208.187 127.161 207.799 126.552 207.21 126.172C206.622 125.786 205.88 125.594 204.984 125.594C203.921 125.594 203.025 125.992 202.296 126.789C201.572 127.586 201.21 128.773 201.21 130.352C201.21 131.716 201.51 132.828 202.109 133.688C202.708 134.542 203.684 134.969 205.039 134.969C206.075 134.969 206.932 134.669 207.609 134.07C208.291 133.466 208.64 132.492 208.656 131.148H205.062V129.859H210.101V136H209.101L208.726 134.523C208.2 135.102 207.734 135.503 207.328 135.727C206.645 136.112 205.778 136.305 204.726 136.305C203.367 136.305 202.197 135.865 201.218 134.984C200.15 133.88 199.617 132.365 199.617 130.438C199.617 128.516 200.137 126.987 201.179 125.852C202.169 124.768 203.45 124.227 205.023 124.227ZM212.367 127.633H213.703V129.078C213.812 128.797 214.08 128.456 214.507 128.055C214.934 127.648 215.427 127.445 215.984 127.445C216.01 127.445 216.054 127.448 216.117 127.453C216.179 127.458 216.286 127.469 216.437 127.484V128.969C216.354 128.953 216.275 128.943 216.203 128.938C216.135 128.932 216.059 128.93 215.976 128.93C215.268 128.93 214.723 129.159 214.343 129.617C213.963 130.07 213.773 130.594 213.773 131.188V136H212.367V127.633ZM218.734 133.773C218.734 134.18 218.882 134.5 219.179 134.734C219.476 134.969 219.828 135.086 220.234 135.086C220.729 135.086 221.208 134.971 221.671 134.742C222.453 134.362 222.843 133.74 222.843 132.875V131.742C222.671 131.852 222.45 131.943 222.179 132.016C221.908 132.089 221.643 132.141 221.382 132.172L220.531 132.281C220.02 132.349 219.637 132.456 219.382 132.602C218.95 132.846 218.734 133.237 218.734 133.773ZM222.14 130.93C222.463 130.888 222.679 130.753 222.789 130.523C222.851 130.398 222.882 130.219 222.882 129.984C222.882 129.505 222.71 129.159 222.367 128.945C222.028 128.727 221.541 128.617 220.906 128.617C220.171 128.617 219.65 128.815 219.343 129.211C219.171 129.43 219.059 129.755 219.007 130.188H217.695C217.721 129.156 218.054 128.44 218.695 128.039C219.341 127.633 220.088 127.43 220.937 127.43C221.921 127.43 222.721 127.617 223.335 127.992C223.945 128.367 224.249 128.951 224.249 129.742V134.562C224.249 134.708 224.278 134.826 224.335 134.914C224.398 135.003 224.525 135.047 224.718 135.047C224.781 135.047 224.851 135.044 224.929 135.039C225.007 135.029 225.091 135.016 225.179 135V136.039C224.96 136.102 224.794 136.141 224.679 136.156C224.565 136.172 224.408 136.18 224.21 136.18C223.726 136.18 223.374 136.008 223.156 135.664C223.041 135.482 222.96 135.224 222.914 134.891C222.627 135.266 222.216 135.591 221.679 135.867C221.143 136.143 220.552 136.281 219.906 136.281C219.13 136.281 218.494 136.047 217.999 135.578C217.51 135.104 217.265 134.513 217.265 133.805C217.265 133.029 217.507 132.427 217.992 132C218.476 131.573 219.111 131.31 219.898 131.211L222.14 130.93ZM226.562 127.633H227.898V128.82C228.294 128.331 228.713 127.979 229.156 127.766C229.598 127.552 230.091 127.445 230.632 127.445C231.82 127.445 232.622 127.859 233.039 128.688C233.268 129.141 233.382 129.789 233.382 130.633V136H231.953V130.727C231.953 130.216 231.877 129.805 231.726 129.492C231.476 128.971 231.023 128.711 230.367 128.711C230.033 128.711 229.76 128.745 229.546 128.812C229.161 128.927 228.822 129.156 228.531 129.5C228.296 129.776 228.143 130.062 228.07 130.359C228.002 130.651 227.968 131.07 227.968 131.617V136H226.562V127.633ZM235.749 125.297H237.171V127.633H238.507V128.781H237.171V134.242C237.171 134.534 237.27 134.729 237.468 134.828C237.578 134.885 237.76 134.914 238.015 134.914C238.083 134.914 238.156 134.914 238.234 134.914C238.312 134.909 238.403 134.901 238.507 134.891V136C238.346 136.047 238.177 136.081 237.999 136.102C237.828 136.122 237.64 136.133 237.437 136.133C236.781 136.133 236.335 135.966 236.101 135.633C235.867 135.294 235.749 134.857 235.749 134.32V128.781H234.617V127.633H235.749V125.297ZM240.757 133.375C240.799 133.844 240.916 134.203 241.109 134.453C241.463 134.906 242.078 135.133 242.953 135.133C243.473 135.133 243.932 135.021 244.328 134.797C244.723 134.568 244.921 134.216 244.921 133.742C244.921 133.383 244.762 133.109 244.445 132.922C244.242 132.807 243.841 132.674 243.242 132.523L242.124 132.242C241.411 132.065 240.885 131.867 240.546 131.648C239.942 131.268 239.64 130.742 239.64 130.07C239.64 129.279 239.924 128.638 240.492 128.148C241.065 127.659 241.833 127.414 242.796 127.414C244.057 127.414 244.966 127.784 245.523 128.523C245.872 128.992 246.041 129.497 246.031 130.039H244.703C244.677 129.721 244.565 129.432 244.367 129.172C244.044 128.802 243.484 128.617 242.687 128.617C242.156 128.617 241.752 128.719 241.476 128.922C241.205 129.125 241.07 129.393 241.07 129.727C241.07 130.091 241.249 130.383 241.609 130.602C241.817 130.732 242.124 130.846 242.531 130.945L243.46 131.172C244.471 131.417 245.148 131.654 245.492 131.883C246.039 132.242 246.312 132.807 246.312 133.578C246.312 134.323 246.028 134.966 245.46 135.508C244.898 136.049 244.039 136.32 242.882 136.32C241.637 136.32 240.755 136.039 240.234 135.477C239.718 134.909 239.442 134.208 239.406 133.375H240.757ZM252.562 124.523H254.117V134.633H259.929V136H252.562V124.523ZM264.765 127.445C265.359 127.445 265.934 127.586 266.492 127.867C267.049 128.143 267.473 128.503 267.765 128.945C268.046 129.367 268.234 129.859 268.328 130.422C268.411 130.807 268.453 131.422 268.453 132.266H262.32C262.346 133.115 262.546 133.797 262.921 134.312C263.296 134.823 263.877 135.078 264.664 135.078C265.398 135.078 265.984 134.836 266.421 134.352C266.671 134.07 266.848 133.745 266.953 133.375H268.335C268.299 133.682 268.177 134.026 267.968 134.406C267.765 134.781 267.536 135.089 267.281 135.328C266.854 135.745 266.325 136.026 265.695 136.172C265.356 136.255 264.973 136.297 264.546 136.297C263.505 136.297 262.622 135.919 261.898 135.164C261.174 134.404 260.812 133.341 260.812 131.977C260.812 130.633 261.177 129.542 261.906 128.703C262.635 127.865 263.588 127.445 264.765 127.445ZM267.007 131.148C266.95 130.539 266.817 130.052 266.609 129.688C266.223 129.01 265.58 128.672 264.679 128.672C264.033 128.672 263.492 128.906 263.054 129.375C262.617 129.839 262.385 130.43 262.359 131.148H267.007ZM270.538 126.359C270.559 125.776 270.661 125.349 270.843 125.078C271.171 124.599 271.804 124.359 272.742 124.359C272.83 124.359 272.921 124.362 273.015 124.367C273.109 124.372 273.216 124.38 273.335 124.391V125.672C273.19 125.661 273.083 125.656 273.015 125.656C272.953 125.651 272.893 125.648 272.835 125.648C272.408 125.648 272.153 125.76 272.07 125.984C271.986 126.203 271.945 126.766 271.945 127.672H273.335V128.781H271.929V136H270.538V128.781H269.374V127.672H270.538V126.359ZM274.921 125.297H276.343V127.633H277.679V128.781H276.343V134.242C276.343 134.534 276.442 134.729 276.64 134.828C276.749 134.885 276.932 134.914 277.187 134.914C277.255 134.914 277.328 134.914 277.406 134.914C277.484 134.909 277.575 134.901 277.679 134.891V136C277.518 136.047 277.348 136.081 277.171 136.102C276.999 136.122 276.812 136.133 276.609 136.133C275.953 136.133 275.507 135.966 275.273 135.633C275.038 135.294 274.921 134.857 274.921 134.32V128.781H273.788V127.633H274.921V125.297Z" fill="#FCF9F6"/>
<path d="M147.416 327.5V328H147.671L147.82 327.794L147.416 327.5ZM118.333 327.5C118.333 328.973 119.527 330.167 121 330.167C122.473 330.167 123.667 328.973 123.667 327.5C123.667 326.027 122.473 324.833 121 324.833C119.527 324.833 118.333 326.027 118.333 327.5ZM185.095 274.706L147.011 327.206L147.82 327.794L185.905 275.294L185.095 274.706ZM147.416 327H121V328H147.416V327Z" fill="url(#paint1_linear_43101_2446)"/>
<path d="M294.663 62V61.5H294.421L294.271 61.6892L294.663 62ZM311.333 62C311.333 63.4728 312.527 64.6667 314 64.6667C315.473 64.6667 316.667 63.4728 316.667 62C316.667 60.5272 315.473 59.3333 314 59.3333C312.527 59.3333 311.333 60.5272 311.333 62ZM278.392 83.3108L295.055 62.3108L294.271 61.6892L277.608 82.6892L278.392 83.3108ZM294.663 62.5H314V61.5H294.663V62.5Z" fill="#D7C8AE"/>
<defs>
<filter id="filter0_d_43101_2446" x="19.7" y="0.713672" width="333.032" height="333.032" filterUnits="userSpaceOnUse" color-interpolation-filters="sRGB">
<feFlood flood-opacity="0" result="BackgroundImageFix"/>
<feColorMatrix in="SourceAlpha" type="matrix" values="0 0 0 0 0 0 0 0 0 0 0 0 0 0 0 0 0 0 127 0" result="hardAlpha"/>
<feOffset dy="4"/>
<feGaussianBlur stdDeviation="7.15"/>
<feComposite in2="hardAlpha" operator="out"/>
<feColorMatrix type="matrix" values="0 0 0 0 0 0 0 0 0 0 0 0 0 0 0 0 0 0 0.25 0"/>
<feBlend mode="normal" in2="BackgroundImageFix" result="effect1_dropShadow_43101_2446"/>
<feBlend mode="normal" in="SourceGraphic" in2="effect1_dropShadow_43101_2446" result="shape"/>
</filter>
<linearGradient id="paint0_linear_43101_2446" x1="34" y1="11" x2="259.694" y2="355.777" gradientUnits="userSpaceOnUse">
<stop stop-color="#F4EAD8"/>
<stop offset="1" stop-color="#E0B764"/>
</linearGradient>
<linearGradient id="paint1_linear_43101_2446" x1="121" y1="275" x2="156.247" y2="341.152" gradientUnits="userSpaceOnUse">
<stop stop-color="#F4EAD8"/>
<stop offset="1" stop-color="#E0B764"/>
</linearGradient>
</defs>
</svg>
