<svg width="116" height="56" viewBox="0 0 116 56" fill="none" xmlns="http://www.w3.org/2000/svg">
<path d="M27.9592 0C12.4959 0 0 12.5339 0 27.9592C0 40.1356 7.74748 50.4898 18.6395 54.3113V30.1357C19.8543 29.9585 21.0691 29.851 22.3535 29.851V55.3458C23.5651 55.5957 24.8178 55.7761 26.0674 55.8456V30.1357C27.3518 30.3508 28.6362 30.6355 29.7814 31.031V55.8456C31.0658 55.7761 32.3154 55.5957 33.5302 55.3458V32.7076C33.9921 32.9576 34.495 33.2423 34.9221 33.565C35.7794 34.1376 36.564 34.7798 37.2789 35.4947V54.3113C42.7076 52.4195 47.3484 48.8479 50.6701 44.2766C53.9539 39.6706 55.8836 34.0648 55.8836 27.9592C55.8836 12.5339 43.3845 0 27.9592 0ZM39.1359 27.994H16.7825V22.3882C25.3525 22.3882 33.1727 23.7454 39.1359 25.9251V27.994ZM42.8499 20.5313H13.0337V14.9603H42.8499V20.5313Z" fill="url(#paint0_linear_41355_2178)"/>
<path d="M64.9374 17.8227V7.56658H60.9482V5.14648H71.6283V7.56658H67.6201V17.8227H64.9374Z" fill="url(#paint1_linear_41355_2178)"/>
<path d="M74.7479 17.8235H72.293V5.15039H74.7479V9.6331C75.3995 8.76945 76.2126 8.22217 77.4495 8.22217C79.3381 8.22217 80.6447 9.45911 80.6447 11.7337V17.8235H78.2088V12.5625C78.2088 11.1674 77.6615 10.3923 76.5511 10.3923C75.5799 10.3923 74.751 11.1706 74.751 12.6859V17.8235H74.7479Z" fill="url(#paint2_linear_41355_2178)"/>
<path d="M81.5969 13.0748C81.5969 10.2687 83.5551 8.21875 86.2758 8.21875C89.259 8.21875 91.2362 10.6388 90.7933 13.7075H84.1024C84.2606 15.2418 85.004 16.0896 86.2568 16.0896C87.3324 16.0896 88.0568 15.5613 88.3384 14.6249H90.7743C90.246 16.7603 88.6041 17.9782 86.3074 17.9782C83.4824 17.9782 81.5938 16.02 81.5938 13.0716M84.1372 12.1542H88.196C88.1264 10.8476 87.383 10.0188 86.2188 10.0188C85.0546 10.0188 84.346 10.7591 84.1372 12.1542Z" fill="url(#paint3_linear_41355_2178)"/>
<path d="M70.5875 29.4782C70.5875 32.319 68.8918 34.2962 65.7505 34.2962C62.6091 34.2962 60.983 32.319 60.9482 29.6174H63.6309C63.6657 30.9587 64.213 31.8951 65.7505 31.8951C67.2879 31.8951 67.8858 30.9777 67.8858 29.5478V21.3574H70.5875V29.4782Z" fill="url(#paint4_linear_41355_2178)"/>
<path d="M78.0343 24.6055H80.4702V34.0328H78.2272V32.7958C77.7147 33.6247 76.6739 34.2067 75.4718 34.2067C73.5832 34.2067 72.207 33.0584 72.207 30.6067V24.6055H74.6619V30.1321C74.6619 31.4545 75.3136 32.0397 76.3038 32.0397C77.1864 32.0397 78.0343 31.3343 78.0343 30.0625V24.6086V24.6055Z" fill="url(#paint5_linear_41355_2178)"/>
<path d="M84.5234 21.3574H82.0527V34.0305H84.5234V21.3574Z" fill="url(#paint6_linear_41355_2178)"/>
<path d="M86.0986 34.0328L86.2758 24.6055H88.3764L88.5535 34.0328H86.0986Z" fill="url(#paint7_linear_41355_2178)"/>
<path d="M95.7443 32.8692C95.1274 33.7518 94.191 34.2106 92.9034 34.2106C90.9452 34.2106 89.6387 33.0622 89.6387 31.2969C89.6387 29.5317 91.1224 28.4719 93.8746 28.4719C94.4029 28.4719 94.8616 28.5067 95.4469 28.5763V28.0101C95.4469 26.9503 94.8458 26.3334 93.824 26.3334C92.8022 26.3334 92.1284 26.9503 92.0429 28.0101H89.8348C89.9772 25.8399 91.5463 24.4258 93.824 24.4258C96.2947 24.4258 97.7436 25.7861 97.7436 28.0986V34.0302H95.7474V32.8661L95.7443 32.8692ZM93.4317 32.5149C94.6845 32.5149 95.4437 31.8253 95.4437 30.7307V30.06C94.8616 29.9714 94.4536 29.9366 94.0328 29.9366C92.6377 29.9366 91.9512 30.3764 91.9512 31.2242C91.9512 32.0182 92.5175 32.5117 93.4349 32.5117" fill="url(#paint8_linear_41355_2178)"/>
<path d="M101.717 34.0322H99.2617V24.6049H101.52V25.9462C102.21 25.0098 103.181 24.4277 104.415 24.4277C106.304 24.4277 107.61 25.6647 107.61 27.9392V34.029H105.174V28.7681C105.174 27.373 104.627 26.5979 103.517 26.5979C102.545 26.5979 101.717 27.3761 101.717 28.8915V34.029V34.0322Z" fill="url(#paint9_linear_41355_2178)"/>
<path d="M88.4674 21.375H86.1865V23.6559H88.4674V21.375Z" fill="url(#paint10_linear_41355_2178)"/>
<path d="M90.1823 37.9648H87.9014V40.2457H90.1823V37.9648Z" fill="url(#paint11_linear_41355_2178)"/>
<path d="M63.6309 46.5701V50.7016H60.9482V38.0254H65.6271C68.7147 38.0254 70.6413 39.4901 70.6413 42.2455C70.6413 45.001 68.7178 46.5701 65.6271 46.5701H63.6309ZM63.6309 40.2841V44.3081H65.6081C67.1266 44.3081 67.9744 43.5141 67.9744 42.2614C67.9744 41.0086 67.1266 40.2841 65.6081 40.2841H63.6309Z" fill="url(#paint12_linear_41355_2178)"/>
<path d="M73.8592 50.7016H71.4043V41.2743H73.6631V43.0933C74.3527 41.8944 75.8174 41.1699 77.3359 41.1699V43.7102C75.2543 43.5521 73.8592 44.0456 73.8592 46.1303V50.7016Z" fill="url(#paint13_linear_41355_2178)"/>
<path d="M77.4053 45.9884C77.4053 43.2362 79.4521 41.0977 82.1885 41.0977C84.9249 41.0977 86.9717 43.233 86.9717 45.9884C86.9717 48.7439 84.9249 50.8793 82.1885 50.8793C79.4521 50.8793 77.4053 48.7249 77.4053 45.9884ZM84.4504 45.9884C84.4504 44.2422 83.4096 43.2868 82.1917 43.2868C80.9737 43.2868 79.9329 44.239 79.9329 45.9884C79.9329 47.7379 80.9737 48.7059 82.1917 48.7059C83.4096 48.7059 84.4504 47.7347 84.4504 45.9884Z" fill="url(#paint14_linear_41355_2178)"/>
<path d="M90.3506 50.6647C90.3506 53.2082 88.9744 54.2838 87.1016 54.2838C86.6587 54.2838 86.2 54.249 85.7793 54.0908V51.8131C86.045 51.9554 86.3962 52.025 86.8043 52.025C87.456 52.025 87.9178 51.6359 87.9178 50.5951V41.2754H90.3537V50.6679L90.3506 50.6647Z" fill="url(#paint15_linear_41355_2178)"/>
<path d="M91.2991 45.9537C91.2991 43.1476 93.2573 41.0977 95.9779 41.0977C98.9611 41.0977 100.938 43.5177 100.495 46.5864H93.8046C93.9628 48.1207 94.7062 48.9685 95.9589 48.9685C97.0345 48.9685 97.759 48.4402 98.0405 47.5038H100.476C99.9481 49.6392 98.3063 50.8571 96.0096 50.8571C93.1845 50.8571 91.2959 48.8989 91.2959 45.9505M93.8394 45.0331H97.8982C97.8286 43.7265 97.0851 42.8977 95.921 42.8977C94.7568 42.8977 94.0482 43.638 93.8394 45.0331Z" fill="url(#paint16_linear_41355_2178)"/>
<path d="M100.986 45.9884C100.986 43.1634 102.929 41.0977 105.577 41.0977C108.031 41.0977 109.847 42.7585 110.148 45.2988H107.57C107.446 44.046 106.687 43.2678 105.573 43.2678C104.302 43.2678 103.492 44.3086 103.492 45.9853C103.492 47.662 104.286 48.7028 105.573 48.7028C106.703 48.7028 107.427 47.9625 107.57 46.6718H110.148C109.866 49.2659 108.101 50.8729 105.577 50.8729C102.859 50.8729 100.986 48.8609 100.986 45.9821" fill="url(#paint17_linear_41355_2178)"/>
<path d="M115.911 50.452C115.31 50.7525 114.747 50.8759 114.023 50.8759C112.08 50.8759 110.862 49.7623 110.862 47.6459V38.4844H113.298V41.2746H116V43.3752H113.298V47.0828C113.298 48.1774 113.792 48.6171 114.674 48.6171C115.133 48.6171 115.557 48.5096 115.911 48.3166V50.452Z" fill="url(#paint18_linear_41355_2178)"/>
<defs>
<linearGradient id="paint0_linear_41355_2178" x1="0" y1="0" x2="41.3889" y2="63.2697" gradientUnits="userSpaceOnUse">
<stop stop-color="#F4EAD8"/>
<stop offset="1" stop-color="#E0B764"/>
</linearGradient>
<linearGradient id="paint1_linear_41355_2178" x1="60.9482" y1="5.14648" x2="70.8837" y2="17.9341" gradientUnits="userSpaceOnUse">
<stop stop-color="#F4EAD8"/>
<stop offset="1" stop-color="#E0B764"/>
</linearGradient>
<linearGradient id="paint2_linear_41355_2178" x1="72.293" y1="5.15039" x2="82.5437" y2="15.4701" gradientUnits="userSpaceOnUse">
<stop stop-color="#F4EAD8"/>
<stop offset="1" stop-color="#E0B764"/>
</linearGradient>
<linearGradient id="paint3_linear_41355_2178" x1="81.5938" y1="8.21875" x2="88.9733" y2="18.9167" gradientUnits="userSpaceOnUse">
<stop stop-color="#F4EAD8"/>
<stop offset="1" stop-color="#E0B764"/>
</linearGradient>
<linearGradient id="paint4_linear_41355_2178" x1="60.9482" y1="21.3574" x2="71.3273" y2="33.1694" gradientUnits="userSpaceOnUse">
<stop stop-color="#F4EAD8"/>
<stop offset="1" stop-color="#E0B764"/>
</linearGradient>
<linearGradient id="paint5_linear_41355_2178" x1="72.207" y1="24.6055" x2="79.6914" y2="34.4453" gradientUnits="userSpaceOnUse">
<stop stop-color="#F4EAD8"/>
<stop offset="1" stop-color="#E0B764"/>
</linearGradient>
<linearGradient id="paint6_linear_41355_2178" x1="82.0527" y1="21.3574" x2="87.6612" y2="23.0277" gradientUnits="userSpaceOnUse">
<stop stop-color="#F4EAD8"/>
<stop offset="1" stop-color="#E0B764"/>
</linearGradient>
<linearGradient id="paint7_linear_41355_2178" x1="86.0986" y1="24.6055" x2="91.3366" y2="26.6891" gradientUnits="userSpaceOnUse">
<stop stop-color="#F4EAD8"/>
<stop offset="1" stop-color="#E0B764"/>
</linearGradient>
<linearGradient id="paint8_linear_41355_2178" x1="89.6387" y1="24.4258" x2="97.3391" y2="34.1697" gradientUnits="userSpaceOnUse">
<stop stop-color="#F4EAD8"/>
<stop offset="1" stop-color="#E0B764"/>
</linearGradient>
<linearGradient id="paint9_linear_41355_2178" x1="99.2617" y1="24.4277" x2="106.728" y2="34.3424" gradientUnits="userSpaceOnUse">
<stop stop-color="#F4EAD8"/>
<stop offset="1" stop-color="#E0B764"/>
</linearGradient>
<linearGradient id="paint10_linear_41355_2178" x1="86.1865" y1="21.375" x2="87.8774" y2="23.9581" gradientUnits="userSpaceOnUse">
<stop stop-color="#F4EAD8"/>
<stop offset="1" stop-color="#E0B764"/>
</linearGradient>
<linearGradient id="paint11_linear_41355_2178" x1="87.9014" y1="37.9648" x2="89.5923" y2="40.5479" gradientUnits="userSpaceOnUse">
<stop stop-color="#F4EAD8"/>
<stop offset="1" stop-color="#E0B764"/>
</linearGradient>
<linearGradient id="paint12_linear_41355_2178" x1="60.9482" y1="38.0254" x2="71.0792" y2="49.8596" gradientUnits="userSpaceOnUse">
<stop stop-color="#F4EAD8"/>
<stop offset="1" stop-color="#E0B764"/>
</linearGradient>
<linearGradient id="paint13_linear_41355_2178" x1="71.4043" y1="41.1699" x2="79.1044" y2="48.49" gradientUnits="userSpaceOnUse">
<stop stop-color="#F4EAD8"/>
<stop offset="1" stop-color="#E0B764"/>
</linearGradient>
<linearGradient id="paint14_linear_41355_2178" x1="77.4053" y1="41.0977" x2="84.72" y2="52.026" gradientUnits="userSpaceOnUse">
<stop stop-color="#F4EAD8"/>
<stop offset="1" stop-color="#E0B764"/>
</linearGradient>
<linearGradient id="paint15_linear_41355_2178" x1="85.7793" y1="41.2754" x2="94.5525" y2="45.9883" gradientUnits="userSpaceOnUse">
<stop stop-color="#F4EAD8"/>
<stop offset="1" stop-color="#E0B764"/>
</linearGradient>
<linearGradient id="paint16_linear_41355_2178" x1="91.2959" y1="41.0977" x2="98.6755" y2="51.7956" gradientUnits="userSpaceOnUse">
<stop stop-color="#F4EAD8"/>
<stop offset="1" stop-color="#E0B764"/>
</linearGradient>
<linearGradient id="paint17_linear_41355_2178" x1="100.986" y1="41.0977" x2="108.41" y2="51.7265" gradientUnits="userSpaceOnUse">
<stop stop-color="#F4EAD8"/>
<stop offset="1" stop-color="#E0B764"/>
</linearGradient>
<linearGradient id="paint18_linear_41355_2178" x1="110.862" y1="38.4844" x2="119.924" y2="44.2236" gradientUnits="userSpaceOnUse">
<stop stop-color="#F4EAD8"/>
<stop offset="1" stop-color="#E0B764"/>
</linearGradient>
</defs>
</svg>
