<svg width="1440" height="902" viewBox="0 0 1440 902" fill="none" xmlns="http://www.w3.org/2000/svg">
<g clip-path="url(#clip0_41260_4796)">
<g opacity="0.07">
<path d="M-34.3598 221.67C-41.8775 282.417 18.0886 333.745 78.5674 343.185C139.044 352.625 199.713 333.149 259.636 320.666C319.559 308.184 386.98 304.057 437.036 339.287C501.031 384.325 515.836 479.071 581.671 521.374C632.985 554.346 699.779 544.481 752.352 519.95C782.078 506.081 807.352 482.749 835.765 466.498C964.615 392.795 973.303 242.176 1082.77 219.716C1201.3 195.396 1265.61 253.186 1287.98 293.267C1316.64 344.606 1364.42 477.821 1247.34 570.396C1199.78 608.004 1152.83 648.086 1117.84 697.606C1065.45 771.745 1065.81 885.09 1132.8 946.353C1178.71 988.34 1249.22 1003.69 1280.41 1057.52C1301.37 1093.71 1298.51 1140.35 1280.49 1178.09C1262.47 1215.82 1231.08 1245.67 1196.98 1269.87" stroke="url(#paint0_linear_41260_4796)" stroke-miterlimit="10"/>
<path d="M-31.6443 218.637C-36.8341 281.127 22.8051 335.119 85.0883 345.862C145.88 356.347 207.548 337.024 267.479 323.243C326.702 309.624 392.452 303.448 442.35 335.471C506.085 376.449 524.009 466.383 589.764 508.131C642.143 541.208 707.877 535.061 761.705 513.617C792.626 501.299 820.027 479.307 849.784 462.823C975.927 392.938 986.302 247.212 1093.39 225.061C1208.57 201.283 1272.53 255.973 1295.78 295.412C1325.24 345.39 1370.82 473.742 1260.2 565.26C1214.59 602.991 1169.36 643.843 1134.94 693.058C1084.1 765.439 1083.64 874.75 1146.86 935.479C1190.6 977.496 1258.58 994.614 1289.64 1047.75C1310.96 1084.08 1309.64 1130.06 1293.9 1168.08C1278.01 1206.45 1249.03 1237.99 1216.26 1263.96" stroke="url(#paint1_linear_41260_4796)" stroke-miterlimit="10"/>
<path d="M-28.9288 215.606C-31.7908 279.84 27.5179 336.474 91.609 348.54C152.717 360.043 215.382 340.915 275.323 325.821C333.846 311.084 397.928 302.841 447.666 331.656C511.145 368.572 532.092 453.844 597.858 494.886C651.229 528.192 716.042 525.68 771.057 507.282C803.213 496.529 832.688 475.858 863.802 459.147C987.122 392.912 999.3 252.249 1104.01 230.405C1215.85 207.166 1279.44 258.759 1303.57 297.558C1333.81 346.178 1377.23 469.748 1273.05 560.126C1229.38 598.007 1185.9 639.6 1152.04 688.512C1102.74 759.134 1101.46 864.446 1160.92 924.606C1202.51 966.677 1267.95 985.541 1298.87 1037.98C1320.54 1074.45 1320.79 1119.8 1307.31 1158.07C1293.56 1197.1 1266.97 1230.31 1235.54 1258.06" stroke="url(#paint2_linear_41260_4796)" stroke-miterlimit="10"/>
<path d="M-26.2132 212.573C-26.7474 278.551 32.2308 337.809 98.1317 351.217C159.554 363.715 223.216 344.821 283.168 328.4C340.988 312.562 403.402 302.233 452.981 327.842C516.202 360.696 540.229 441.22 605.951 481.645C660.356 515.11 724.261 516.353 780.41 500.952C813.83 491.785 845.337 472.403 877.821 455.474C998.211 392.732 1012.3 257.288 1114.63 235.753C1223.12 213.054 1286.34 261.548 1311.37 299.707C1342.37 346.971 1383.66 465.852 1285.91 554.992C1244.16 593.057 1202.57 635.453 1169.14 683.967C1121.58 752.968 1119.28 854.185 1174.99 913.736C1214.41 955.885 1277.19 976.543 1308.1 1028.21C1330.04 1064.88 1331.96 1109.57 1320.72 1148.06C1309.12 1187.8 1284.92 1222.63 1254.81 1252.17" stroke="url(#paint3_linear_41260_4796)" stroke-miterlimit="10"/>
<path d="M-23.498 209.542C-21.7044 277.262 36.945 339.125 104.652 353.898C166.392 367.368 231.046 348.744 291.01 330.98C348.127 314.06 408.874 301.626 458.294 324.031C521.256 352.824 548.372 428.586 614.042 468.406C669.487 502.025 732.524 507.08 789.76 494.623C824.474 487.068 857.971 468.94 891.838 451.804C1009.21 392.415 1025.29 262.328 1125.24 241.103C1230.39 218.944 1293.22 264.343 1319.16 301.858C1350.91 347.772 1390.11 462.062 1298.76 549.862C1258.92 588.147 1219.14 631.243 1186.23 679.425C1140.27 746.702 1137.09 843.968 1189.05 902.868C1226.32 945.122 1286.51 967.491 1317.32 1018.45C1339.59 1055.28 1343.15 1099.38 1334.13 1138.06C1324.69 1178.52 1302.86 1214.96 1274.09 1246.27" stroke="url(#paint4_linear_41260_4796)" stroke-miterlimit="10"/>
<path d="M-20.7803 206.509C-16.6606 275.972 41.6619 340.423 111.175 356.574C173.235 370.995 238.879 352.68 298.857 333.557C355.273 315.57 414.389 300.917 463.611 320.215C526.366 344.819 556.526 415.942 622.139 455.163C678.625 488.93 740.83 497.861 799.116 488.289C835.143 482.373 870.597 465.46 905.859 448.128C1020.13 391.962 1038.29 267.365 1135.86 246.447C1237.67 224.828 1300.08 267.133 1326.95 304.003C1359.43 348.571 1396.59 458.379 1311.61 544.726C1273.68 583.268 1235.72 627.024 1203.33 674.879C1158.96 740.43 1154.88 833.796 1203.11 891.996C1238.23 934.388 1295.85 958.432 1326.55 1008.68C1349.15 1045.67 1354.37 1089.2 1347.54 1128.05C1340.29 1169.27 1320.8 1207.28 1293.36 1240.37" stroke="url(#paint5_linear_41260_4796)" stroke-miterlimit="10"/>
<path d="M-18.0654 203.478C-11.6179 274.685 46.3794 341.7 117.695 359.253C180.078 374.606 246.71 356.632 306.699 336.137C362.415 317.1 419.859 300.293 468.924 316.402C531.419 336.922 564.681 403.289 630.23 441.92C687.764 475.828 749.152 488.696 808.466 481.956C845.824 477.711 883.203 461.967 919.875 444.452C1030.97 391.39 1051.29 272.4 1146.47 251.792C1244.94 230.715 1306.94 269.929 1334.75 306.151C1367.94 349.379 1403.12 454.817 1324.46 539.592C1288.43 578.435 1252.29 622.805 1220.43 670.333C1177.65 734.151 1172.66 823.673 1217.17 881.124C1250.14 923.684 1305.19 949.372 1335.78 998.91C1358.72 1036.06 1365.62 1079.05 1360.95 1118.04C1355.92 1160.04 1338.75 1199.6 1312.64 1234.47" stroke="url(#paint6_linear_41260_4796)" stroke-miterlimit="10"/>
<path d="M-15.3496 200.447C-6.57426 273.397 51.0997 342.962 124.216 361.933C186.925 378.203 254.544 360.602 314.544 338.718C369.565 318.648 425.329 299.672 474.239 312.59C536.474 329.028 572.842 390.632 638.323 428.681C696.908 462.725 757.496 479.591 817.819 475.627C856.517 473.085 895.802 458.462 933.894 440.781C1041.76 390.716 1064.29 277.44 1157.09 257.142C1252.21 236.604 1313.78 272.736 1342.54 308.301C1376.42 350.2 1409.7 451.388 1337.32 534.462C1303.17 573.653 1268.85 618.586 1237.53 665.792C1196.33 727.874 1190.42 813.608 1231.23 870.257C1262.05 913.023 1314.54 940.315 1345.01 989.146C1368.29 1026.45 1376.9 1068.91 1374.36 1108.03C1371.58 1150.83 1356.69 1191.92 1331.92 1228.57" stroke="url(#paint7_linear_41260_4796)" stroke-miterlimit="10"/>
<path d="M-12.6338 197.414C-1.53061 272.108 55.8254 344.206 130.739 364.61C193.776 381.778 262.384 364.587 322.389 341.294C376.717 320.206 430.798 299.048 479.554 308.774C541.523 321.135 581.01 377.961 646.416 415.438C706.057 449.61 765.848 470.532 827.17 469.294C867.213 468.485 908.385 454.932 947.911 437.107C1052.49 389.939 1077.28 282.477 1167.71 262.487C1259.48 242.489 1320.61 275.545 1350.33 310.446C1384.89 351.023 1416.35 448.09 1350.17 529.326C1317.92 568.917 1285.41 614.357 1254.62 661.244C1215 721.584 1208.13 803.592 1245.29 859.383C1273.93 902.389 1323.89 931.247 1354.24 979.374C1377.86 1016.83 1388.21 1058.78 1387.77 1098.02C1387.28 1141.63 1374.63 1184.24 1351.2 1222.67" stroke="url(#paint8_linear_41260_4796)" stroke-miterlimit="10"/>
<path d="M-9.91895 194.381C3.51206 270.819 60.5536 345.432 137.259 367.287C200.63 385.341 270.226 368.586 330.233 343.871C383.871 321.781 436.263 298.429 484.87 304.959C546.571 313.247 589.183 365.284 654.51 402.193C715.21 436.489 774.201 461.52 836.524 462.96C877.913 463.916 920.96 451.381 961.931 433.431C1063.18 389.07 1090.28 287.514 1178.33 267.832C1266.76 248.375 1327.42 278.36 1358.13 312.593C1393.35 351.858 1423.08 444.932 1363.02 524.191C1332.68 564.235 1301.97 610.127 1271.72 656.698C1233.66 715.29 1225.82 793.633 1259.35 848.511C1285.8 891.798 1333.24 922.179 1363.46 969.604C1387.43 1007.21 1399.56 1048.66 1401.18 1088.01C1403.01 1132.43 1392.57 1176.56 1370.47 1216.77" stroke="url(#paint9_linear_41260_4796)" stroke-miterlimit="10"/>
<path d="M-7.20312 191.35C8.55391 269.529 65.2864 346.644 143.78 369.965C207.487 388.893 278.073 372.6 338.076 346.451C391.032 323.373 441.726 297.819 490.183 301.147C551.613 305.367 597.356 352.602 662.603 388.954C724.368 423.366 782.548 452.554 845.876 456.629C888.61 459.38 933.519 447.807 975.95 429.758C1073.83 388.12 1103.28 292.552 1188.95 273.179C1274.03 254.262 1334.23 281.188 1365.92 314.741C1401.79 352.708 1429.92 441.921 1375.88 519.059C1347.47 559.616 1318.53 605.898 1288.82 652.154C1252.31 708.994 1243.46 783.731 1273.42 837.64C1297.65 881.247 1342.6 913.11 1372.7 959.836C1397.01 997.59 1410.94 1038.53 1414.59 1078C1418.77 1123.23 1410.52 1168.89 1389.75 1210.88" stroke="url(#paint10_linear_41260_4796)" stroke-miterlimit="10"/>
<path d="M-4.48535 188.319C13.5995 268.242 70.0265 347.842 150.305 372.644C214.353 392.433 285.93 376.633 345.923 349.03C398.2 324.976 447.191 297.209 495.501 297.332C556.658 297.487 605.539 339.91 670.698 375.712C733.53 410.232 790.888 443.622 855.231 450.297C899.301 454.868 946.07 444.205 989.972 426.084C1084.44 387.09 1116.28 297.589 1199.57 278.525C1281.31 260.149 1341.02 284.024 1373.72 316.889C1410.21 353.568 1436.88 439.051 1388.74 513.925C1362.29 555.058 1335.08 601.661 1305.92 647.61C1270.97 702.692 1261.04 773.882 1287.48 826.77C1309.46 870.736 1351.97 904.037 1381.93 950.07C1406.6 987.971 1422.35 1028.4 1428 1068C1434.58 1114.03 1428.47 1161.21 1409.03 1204.98" stroke="url(#paint11_linear_41260_4796)" stroke-miterlimit="10"/>
<path d="M-1.77051 185.286C18.6422 266.953 74.769 349.023 156.825 375.322C221.218 395.96 293.792 380.68 353.767 351.608C405.374 326.594 452.654 296.603 500.815 293.518C561.701 289.616 613.721 327.213 678.791 362.468C742.692 397.093 799.214 434.724 864.583 443.964C909.981 450.381 958.601 440.568 1003.99 422.408C1095.02 385.986 1129.24 302.46 1210.18 283.869C1288.54 265.872 1347.8 286.872 1381.51 319.033C1418.62 354.438 1443.97 436.314 1401.59 508.789C1377.16 550.56 1351.62 597.42 1323.02 643.062C1289.61 696.38 1278.55 764.078 1301.54 815.896C1321.23 860.259 1361.34 894.958 1391.16 940.298C1416.18 978.344 1433.79 1018.26 1441.42 1057.99C1450.41 1104.81 1446.41 1153.53 1428.31 1199.08" stroke="url(#paint12_linear_41260_4796)" stroke-miterlimit="10"/>
<path d="M0.945312 182.255C23.6858 265.666 79.5197 350.191 163.346 378.001C228.088 399.481 301.662 384.742 361.61 354.189C412.552 328.226 458.116 296.006 506.128 289.707C566.745 281.753 621.907 314.511 686.882 349.23C751.859 383.949 807.524 425.857 873.932 437.635C920.649 445.921 971.118 436.897 1018.01 418.737C1105.58 384.822 1142.23 307.498 1220.8 289.219C1295.81 271.763 1354.56 289.737 1389.3 321.185C1427.02 355.331 1451.23 433.712 1414.44 503.659C1392.1 546.134 1368.15 593.178 1340.11 638.521C1308.24 690.071 1295.99 754.323 1315.6 805.03C1332.93 849.825 1370.71 885.884 1400.38 930.534C1425.77 968.722 1445.24 1008.11 1454.83 1047.98C1466.27 1095.58 1464.36 1145.86 1447.58 1193.18" stroke="url(#paint13_linear_41260_4796)" stroke-miterlimit="10"/>
<path d="M3.66113 179.222C28.7277 264.376 84.2757 351.343 169.868 380.678C234.961 402.988 309.541 388.815 369.453 356.765C419.738 329.864 463.581 295.408 511.442 285.891C571.79 273.891 630.096 301.798 694.974 335.986C761.028 370.795 815.815 417.01 883.283 431.302C931.306 441.475 983.62 433.178 1032.02 415.063C1116.11 383.59 1155.23 312.538 1231.41 294.564C1303.08 277.653 1361.32 292.613 1397.09 323.331C1435.41 356.231 1458.66 431.216 1427.29 498.523C1407.14 541.764 1384.68 588.928 1357.21 633.973C1326.85 683.749 1313.35 744.594 1329.66 794.155C1344.56 839.41 1380.08 876.8 1409.61 920.762C1435.35 959.092 1456.71 997.938 1468.23 1037.97C1482.15 1086.33 1482.3 1138.18 1466.85 1187.28" stroke="url(#paint14_linear_41260_4796)" stroke-miterlimit="10"/>
<path d="M6.37598 176.189C33.7704 263.086 89.0361 352.482 176.389 383.356C241.84 406.488 317.433 392.907 377.299 359.344C426.937 331.515 469.051 294.815 516.759 282.075C576.843 266.032 638.29 289.08 703.071 322.743C770.208 357.632 824.097 408.183 892.64 424.968C941.958 437.045 996.113 429.409 1046.04 411.387C1126.63 382.299 1168.23 317.58 1242.03 299.908C1310.36 283.546 1368.07 295.503 1404.89 325.477C1443.79 357.146 1466.28 428.807 1440.15 493.389C1422.31 537.452 1401.2 584.673 1374.31 629.427C1345.47 677.423 1330.62 734.885 1343.73 783.283C1356.11 829.016 1389.46 867.716 1418.84 910.992C1444.95 949.459 1468.2 987.753 1481.64 1027.96C1498.05 1077.06 1500.24 1130.5 1486.13 1181.38" stroke="url(#paint15_linear_41260_4796)" stroke-miterlimit="10"/>
<path d="M9.0918 173.157C38.814 261.799 93.8029 353.609 182.911 386.035C248.722 409.981 325.333 397.009 385.142 361.922C434.141 333.177 474.519 294.224 522.073 278.262C581.894 258.179 646.485 276.357 711.163 309.5C779.384 344.463 832.354 399.373 901.991 418.635C952.59 432.632 1008.58 425.583 1060.06 407.712C1137.14 380.954 1181.23 322.628 1252.65 305.254C1317.64 289.445 1374.81 298.41 1412.68 327.623C1452.16 358.078 1474.12 426.453 1453 488.254C1437.64 533.184 1417.7 580.411 1391.41 624.881C1364.08 671.092 1347.8 725.181 1357.79 772.411C1367.56 818.632 1398.84 858.628 1428.07 901.222C1454.55 939.823 1479.7 977.553 1495.05 1017.95C1513.98 1067.77 1518.19 1122.82 1505.41 1175.48" stroke="url(#paint16_linear_41260_4796)" stroke-miterlimit="10"/>
<path d="M11.8086 170.127C43.8586 260.512 98.5795 354.727 189.433 388.714C255.609 413.469 333.247 401.128 392.988 364.503C441.356 334.85 480.032 293.728 527.389 274.45C587 250.445 654.685 263.629 719.257 296.262C788.566 331.288 840.597 390.579 911.344 412.306C963.214 428.237 1021.04 421.694 1074.08 404.042C1147.64 379.561 1194.27 327.817 1263.27 310.604C1324.94 295.468 1381.55 301.339 1420.48 329.775C1460.54 359.031 1482.18 424.113 1465.86 483.124C1453.18 528.951 1434.21 576.149 1408.51 620.34C1382.67 664.762 1364.9 715.469 1371.85 761.544C1378.91 808.244 1408.23 849.543 1437.3 891.458C1464.16 930.191 1491.22 967.342 1508.47 1007.95C1529.93 1058.47 1536.14 1115.15 1524.69 1169.58" stroke="url(#paint17_linear_41260_4796)" stroke-miterlimit="10"/>
<path d="M14.5244 167.093C48.9023 259.222 103.359 355.83 195.955 391.39C262.501 416.948 341.176 405.255 400.833 367.079C448.579 336.526 485.506 293.118 532.704 270.634C592.056 242.568 662.886 250.893 727.35 283.019C797.753 318.102 848.822 381.791 920.695 405.973C973.821 423.848 1033.47 417.723 1088.1 400.366C1158.14 378.115 1207.26 332.852 1273.88 315.948C1332.21 301.354 1388.27 304.278 1428.27 331.919C1468.9 359.992 1490.45 421.723 1478.71 477.988C1468.95 524.712 1450.69 571.874 1425.6 615.792C1401.25 658.418 1381.89 705.715 1385.91 750.67C1390.13 797.825 1417.62 840.448 1446.52 881.686C1473.76 920.548 1502.73 957.107 1521.87 997.94C1545.87 1049.14 1554.07 1107.47 1543.96 1163.68" stroke="url(#paint18_linear_41260_4796)" stroke-miterlimit="10"/>
<path d="M17.2402 164.062C53.9441 257.933 108.147 356.922 202.477 394.069C269.396 420.421 349.114 409.397 408.676 369.658C455.809 338.211 490.979 292.511 538.018 266.821C597.112 234.694 671.148 238.027 735.441 269.777C807.007 304.772 857.028 373.014 930.046 399.641C984.415 419.467 1045.88 413.659 1102.12 396.691C1168.64 376.621 1220.26 337.888 1284.5 321.293C1339.49 307.239 1394.99 307.239 1436.07 334.067C1477.26 360.973 1498.94 419.232 1491.56 472.854C1485.01 520.436 1467.16 567.593 1442.7 611.246C1419.83 652.073 1398.81 695.907 1399.97 739.798C1401.24 787.364 1427.09 831.3 1455.75 871.916C1483.45 910.853 1514.26 946.857 1535.28 987.93C1561.84 1039.79 1572.02 1099.79 1563.24 1157.78" stroke="url(#paint19_linear_41260_4796)" stroke-miterlimit="10"/>
<path d="M19.9551 161.031C58.9868 256.645 112.993 357.869 208.997 396.749C276.33 423.799 357.065 413.551 416.52 372.238C463.051 339.906 496.452 291.906 543.332 263.007C602.169 226.818 679.323 225.342 743.536 256.535C816.166 291.636 865.22 364.243 939.4 393.308C995.003 415.095 1058.27 409.485 1116.14 393.017C1179.15 375.084 1233.26 342.927 1295.12 326.639C1346.76 313.126 1401.71 310.216 1443.86 336.213C1485.62 361.969 1507.63 416.558 1504.41 467.72C1501.37 516.067 1483.61 563.304 1459.8 606.702C1438.39 645.723 1415.65 686.028 1414.03 728.928C1412.23 776.838 1436.45 822.227 1464.98 862.148C1493.03 901.23 1525.78 936.596 1548.69 977.923C1577.8 1030.43 1589.96 1092.11 1582.52 1151.88" stroke="url(#paint20_linear_41260_4796)" stroke-miterlimit="10"/>
<path d="M22.6709 157.999C64.0304 255.356 117.74 359.074 215.52 399.426C283.196 427.355 365.033 417.713 424.365 374.817C470.305 341.604 501.926 291.297 548.649 259.194C607.227 218.944 687.498 212.655 751.631 243.294C825.328 278.502 873.397 355.478 948.754 386.978C1005.58 410.731 1070.64 405.184 1130.16 389.345C1189.67 373.506 1246.26 347.966 1305.74 331.989C1354.04 319.015 1408.43 313.218 1451.65 338.365C1493.98 362.987 1516.48 413.631 1517.27 462.59C1518.06 511.549 1500.04 559.01 1476.9 602.16C1456.94 639.373 1432.44 676.057 1428.1 718.06C1423.12 766.231 1445.81 813.157 1474.21 852.384C1502.61 891.61 1537.31 926.322 1562.11 967.919C1593.78 1021.05 1607.91 1084.44 1601.8 1145.99" stroke="url(#paint21_linear_41260_4796)" stroke-miterlimit="10"/>
</g>
<g opacity="0.5" filter="url(#filter0_f_41260_4796)">
<circle cx="-70.5" cy="169.5" r="126.5" fill="url(#paint22_linear_41260_4796)"/>
</g>
<g opacity="0.5" filter="url(#filter1_f_41260_4796)">
<circle cx="1506.5" cy="691.5" r="126.5" fill="url(#paint23_linear_41260_4796)"/>
</g>
<path opacity="0.07" d="M986.137 131C857.2 131 753 235.361 753 363.804C753 465.189 817.599 551.408 908.424 583.228V381.921C918.557 380.445 928.678 379.552 939.395 379.552V591.834C949.503 593.917 959.947 595.417 970.366 596V381.921C981.07 383.706 991.787 386.087 1001.34 389.373V596C1012.04 595.417 1022.47 593.917 1032.59 591.834V403.336C1036.44 405.419 1040.64 407.788 1044.2 410.479C1051.36 415.24 1057.9 420.597 1063.86 426.55V583.228C1109.13 567.479 1147.83 537.731 1175.52 499.674C1202.91 461.32 1219 414.645 1219 363.804C1219 235.361 1114.78 131 986.149 131H986.137ZM1079.33 364.101H892.939V317.427C964.405 317.427 1029.61 328.723 1079.33 346.877V364.101ZM1110.3 301.963H861.683V255.574H1110.3V301.963Z" fill="url(#paint24_linear_41260_4796)"/>
</g>
<defs>
<filter id="filter0_f_41260_4796" x="-484.4" y="-244.4" width="827.8" height="827.8" filterUnits="userSpaceOnUse" color-interpolation-filters="sRGB">
<feFlood flood-opacity="0" result="BackgroundImageFix"/>
<feBlend mode="normal" in="SourceGraphic" in2="BackgroundImageFix" result="shape"/>
<feGaussianBlur stdDeviation="143.7" result="effect1_foregroundBlur_41260_4796"/>
</filter>
<filter id="filter1_f_41260_4796" x="1092.6" y="277.6" width="827.8" height="827.8" filterUnits="userSpaceOnUse" color-interpolation-filters="sRGB">
<feFlood flood-opacity="0" result="BackgroundImageFix"/>
<feBlend mode="normal" in="SourceGraphic" in2="BackgroundImageFix" result="shape"/>
<feGaussianBlur stdDeviation="143.7" result="effect1_foregroundBlur_41260_4796"/>
</filter>
<linearGradient id="paint0_linear_41260_4796" x1="-35" y1="1269.87" x2="655.777" y2="-86.6009" gradientUnits="userSpaceOnUse">
<stop stop-color="#F4EAD8"/>
<stop offset="1" stop-color="#E0B764"/>
</linearGradient>
<linearGradient id="paint1_linear_41260_4796" x1="-31.96" y1="1263.96" x2="646.263" y2="-86.5152" gradientUnits="userSpaceOnUse">
<stop stop-color="#F4EAD8"/>
<stop offset="1" stop-color="#E0B764"/>
</linearGradient>
<linearGradient id="paint2_linear_41260_4796" x1="-29.0283" y1="1258.06" x2="644.644" y2="-92.2994" gradientUnits="userSpaceOnUse">
<stop stop-color="#F4EAD8"/>
<stop offset="1" stop-color="#E0B764"/>
</linearGradient>
<linearGradient id="paint3_linear_41260_4796" x1="-26.2168" y1="1252.17" x2="642.881" y2="-98.0842" gradientUnits="userSpaceOnUse">
<stop stop-color="#F4EAD8"/>
<stop offset="1" stop-color="#E0B764"/>
</linearGradient>
<linearGradient id="paint4_linear_41260_4796" x1="-23.498" y1="1246.27" x2="641.001" y2="-103.857" gradientUnits="userSpaceOnUse">
<stop stop-color="#F4EAD8"/>
<stop offset="1" stop-color="#E0B764"/>
</linearGradient>
<linearGradient id="paint5_linear_41260_4796" x1="-20.7803" y1="1240.37" x2="639.12" y2="-109.59" gradientUnits="userSpaceOnUse">
<stop stop-color="#F4EAD8"/>
<stop offset="1" stop-color="#E0B764"/>
</linearGradient>
<linearGradient id="paint6_linear_41260_4796" x1="-18.0654" y1="1234.47" x2="637.237" y2="-115.28" gradientUnits="userSpaceOnUse">
<stop stop-color="#F4EAD8"/>
<stop offset="1" stop-color="#E0B764"/>
</linearGradient>
<linearGradient id="paint7_linear_41260_4796" x1="-15.3496" y1="1228.57" x2="635.354" y2="-120.934" gradientUnits="userSpaceOnUse">
<stop stop-color="#F4EAD8"/>
<stop offset="1" stop-color="#E0B764"/>
</linearGradient>
<linearGradient id="paint8_linear_41260_4796" x1="-12.6338" y1="1222.67" x2="633.464" y2="-126.557" gradientUnits="userSpaceOnUse">
<stop stop-color="#F4EAD8"/>
<stop offset="1" stop-color="#E0B764"/>
</linearGradient>
<linearGradient id="paint9_linear_41260_4796" x1="-9.91895" y1="1216.77" x2="630.43" y2="-133.546" gradientUnits="userSpaceOnUse">
<stop stop-color="#F4EAD8"/>
<stop offset="1" stop-color="#E0B764"/>
</linearGradient>
<linearGradient id="paint10_linear_41260_4796" x1="-7.20312" y1="1210.88" x2="626.915" y2="-141.038" gradientUnits="userSpaceOnUse">
<stop stop-color="#F4EAD8"/>
<stop offset="1" stop-color="#E0B764"/>
</linearGradient>
<linearGradient id="paint11_linear_41260_4796" x1="-4.48535" y1="1204.98" x2="623.259" y2="-148.609" gradientUnits="userSpaceOnUse">
<stop stop-color="#F4EAD8"/>
<stop offset="1" stop-color="#E0B764"/>
</linearGradient>
<linearGradient id="paint12_linear_41260_4796" x1="-1.77051" y1="1199.08" x2="619.467" y2="-156.235" gradientUnits="userSpaceOnUse">
<stop stop-color="#F4EAD8"/>
<stop offset="1" stop-color="#E0B764"/>
</linearGradient>
<linearGradient id="paint13_linear_41260_4796" x1="0.945312" y1="1193.18" x2="615.579" y2="-163.879" gradientUnits="userSpaceOnUse">
<stop stop-color="#F4EAD8"/>
<stop offset="1" stop-color="#E0B764"/>
</linearGradient>
<linearGradient id="paint14_linear_41260_4796" x1="3.66113" y1="1187.28" x2="611.602" y2="-171.517" gradientUnits="userSpaceOnUse">
<stop stop-color="#F4EAD8"/>
<stop offset="1" stop-color="#E0B764"/>
</linearGradient>
<linearGradient id="paint15_linear_41260_4796" x1="6.37598" y1="1181.38" x2="607.561" y2="-179.124" gradientUnits="userSpaceOnUse">
<stop stop-color="#F4EAD8"/>
<stop offset="1" stop-color="#E0B764"/>
</linearGradient>
<linearGradient id="paint16_linear_41260_4796" x1="9.0918" y1="1175.48" x2="603.476" y2="-186.673" gradientUnits="userSpaceOnUse">
<stop stop-color="#F4EAD8"/>
<stop offset="1" stop-color="#E0B764"/>
</linearGradient>
<linearGradient id="paint17_linear_41260_4796" x1="11.8086" y1="1169.58" x2="599.369" y2="-194.15" gradientUnits="userSpaceOnUse">
<stop stop-color="#F4EAD8"/>
<stop offset="1" stop-color="#E0B764"/>
</linearGradient>
<linearGradient id="paint18_linear_41260_4796" x1="14.5244" y1="1163.68" x2="595.244" y2="-201.541" gradientUnits="userSpaceOnUse">
<stop stop-color="#F4EAD8"/>
<stop offset="1" stop-color="#E0B764"/>
</linearGradient>
<linearGradient id="paint19_linear_41260_4796" x1="17.2402" y1="1157.78" x2="591.116" y2="-208.833" gradientUnits="userSpaceOnUse">
<stop stop-color="#F4EAD8"/>
<stop offset="1" stop-color="#E0B764"/>
</linearGradient>
<linearGradient id="paint20_linear_41260_4796" x1="19.9551" y1="1151.88" x2="586.997" y2="-216.02" gradientUnits="userSpaceOnUse">
<stop stop-color="#F4EAD8"/>
<stop offset="1" stop-color="#E0B764"/>
</linearGradient>
<linearGradient id="paint21_linear_41260_4796" x1="22.6709" y1="1145.99" x2="582.9" y2="-223.097" gradientUnits="userSpaceOnUse">
<stop stop-color="#F4EAD8"/>
<stop offset="1" stop-color="#E0B764"/>
</linearGradient>
<linearGradient id="paint22_linear_41260_4796" x1="-197" y1="43" x2="-9.44321" y2="329.517" gradientUnits="userSpaceOnUse">
<stop stop-color="#F4EAD8"/>
<stop offset="1" stop-color="#E0B764"/>
</linearGradient>
<linearGradient id="paint23_linear_41260_4796" x1="1380" y1="565" x2="1567.56" y2="851.517" gradientUnits="userSpaceOnUse">
<stop stop-color="#F4EAD8"/>
<stop offset="1" stop-color="#E0B764"/>
</linearGradient>
<linearGradient id="paint24_linear_41260_4796" x1="753" y1="131" x2="1097.42" y2="658.28" gradientUnits="userSpaceOnUse">
<stop stop-color="#F4EAD8"/>
<stop offset="1" stop-color="#E0B764"/>
</linearGradient>
<clipPath id="clip0_41260_4796">
<rect width="1440" height="902" fill="white"/>
</clipPath>
</defs>
</svg>
