<svg width="40" height="40" viewBox="0 0 40 40" fill="none" xmlns="http://www.w3.org/2000/svg">
<circle cx="20" cy="20" r="20" fill="url(#paint0_linear_41260_4916)"/>
<circle cx="20" cy="20" r="15" fill="#FCF9F6"/>
<path d="M22.9006 11.2638C21.2496 11.3694 19.8099 12.2881 18.9018 13.8123C18.8701 13.8686 18.7891 13.8264 18.0921 13.411C16.9868 12.7457 16.9798 12.7492 16.7862 13.6961L16.7264 14.0059L16.3075 14.2206C15.5682 14.5973 14.9346 15.1429 14.5087 15.773L14.2975 16.0792H13.502C12.8719 16.0792 12.6642 16.0898 12.5128 16.1355C11.8264 16.3397 11.3653 16.8853 11.2843 17.5964C11.2386 18.0012 11.2386 21.0214 11.2843 21.1904C11.3054 21.2643 11.3512 21.3382 11.3899 21.3593C11.4251 21.3805 11.7243 21.3945 12.0728 21.3945H12.6888L12.6994 23.9888L12.71 26.5866L12.812 26.8049C12.9317 27.0654 13.238 27.3751 13.4914 27.4948L13.6604 27.5723H17.8493H22.0381L22.2493 27.4702C22.5134 27.3399 22.8231 27.0337 22.9463 26.7802C23.0801 26.5092 23.1188 26.2417 23.1047 25.7172C23.0906 25.1258 23.0906 25.1258 22.545 25.1258H22.1613V23.0631C22.1613 21.1129 22.1649 21.0003 22.2247 21.0249C22.2564 21.039 22.4817 21.0742 22.7246 21.1059C23.7313 21.2326 24.8401 20.9862 25.7694 20.4265C26.9275 19.7331 27.7407 18.6454 28.0645 17.3605C28.156 17.0015 28.1631 16.9276 28.1631 16.2376C28.1631 15.6603 28.149 15.4351 28.0997 15.2098C27.885 14.2171 27.4415 13.3969 26.7234 12.6788C26.132 12.091 25.5653 11.739 24.7873 11.4855C24.1889 11.2884 23.587 11.218 22.9006 11.2638ZM23.9847 11.9009C24.0164 11.922 23.9953 11.9678 23.9073 12.0769C23.763 12.2564 23.5799 12.612 23.4919 12.8936C23.3899 13.2068 23.3652 13.9109 23.4427 14.2629C23.5166 14.5832 23.6891 14.9422 23.8897 15.1816C24.1291 15.4667 24.1854 15.6216 24.1854 16.0088C24.1854 16.3749 24.1255 16.5544 23.9425 16.7727C23.7278 17.0261 23.2737 17.1529 22.9322 17.0508C22.531 16.9346 22.281 16.6565 22.1825 16.2095C21.929 15.0866 20.8484 14.2136 19.7079 14.2136C19.5495 14.2136 19.4157 14.1995 19.4157 14.1854C19.4157 14.1678 19.472 14.0622 19.5424 13.9461C20 13.1857 20.7005 12.5697 21.5172 12.2107C21.7812 12.0945 22.2881 11.9396 22.5662 11.8903C22.7774 11.8516 23.9214 11.8622 23.9847 11.9009ZM25.1921 12.3057C26.0264 12.7246 26.7093 13.411 27.1282 14.2488C27.2655 14.5234 27.4415 14.9915 27.4415 15.083C27.4415 15.1147 27.3887 15.1288 27.2619 15.1288C27.0226 15.1288 26.6248 15.2239 26.3608 15.34C25.1217 15.8997 24.562 17.3957 25.1323 18.6313C25.1956 18.765 25.3083 18.9727 25.3857 19.0924C25.4597 19.2086 25.5688 19.4022 25.6286 19.5254L25.7307 19.7471L25.6462 19.814C25.4526 19.9654 24.6993 20.3068 24.379 20.3878C23.1505 20.7081 21.9185 20.4864 20.8132 19.7542C19.8522 19.1135 19.1693 18.0821 18.9757 16.9804C18.9475 16.8079 18.9229 16.5861 18.9229 16.484V16.2975L19.5952 15.7026C20.0669 15.2837 20.2711 15.083 20.2851 15.0162C20.3027 14.9282 20.3098 14.9246 20.3978 14.9634C20.6196 15.0584 20.9399 15.2872 21.1124 15.4738C21.3517 15.7343 21.5101 16.037 21.6017 16.4031C21.6967 16.7832 21.8093 16.9874 22.0557 17.2197C22.8618 17.9871 24.1396 17.797 24.6078 16.8396C24.9352 16.1778 24.8472 15.4104 24.386 14.8226C24.1079 14.4741 23.9918 14.1326 23.9918 13.668C23.9918 13.1329 24.1783 12.6542 24.5233 12.3092C24.7592 12.0734 24.731 12.0734 25.1921 12.3057ZM18.4758 14.3509C19.032 14.6853 19.4861 14.9634 19.4861 14.9669C19.4861 15.0126 17.6451 16.6072 17.6205 16.5861C17.6064 16.5685 17.5677 16.47 17.5325 16.3644C17.448 16.1074 17.3776 16.044 17.1769 16.044C16.7404 16.044 16.1174 16.3256 15.6316 16.748C15.0649 17.2373 14.7094 17.878 14.5826 18.6313L14.5369 18.9094L14.4735 18.6207C14.3397 18.0047 14.4242 17.2585 14.6953 16.6636C15.0966 15.7765 16.0047 14.9422 16.9587 14.5832C17.191 14.4987 17.2508 14.4142 17.3177 14.0904C17.3916 13.7454 17.4022 13.7137 17.4339 13.7313C17.4515 13.7384 17.9161 14.0165 18.4758 14.3509ZM27.5752 16.3151C27.5611 16.8044 27.54 16.9628 27.4661 17.2409C27.2619 17.9941 26.9451 18.5644 26.3995 19.1699L26.2305 19.3599L26.1461 19.1875C26.1003 19.0959 25.9736 18.8812 25.8715 18.7158C25.6321 18.3391 25.5371 18.0716 25.516 17.7161C25.4808 17.1775 25.6779 16.6776 26.0827 16.2728C26.4629 15.8927 26.8254 15.7378 27.3323 15.7307L27.5893 15.7272L27.5752 16.3151ZM14.0124 16.7375C13.9279 16.9311 13.8505 17.3007 13.8223 17.6034C13.7343 18.6278 14.0828 19.7155 14.7622 20.5392C14.9839 20.8032 15.1282 20.8841 15.2937 20.8278C15.4978 20.7574 15.526 20.5673 15.3852 20.2611C15.0966 19.6275 15.0825 18.8073 15.3535 18.142C15.5682 17.6105 16.0329 17.1071 16.5363 16.8607C16.9868 16.6389 16.9728 16.6354 17.11 17.0261C17.1734 17.2092 17.2544 17.3817 17.2896 17.4063C17.3248 17.4309 17.4128 17.4521 17.4867 17.4521C17.6029 17.4521 17.6557 17.4204 17.9056 17.1951C18.064 17.0578 18.2259 16.9135 18.2681 16.8818L18.3456 16.822L18.4054 17.1423C18.5251 17.7759 18.7962 18.4306 19.1763 18.9938C19.4298 19.3775 20.0986 20.0323 20.4964 20.2928C20.6724 20.4089 20.9856 20.5814 21.1898 20.6764L21.5629 20.8489V22.9856V25.1258H18.2822H15.0015L14.9206 25.2033C14.8431 25.2737 14.8396 25.3018 14.8396 25.777C14.8396 26.379 14.7938 26.569 14.6037 26.7521C14.4172 26.9281 14.2658 26.995 14.0476 26.995C13.7237 26.995 13.4245 26.7767 13.3295 26.467C13.3013 26.3684 13.2908 25.0202 13.2908 21.5037V16.6776H13.6639C14.0053 16.6776 14.037 16.6812 14.0124 16.7375ZM12.6923 18.7721V20.8313H12.2699H11.8475V19.3423C11.8475 18.4905 11.8651 17.7618 11.8827 17.6316C11.9285 17.3535 12.02 17.174 12.2031 16.998C12.3263 16.8748 12.5938 16.7128 12.6677 16.7128C12.6818 16.7128 12.6923 17.6386 12.6923 18.7721ZM22.5063 26.0375C22.4782 26.5127 22.3127 26.7732 21.929 26.9457C21.8023 27.0055 21.57 27.0091 18.4864 27.0196L15.181 27.0302L15.2374 26.9457C15.3359 26.7943 15.4063 26.4846 15.4274 26.1009L15.4486 25.7242H18.9862H22.5239L22.5063 26.0375Z" fill="#B17400"/>
<path d="M15.5792 18.931C15.5334 18.9768 15.5088 19.0472 15.5088 19.1422C15.5088 19.2373 15.5334 19.3077 15.5792 19.3534C15.6461 19.4203 15.6954 19.4238 17.1984 19.4238C18.7015 19.4238 18.7508 19.4203 18.8177 19.3534C18.8634 19.3077 18.8881 19.2373 18.8881 19.1422C18.8881 19.0472 18.8634 18.9768 18.8177 18.931C18.7508 18.8641 18.7015 18.8606 17.1984 18.8606C15.6954 18.8606 15.6461 18.8641 15.5792 18.931Z" fill="#B17400"/>
<path d="M15.5792 20.6205C15.5334 20.6662 15.5088 20.7366 15.5088 20.8317C15.5088 20.9267 15.5334 20.9971 15.5792 21.0429C15.6461 21.1098 15.6954 21.1133 17.1984 21.1133C18.7015 21.1133 18.7508 21.1098 18.8177 21.0429C18.8634 20.9971 18.8881 20.9267 18.8881 20.8317C18.8881 20.7366 18.8634 20.6662 18.8177 20.6205C18.7508 20.5536 18.7015 20.5501 17.1984 20.5501C15.6954 20.5501 15.6461 20.5536 15.5792 20.6205Z" fill="#B17400"/>
<path d="M13.8888 22.3099C13.843 22.3557 13.8184 22.4261 13.8184 22.5211C13.8184 22.6162 13.843 22.6866 13.8888 22.7323C13.9592 22.8027 14.0049 22.8027 17.1976 22.8027C20.3903 22.8027 20.4361 22.8027 20.5065 22.7323C20.5523 22.6866 20.5769 22.6162 20.5769 22.5211C20.5769 22.4261 20.5523 22.3557 20.5065 22.3099C20.4361 22.2395 20.3903 22.2395 17.1976 22.2395C14.0049 22.2395 13.9592 22.2395 13.8888 22.3099Z" fill="#B17400"/>
<path d="M13.8888 23.9994C13.843 24.0451 13.8184 24.1155 13.8184 24.2106C13.8184 24.3056 13.843 24.376 13.8888 24.4218C13.9592 24.4922 14.0049 24.4922 17.1976 24.4922C20.3903 24.4922 20.4361 24.4922 20.5065 24.4218C20.5523 24.376 20.5769 24.3056 20.5769 24.2106C20.5769 24.1155 20.5523 24.0451 20.5065 23.9994C20.4361 23.929 20.3903 23.929 17.1976 23.929C14.0049 23.929 13.9592 23.929 13.8888 23.9994Z" fill="#B17400"/>
<defs>
<linearGradient id="paint0_linear_41260_4916" x1="0" y1="0" x2="29.6532" y2="45.2991" gradientUnits="userSpaceOnUse">
<stop stop-color="#F4EAD8"/>
<stop offset="1" stop-color="#E0B764"/>
</linearGradient>
</defs>
</svg>
