<svg width="40" height="40" viewBox="0 0 40 40" fill="none" xmlns="http://www.w3.org/2000/svg">
<circle cx="20" cy="20" r="20" fill="url(#paint0_linear_41260_4898)"/>
<circle cx="20" cy="20" r="15" fill="#FCF9F6"/>
<path d="M13.3809 11.6284C13.3047 11.6631 13.1938 11.7462 13.1314 11.8086C12.9096 12.0408 12.9131 12.02 12.9131 13.7872C12.9131 15.5753 12.9096 15.5441 13.1591 15.7797C13.3913 16.0015 13.3705 15.998 15.1378 15.998C16.9258 15.998 16.8946 16.0015 17.1303 15.752C17.352 15.5198 17.3486 15.5406 17.3486 13.7803C17.3486 12.02 17.352 12.0408 17.1303 11.8086C16.8946 11.5591 16.9293 11.5626 15.1308 11.5626C13.6339 11.5626 13.5091 11.5695 13.3809 11.6284ZM16.6001 12.1655C16.6798 12.1967 16.7283 12.2487 16.756 12.3249C16.808 12.4843 16.808 15.0763 16.756 15.2357C16.6832 15.4367 16.6382 15.4436 15.1378 15.4436C14.2195 15.4436 13.7551 15.4297 13.6754 15.4055C13.4745 15.3327 13.4675 15.2877 13.4675 13.7872C13.4675 12.8724 13.4814 12.4046 13.5056 12.3249C13.5784 12.1239 13.6131 12.1205 15.1239 12.117C16.212 12.117 16.5065 12.1274 16.6001 12.1655Z" fill="#B17400"/>
<path d="M15.2973 13.4579L14.5765 14.1786L14.4033 14.0054L14.23 13.8321L14.0117 14.0504L13.7969 14.2652L14.1884 14.6534L14.5765 15.0449L15.5191 14.1024L16.4651 13.1564L16.2572 12.9485C16.1428 12.8341 16.0423 12.7406 16.0319 12.7406C16.0215 12.7406 15.6924 13.0628 15.2973 13.4579Z" fill="#B17400"/>
<path d="M18.9359 12.2664C18.3884 12.6338 17.9414 12.9387 17.9414 12.9491C17.9414 12.9664 19.8923 14.2728 19.9478 14.2936C19.972 14.304 20.1626 14.0441 20.2735 13.8604C20.2874 13.8327 20.1453 13.7149 19.8542 13.5209L19.4107 13.2228L19.9304 13.2436C21.1086 13.2956 21.9229 13.4931 22.8759 13.954C24.0748 14.5327 25.1109 15.4926 25.7901 16.6465C25.8976 16.8232 25.9876 16.9688 25.998 16.9688C26.0292 16.9688 26.497 16.7262 26.497 16.7054C26.497 16.6638 26.3342 16.3762 26.1609 16.1024C25.1213 14.505 23.5966 13.3892 21.8051 12.9144C21.1641 12.7446 20.8383 12.6996 20.1106 12.6823L19.4245 12.6615L19.8611 12.3704C20.1488 12.1798 20.2874 12.0655 20.2735 12.0377C20.1799 11.8818 19.9755 11.5977 19.9547 11.6011C19.9408 11.6011 19.4834 11.9026 18.9359 12.2664Z" fill="#B17400"/>
<path d="M18.7553 16.6627C18.731 16.7251 18.6894 16.8395 18.6617 16.9157C18.6305 16.9989 18.5855 17.0578 18.5439 17.0682C18.5092 17.0751 18.3741 17.0266 18.2424 16.9642L18.0033 16.8499L17.2721 17.5845L16.5375 18.3157L16.6519 18.5548C16.7142 18.6864 16.7593 18.8216 16.7524 18.8597C16.7454 18.9047 16.6692 18.9498 16.4994 19.0122L16.2568 19.1023V20.1557V21.2091L16.4994 21.2992C16.6692 21.3616 16.7454 21.4066 16.7524 21.4517C16.7593 21.4898 16.7142 21.6249 16.6519 21.7566L16.5375 21.9957L17.2721 22.7303L18.0068 23.465L18.2632 23.3368C18.5716 23.1843 18.5924 23.1947 18.7067 23.5169L18.7864 23.7422H19.8433H20.8968L20.9869 23.4996C21.0492 23.3298 21.0943 23.2536 21.1393 23.2467C21.1774 23.2397 21.3126 23.2848 21.4443 23.3472L21.6834 23.4615L22.4145 22.7269L23.1492 21.9957L23.0348 21.7566C22.9724 21.6249 22.9274 21.4898 22.9343 21.4517C22.9412 21.4066 23.0175 21.3616 23.1873 21.2992L23.4298 21.2091V20.1557V19.1023L23.1873 19.0122C23.0175 18.9498 22.9412 18.9047 22.9343 18.8597C22.9274 18.8216 22.9724 18.6864 23.0348 18.5548L23.1492 18.3157L22.4145 17.5845L21.6834 16.8499L21.4443 16.9642C21.3126 17.0266 21.1774 17.0716 21.1393 17.0647C21.0943 17.0578 21.0492 16.9815 20.9869 16.8117L20.8968 16.5692L19.8503 16.5588L18.8003 16.5519L18.7553 16.6627ZM20.526 17.3038C20.5918 17.4979 20.5953 17.5013 20.8344 17.6018C21.1844 17.7474 21.1844 17.7474 21.3715 17.6573L21.5448 17.5776L21.9814 18.0176L22.4215 18.4543L22.3418 18.6275C22.2517 18.8146 22.2517 18.8146 22.3972 19.1646C22.4977 19.4037 22.5012 19.4072 22.6952 19.473L22.8927 19.5389V20.1557V20.7725L22.6952 20.8383C22.5012 20.9042 22.4977 20.9076 22.3972 21.1467C22.2517 21.4967 22.2517 21.4967 22.3418 21.6838L22.4215 21.8571L21.9814 22.2937L21.5448 22.7338L21.3715 22.6541C21.1844 22.564 21.1844 22.564 20.8344 22.7096C20.5953 22.81 20.5918 22.8135 20.526 23.0076L20.4601 23.2051H19.8433H19.2265L19.1607 23.0076C19.0949 22.8135 19.0914 22.81 18.8523 22.7096C18.5023 22.564 18.5023 22.564 18.3152 22.6541L18.1419 22.7338L17.7053 22.2937L17.2652 21.8571L17.3449 21.6838C17.435 21.4967 17.435 21.4967 17.2895 21.1467C17.189 20.9076 17.1855 20.9042 16.9915 20.8383L16.7939 20.7725V20.1557V19.5389L16.9915 19.473C17.1855 19.4072 17.189 19.4037 17.2895 19.1646C17.435 18.8146 17.435 18.8146 17.3449 18.6275L17.2652 18.4543L17.7053 18.0176L18.1419 17.5776L18.3152 17.6573C18.5023 17.7474 18.5023 17.7474 18.8523 17.6018C19.0914 17.5013 19.0949 17.4979 19.1607 17.3038L19.2265 17.1063H19.8433H20.4601L20.526 17.3038Z" fill="#B17400"/>
<path d="M19.2374 18.004C18.4889 18.2189 17.8721 18.8461 17.6815 19.5877C17.6088 19.8683 17.6088 20.4436 17.6815 20.7242C17.879 21.4866 18.5409 22.145 19.2929 22.3217C19.577 22.3876 20.1107 22.3876 20.3948 22.3217C20.97 22.1866 21.5349 21.743 21.8086 21.2128C21.9992 20.8421 22.0616 20.5856 22.0616 20.156C22.0616 19.7263 21.9992 19.4698 21.8086 19.0991C21.5383 18.5758 20.9908 18.1427 20.4121 17.9937C20.121 17.9174 19.5146 17.9243 19.2374 18.004ZM20.3463 18.5966C20.724 18.7283 21.074 19.0124 21.2715 19.359C21.5418 19.8233 21.5418 20.4886 21.2715 20.953C20.7136 21.9163 19.4107 22.0757 18.6587 21.2718C18.3538 20.946 18.2152 20.5995 18.2152 20.156C18.2152 19.5842 18.4959 19.0817 18.981 18.7664C19.3587 18.5273 19.9339 18.4545 20.3463 18.5966Z" fill="#B17400"/>
<path d="M19.4007 19.1206C18.9987 19.2765 18.7354 19.6854 18.7354 20.1567C18.7354 20.6071 18.9571 20.9744 19.3418 21.1616C19.5913 21.2863 19.9967 21.3002 20.2704 21.1962C20.6897 21.0368 20.9531 20.6383 20.9531 20.1567C20.9531 19.4983 20.4957 19.0443 19.8338 19.0513C19.671 19.0513 19.522 19.0755 19.4007 19.1206ZM20.1145 19.7062C20.565 19.9799 20.3709 20.6764 19.8442 20.6764C19.5497 20.6764 19.3244 20.4512 19.3244 20.1567C19.3244 19.8621 19.5497 19.6369 19.8442 19.6369C19.9378 19.6369 20.0452 19.6646 20.1145 19.7062Z" fill="#B17400"/>
<path d="M12.948 17.1871C12.799 17.5129 12.6188 18.0846 12.5218 18.5282C12.3832 19.1519 12.3485 19.5643 12.3693 20.3613C12.3901 21.1756 12.4664 21.6226 12.702 22.333C12.7782 22.5582 12.8371 22.7419 12.8337 22.7453C12.8302 22.7453 12.5772 22.6102 12.2723 22.4404C11.9674 22.2741 11.7005 22.132 11.6763 22.132C11.6382 22.132 11.3887 22.5444 11.3887 22.6067C11.3887 22.6379 13.6723 23.9131 13.693 23.8923C13.7069 23.875 14.2995 21.3939 14.2995 21.3489C14.2995 21.2969 13.7831 21.1791 13.745 21.2206C13.7312 21.2345 13.6515 21.5325 13.5683 21.8825C13.4886 22.229 13.4089 22.5028 13.395 22.4889C13.3465 22.4369 13.1247 21.6954 13.0485 21.335C12.955 20.8845 12.9168 19.8138 12.9792 19.339C13.0658 18.6876 13.2218 18.095 13.4539 17.5267C13.5232 17.3673 13.5614 17.2252 13.5475 17.2079C13.5336 17.1941 13.4124 17.1351 13.2841 17.0762L13.0485 16.9688L12.948 17.1871Z" fill="#B17400"/>
<path d="M24.4698 18.0034C24.3935 18.0381 24.2826 18.1212 24.2203 18.1836C23.9985 18.4158 24.002 18.395 24.002 20.1622C24.002 21.9503 23.9985 21.9191 24.248 22.1547C24.4802 22.3765 24.4594 22.373 26.2266 22.373C28.0147 22.373 27.9835 22.3765 28.2191 22.127C28.4409 21.8948 28.4374 21.9156 28.4374 20.1553C28.4374 18.395 28.4409 18.4158 28.2191 18.1836C27.9835 17.9341 28.0181 17.9376 26.2197 17.9376C24.7227 17.9376 24.598 17.9445 24.4698 18.0034ZM27.689 18.5405C27.7687 18.5717 27.8172 18.6237 27.8449 18.6999C27.8969 18.8593 27.8969 21.4513 27.8449 21.6107C27.7721 21.8117 27.7271 21.8186 26.2266 21.8186C25.3083 21.8186 24.844 21.8047 24.7643 21.7805C24.5633 21.7077 24.5564 21.6627 24.5564 20.1622C24.5564 19.2474 24.5703 18.7796 24.5945 18.6999C24.6673 18.4989 24.7019 18.4955 26.2128 18.492C27.3008 18.492 27.5954 18.5024 27.689 18.5405Z" fill="#B17400"/>
<path d="M26.3862 19.8348L25.6654 20.5556L25.4922 20.3823L25.3189 20.209L25.1006 20.4274L24.8857 20.6422L25.2773 21.0303L25.6654 21.4219L26.608 20.4793L27.554 19.5333L27.346 19.3254C27.2317 19.2111 27.1312 19.1175 27.1208 19.1175C27.1104 19.1175 26.7812 19.4398 26.3862 19.8348Z" fill="#B17400"/>
<path d="M25.1556 23.4406C24.5041 23.6069 23.9601 23.7524 23.9497 23.7663C23.915 23.8009 24.0432 24.3138 24.0848 24.3138C24.1056 24.3138 24.4556 24.2272 24.8575 24.1267C25.263 24.0227 25.5852 23.9569 25.5714 23.9811C25.457 24.1787 24.9927 24.7435 24.712 25.0242C24.1229 25.6167 23.5754 26.0083 22.8131 26.3756C21.2017 27.1622 19.3132 27.2766 17.6256 26.6909C17.3865 26.6078 17.1336 26.5142 17.0608 26.483L16.9291 26.4241L16.8044 26.6875C16.7385 26.833 16.69 26.9578 16.6969 26.9682C16.7455 27.0132 17.4454 27.2766 17.7642 27.3667C18.4504 27.5607 18.8281 27.6127 19.6528 27.63C20.4948 27.6508 20.9453 27.6058 21.6072 27.4464C22.6918 27.1795 23.7764 26.6355 24.6184 25.9286C24.9823 25.6271 25.5021 25.0831 25.7654 24.7296C25.8867 24.5668 25.9976 24.4212 26.0115 24.4074C26.0253 24.3935 26.0738 24.688 26.1189 25.0623L26.1986 25.7415L26.4793 25.7172C26.6317 25.7034 26.7634 25.686 26.7738 25.6791C26.7807 25.6687 26.7184 25.0969 26.6352 24.4074C26.4897 23.2361 26.4758 23.153 26.41 23.146C26.3718 23.1426 25.807 23.2777 25.1556 23.4406Z" fill="#B17400"/>
<path d="M11.7178 24.3804C11.6416 24.415 11.5307 24.4982 11.4683 24.5605C11.2465 24.7927 11.25 24.7719 11.25 26.5392C11.25 28.3272 11.2465 28.2961 11.496 28.5317C11.7282 28.7535 11.7074 28.75 13.4747 28.75C15.2627 28.75 15.2315 28.7535 15.4672 28.504C15.689 28.2718 15.6855 28.2926 15.6855 26.5323C15.6855 24.7719 15.689 24.7927 15.4672 24.5605C15.2315 24.311 15.2662 24.3145 13.4677 24.3145C11.9708 24.3145 11.846 24.3214 11.7178 24.3804ZM14.937 24.9175C15.0167 24.9487 15.0652 25.0006 15.0929 25.0769C15.1449 25.2363 15.1449 27.8282 15.0929 27.9876C15.0202 28.1886 14.9751 28.1956 13.4747 28.1956C12.5564 28.1956 12.0921 28.1817 12.0124 28.1574C11.8114 28.0847 11.8044 28.0396 11.8044 26.5392C11.8044 25.6244 11.8183 25.1566 11.8426 25.0769C11.9153 24.8759 11.95 24.8724 13.4608 24.869C14.5489 24.869 14.8434 24.8793 14.937 24.9175Z" fill="#B17400"/>
<path d="M13.6342 26.2098L12.9135 26.9306L12.7402 26.7573L12.5669 26.584L12.3486 26.8024L12.1338 27.0172L12.5254 27.4053L12.9135 27.7969L13.856 26.8543L14.802 25.9083L14.5941 25.7004C14.4797 25.5861 14.3793 25.4925 14.3689 25.4925C14.3585 25.4925 14.0293 25.8148 13.6342 26.2098Z" fill="#B17400"/>
<defs>
<linearGradient id="paint0_linear_41260_4898" x1="0" y1="0" x2="29.6532" y2="45.2991" gradientUnits="userSpaceOnUse">
<stop stop-color="#F4EAD8"/>
<stop offset="1" stop-color="#E0B764"/>
</linearGradient>
</defs>
</svg>
