<svg width="40" height="40" viewBox="0 0 40 40" fill="none" xmlns="http://www.w3.org/2000/svg">
<circle cx="20" cy="20" r="20" fill="url(#paint0_linear_41260_4879)"/>
<circle cx="20" cy="20" r="15" fill="#FCF9F6"/>
<path d="M16.7248 11.1247C16.5822 11.1876 16.339 11.4434 16.2803 11.5986C16.2593 11.6531 16.2425 11.8586 16.2425 12.0557V12.408H15.8441C15.1354 12.408 14.8837 12.6386 14.8292 13.3306L14.8041 13.6661H14.0198C13.1265 13.6661 12.9504 13.7038 12.6988 13.9471C12.6107 14.031 12.5017 14.1861 12.4514 14.291L12.3633 14.4839V21.3197C12.3633 27.7404 12.3675 28.164 12.4346 28.3108C12.5478 28.5456 12.7407 28.7427 12.9504 28.8434L13.1391 28.9314H18.6749C24.7894 28.9314 24.3701 28.9482 24.6636 28.6672C24.7433 28.5918 24.844 28.4576 24.8943 28.3653C24.9824 28.2101 24.9865 28.1304 24.9991 27.1365L25.0117 26.0797H25.1459C25.5527 26.0797 26.4795 25.7358 26.966 25.4045C27.6202 24.9599 28.2199 24.1883 28.5051 23.4334C28.7484 22.7834 28.8197 21.844 28.6771 21.152C28.4213 19.9232 27.5825 18.8496 26.4502 18.296C26.0769 18.1157 25.364 17.9018 25.1291 17.9018H25.0075V16.2117C25.0033 14.4 24.9991 14.3539 24.7811 14.0645C24.7181 13.9848 24.5798 13.8674 24.4707 13.8045C24.2736 13.6871 24.2694 13.6871 23.4055 13.6745L22.5332 13.6619V13.36C22.5332 13.0161 22.4451 12.7896 22.2564 12.6093C22.0803 12.4457 21.9419 12.408 21.5309 12.408H21.1576L21.1409 12.0389C21.1157 11.5776 21.0192 11.3637 20.7424 11.1876L20.5453 11.066H18.7001C17.2658 11.0702 16.8213 11.0827 16.7248 11.1247ZM20.3944 12.3576C20.4153 12.907 20.4153 12.9196 20.5328 13.0203C20.646 13.1167 20.6795 13.1209 21.1912 13.1209C21.686 13.1209 21.7364 13.1293 21.7783 13.2006C21.8286 13.2971 21.837 14.8781 21.7867 14.9578C21.7573 14.9997 21.1073 15.0081 18.6707 14.9997L15.5925 14.9871V14.0645V13.1419L16.1922 13.1209C16.9722 13.0957 16.9555 13.1125 16.9555 12.3912C16.9555 12.0473 16.9722 11.8628 17.0058 11.8292C17.0435 11.7915 17.4587 11.7789 18.7169 11.7873L20.3734 11.7999L20.3944 12.3576ZM14.8166 14.6055C14.8166 15.1423 14.9592 15.4694 15.2821 15.6581C15.4205 15.742 15.5002 15.742 18.6749 15.742H21.9251L22.1222 15.6288C22.4074 15.4568 22.5332 15.1884 22.5332 14.7271V14.379H23.2419C23.632 14.379 24.001 14.3958 24.0639 14.421C24.282 14.5049 24.2946 14.6097 24.2946 16.3208V17.8892L24.0471 17.9186C23.5774 17.9731 22.9945 18.1786 22.5374 18.447C20.8641 19.4409 20.1134 21.4875 20.7424 23.3328C21.2038 24.6832 22.378 25.7274 23.7536 26.0168C23.9171 26.0503 24.1059 26.0797 24.173 26.0797H24.2988L24.2862 27.0484L24.2736 28.0172L24.1562 28.1179L24.0388 28.2185H18.6707H13.3027L13.202 28.1137L13.0972 28.013V21.3114C13.1014 16.1111 13.1098 14.5929 13.1517 14.5426C13.2607 14.4 13.3656 14.3832 14.0953 14.379H14.8166V14.6055ZM25.3514 18.6819C26.4082 18.9209 27.2428 19.6003 27.7167 20.5984C27.9515 21.1017 28.0061 21.3701 28.0019 22.0327C28.0019 22.5821 27.9935 22.645 27.8635 23.0182C27.4777 24.1589 26.5802 24.9935 25.4311 25.2871C25.0327 25.3877 24.3407 25.3961 23.9297 25.3038C22.6422 25.0103 21.6441 24.0247 21.3338 22.7414C21.2331 22.3263 21.2415 21.5798 21.3505 21.1646C21.686 19.9064 22.7429 18.9083 24.0052 18.6609C24.3197 18.598 25.0327 18.6106 25.3514 18.6819Z" fill="#B17400"/>
<path d="M16.0115 16.632C15.9653 16.6446 15.6969 16.8794 15.4159 17.1604L14.9043 17.6678L14.6737 17.4498C14.4849 17.2694 14.4178 17.2317 14.292 17.2317C14.0865 17.2317 13.9355 17.3827 13.9355 17.5924C13.9355 17.7308 13.9775 17.7895 14.3298 18.1501C14.703 18.5276 14.7366 18.5527 14.8959 18.5527C15.0637 18.5527 15.093 18.5276 15.7221 17.9027C16.0828 17.5462 16.4015 17.194 16.435 17.1185C16.5147 16.9297 16.4434 16.7368 16.2589 16.6613C16.1834 16.6278 16.1121 16.6068 16.1079 16.6068C16.0995 16.611 16.0576 16.6194 16.0115 16.632Z" fill="#B17400"/>
<path d="M16.9928 17.2724C16.8963 17.3311 16.8167 17.545 16.846 17.6708C16.8586 17.7253 16.9131 17.8134 16.9634 17.8595C17.0515 17.9434 17.1018 17.9434 19.6642 17.9434C21.0985 17.9434 22.3063 17.9308 22.3441 17.9182C22.4531 17.8763 22.5454 17.6582 22.5118 17.4988C22.4615 17.2178 22.5831 17.2304 19.681 17.2304C18.1125 17.2304 17.0347 17.2472 16.9928 17.2724Z" fill="#B17400"/>
<path d="M15.4201 19.3362L14.9001 19.8436L14.6946 19.6507C14.5814 19.5459 14.4388 19.4452 14.3843 19.4326C14.1494 19.3739 13.9355 19.5459 13.9355 19.7891C13.9355 19.9233 13.9775 19.982 14.3465 20.3469C14.9253 20.9214 14.8582 20.9382 15.7515 20.0491C16.4267 19.3781 16.4602 19.3362 16.4602 19.181C16.4602 18.9713 16.305 18.8245 16.0911 18.8245C15.9569 18.8245 15.8857 18.8749 15.4201 19.3362Z" fill="#B17400"/>
<path d="M17.0517 19.4528C16.821 19.545 16.7707 19.8931 16.9594 20.0651C17.0433 20.1406 17.1439 20.1447 18.3979 20.1573C19.9286 20.1741 20.0292 20.1573 20.1257 19.9309C20.176 19.8051 20.176 19.7715 20.1257 19.6415C20.088 19.5534 20.0167 19.4779 19.9538 19.4528C19.8154 19.4024 17.1817 19.4024 17.0517 19.4528Z" fill="#B17400"/>
<path d="M15.9905 21.0343C15.9569 21.0469 15.6969 21.286 15.416 21.5627L14.9043 22.0702L14.6737 21.8521C14.4849 21.6718 14.4178 21.634 14.292 21.634C14.0865 21.634 13.9355 21.785 13.9355 21.9947C13.9355 22.1331 13.9775 22.1918 14.3298 22.5525C14.703 22.9299 14.7366 22.9551 14.9001 22.9551C15.0679 22.9551 15.093 22.9299 15.7808 22.2379C16.4141 21.6047 16.4938 21.5082 16.4938 21.3866C16.4938 21.1392 16.2253 20.9505 15.9905 21.0343Z" fill="#B17400"/>
<path d="M16.9638 21.7186C16.9135 21.7647 16.8589 21.8528 16.8464 21.9073C16.8128 22.0373 16.8967 22.2512 17.0015 22.3057C17.0435 22.3309 17.6767 22.3477 18.5197 22.3477H19.9623L20.0588 22.2428C20.1972 22.0918 20.1888 21.8612 20.0378 21.7312C19.9288 21.6347 19.9246 21.6347 18.4903 21.6347C17.1064 21.6347 17.0519 21.6389 16.9638 21.7186Z" fill="#B17400"/>
<path d="M15.4453 23.7575L14.9001 24.2943L14.6778 24.0762C14.4849 23.8875 14.4346 23.8581 14.2878 23.8581C14.0656 23.8581 13.9355 23.9881 13.9355 24.2146C13.9355 24.3656 13.9691 24.4075 14.3256 24.7682C14.6988 25.1414 14.724 25.1582 14.9001 25.1582C15.0846 25.1582 15.093 25.1498 15.7682 24.4746C16.4308 23.8162 16.4518 23.7868 16.4518 23.6191C16.4518 23.401 16.3512 23.2752 16.1457 23.2416C15.9905 23.2165 15.9821 23.2249 15.4453 23.7575Z" fill="#B17400"/>
<path d="M16.9592 23.9287C16.9089 23.9706 16.8586 24.0754 16.8418 24.1593C16.8208 24.2935 16.8376 24.3313 16.9467 24.4445L17.0725 24.5703H18.4983C19.8529 24.5703 19.9284 24.5661 20.0249 24.4864C20.0836 24.4403 20.1423 24.3522 20.1549 24.2935C20.1801 24.1467 20.113 23.9496 20.0165 23.8993C19.9704 23.8741 19.3539 23.8574 18.4942 23.8574C17.1773 23.8574 17.0389 23.8658 16.9592 23.9287Z" fill="#B17400"/>
<path d="M15.9905 25.4554C15.9318 25.4764 15.6634 25.7155 15.395 25.9881L14.9001 26.4745L14.703 26.2816C14.4724 26.0593 14.3256 26.0048 14.141 26.0803C13.9901 26.1432 13.9355 26.2355 13.9355 26.42C13.9355 26.5374 13.9943 26.6171 14.3465 26.9694C14.9253 27.5481 14.8582 27.5607 15.7431 26.68C16.1876 26.2397 16.456 25.9419 16.4728 25.8706C16.5105 25.6987 16.4266 25.5393 16.2631 25.4722C16.1834 25.4387 16.1121 25.4093 16.1079 25.4135C16.0995 25.4135 16.0492 25.4345 15.9905 25.4554Z" fill="#B17400"/>
<path d="M16.9467 26.1647C16.8376 26.2779 16.8208 26.3156 16.8418 26.4498C16.8963 26.7686 16.7328 26.7518 19.6768 26.7518C22.5663 26.7518 22.4531 26.7602 22.5118 26.496C22.5495 26.3324 22.4699 26.1479 22.3398 26.085C22.2644 26.0514 21.4843 26.0389 19.6558 26.0389H17.0725L16.9467 26.1647Z" fill="#B17400"/>
<path d="M25.3138 21.5592L23.8754 22.9935L23.1918 22.3141C22.5627 21.6892 22.4956 21.6347 22.3572 21.6347C22.2398 21.6347 22.1811 21.6641 22.0972 21.7647C21.9756 21.9115 21.963 22.008 22.0469 22.1715C22.0804 22.2344 22.4621 22.637 22.8982 23.069C23.6866 23.8532 23.6908 23.8574 23.8754 23.8574H24.0641L25.6661 22.2512C27.2136 20.7079 27.2723 20.6408 27.2723 20.4898C27.2723 20.2717 27.1255 20.125 26.9075 20.125C26.7565 20.125 26.6936 20.1837 25.3138 21.5592Z" fill="#B17400"/>
<defs>
<linearGradient id="paint0_linear_41260_4879" x1="0" y1="0" x2="29.6532" y2="45.2991" gradientUnits="userSpaceOnUse">
<stop stop-color="#F4EAD8"/>
<stop offset="1" stop-color="#E0B764"/>
</linearGradient>
</defs>
</svg>
