<svg width="1440" height="1529" viewBox="0 0 1440 1529" fill="none" xmlns="http://www.w3.org/2000/svg">
<path opacity="0.04" d="M719.685 463C555.598 463 423 604.171 423 777.91C423 915.055 505.211 1031.68 620.79 1074.72V802.424C633.68 800.429 646.571 799.217 660.2 799.217V1086.37C673.057 1089.19 686.35 1091.22 699.61 1092V802.424C713.239 804.847 726.868 808.054 739.021 812.508V1092C752.65 1091.22 765.91 1089.19 778.8 1086.37V831.392C783.701 834.207 789.039 837.414 793.57 841.049C802.668 847.498 810.993 854.731 818.58 862.784V1074.72C876.184 1053.41 925.43 1013.18 960.678 961.696C995.523 909.817 1016 846.678 1016 777.91C1016 604.171 883.368 463 719.685 463ZM838.285 778.302H601.085V715.163C692.024 715.163 775.007 730.449 838.285 754.999V778.302ZM877.695 694.247H561.305V631.501H877.695V694.247Z" fill="url(#paint0_linear_41260_10441)"/>
<g opacity="0.05">
<path d="M589.658 167.087C559.48 150.864 520.552 171.763 503.38 201.412C486.208 231.06 484.087 266.663 478.467 300.461C472.847 334.259 461.348 370.278 432.827 389.265C396.366 413.54 343.926 402.081 308.52 427.87C280.924 447.971 272.546 484.824 274.701 517.226C275.92 535.547 282.977 553.46 285.704 571.578C298.074 653.742 374.913 688.775 364.468 750.447C353.157 817.224 309.978 839.084 284.532 842.641C251.939 847.199 172.747 845.156 148.144 765.317C138.149 732.883 126.741 700.263 107.984 671.978C79.9028 629.63 20.6823 606.863 -24.8509 629.415C-56.0578 644.871 -78.347 678.559 -112.754 683.934C-135.88 687.547 -159.643 676.605 -175.685 659.561C-191.728 642.517 -200.945 620.094 -206.669 597.399" stroke="url(#paint1_linear_41260_10441)" stroke-miterlimit="10"/>
<path d="M590.69 169.118C559.131 153.757 518.88 173.945 500.662 204.272C482.88 233.873 480.477 269.966 475.533 304.031C470.648 337.693 460.556 373.256 433.741 392.81C399.452 417.772 348.891 408.914 313.791 434.774C285.924 455.409 275.821 490.957 276.111 523.388C276.278 542.019 282.206 560.77 284.782 579.636C295.707 659.615 369.652 694.536 359.527 754.904C348.612 819.827 307.12 842.129 281.833 846.274C249.788 851.524 173.578 849.323 148.22 773.064C137.766 741.625 125.606 709.75 106.894 681.821C79.4171 640.634 22.4679 618.259 -22.0263 638.955C-52.8104 653.273 -75.5091 685.282 -109.526 690.728C-132.8 694.495 -156.528 684.5 -173.179 668.586C-189.985 652.524 -200.574 631.013 -207.496 608.652" stroke="url(#paint2_linear_41260_10441)" stroke-miterlimit="10"/>
<path d="M591.723 171.149C558.782 156.649 517.219 176.131 497.944 207.132C479.568 236.691 476.859 273.266 472.599 307.601C468.44 341.124 459.765 376.234 434.656 396.354C402.539 422.005 353.797 415.668 319.064 441.678C290.876 462.784 279.062 497.116 277.523 529.55C276.623 548.506 281.442 568.075 283.863 587.694C293.455 665.459 364.393 700.297 354.589 759.36C344.07 822.428 304.269 845.167 279.136 849.903C247.641 855.839 174.365 853.476 148.299 780.808C137.373 750.349 124.474 719.234 105.806 691.66C78.9343 651.635 24.2369 629.643 -19.1985 648.49C-49.5729 661.67 -72.668 692 -106.295 697.518C-129.717 701.442 -153.43 692.392 -170.67 677.607C-188.256 662.524 -200.198 641.928 -208.318 619.903" stroke="url(#paint3_linear_41260_10441)" stroke-miterlimit="10"/>
<path d="M592.756 173.18C558.434 159.542 515.568 178.319 495.227 209.994C476.267 239.516 473.236 276.562 469.666 311.173C466.223 344.553 458.976 379.215 435.571 399.901C405.625 426.239 358.74 422.473 324.335 448.583C295.856 470.197 282.267 503.294 278.934 535.713C276.95 555.009 280.685 575.376 282.941 595.754C291.305 671.282 359.132 706.061 349.65 763.819C339.525 825.033 301.418 848.201 276.438 853.538C245.495 860.146 175.097 857.621 148.375 788.557C136.965 759.065 123.262 728.777 104.716 701.505C78.3382 662.717 25.9851 641.021 -16.3715 658.031C-46.3502 670.071 -69.8402 698.645 -103.065 704.314C-126.642 708.336 -150.354 700.293 -168.162 686.633C-186.549 672.529 -199.824 652.848 -209.142 631.158" stroke="url(#paint4_linear_41260_10441)" stroke-miterlimit="10"/>
<path d="M593.787 175.211C558.085 162.434 513.925 180.513 492.507 212.854C472.976 242.346 469.603 279.855 466.73 314.745C463.994 347.977 458.182 382.194 436.483 403.447C408.708 430.473 363.682 429.282 329.605 455.488C300.835 477.613 285.431 509.485 280.343 541.876C277.257 561.521 279.933 582.671 282.018 603.814C289.244 677.088 353.87 711.824 344.708 768.279C334.979 827.638 298.567 851.228 273.737 857.17C243.349 864.443 175.768 861.756 148.449 796.305C136.537 767.765 122.102 738.28 103.624 711.348C77.8215 673.743 27.7095 652.385 -13.5481 667.573C-43.1466 678.469 -67.0079 705.35 -99.8384 711.109C-123.567 715.272 -147.301 708.199 -165.656 695.66C-184.864 682.539 -199.454 663.769 -209.97 642.415" stroke="url(#paint5_linear_41260_10441)" stroke-miterlimit="10"/>
<path d="M594.819 177.243C557.736 165.327 512.295 182.712 489.789 215.715C469.697 245.181 465.963 283.145 463.796 318.316C461.758 351.398 457.435 385.214 437.397 406.993C411.85 434.759 368.629 436.096 334.875 462.393C305.817 485.032 288.56 515.684 281.752 548.039C277.544 568.037 279.191 589.962 281.096 611.874C287.268 682.878 348.608 717.587 339.768 772.737C330.433 830.241 295.719 854.248 271.038 860.803C241.204 868.728 176.376 865.885 148.525 804.053C136.093 776.453 120.946 747.783 102.532 721.192C77.3083 684.768 29.4123 663.731 -10.7236 677.112C-39.9582 686.858 -64.1729 712.055 -96.6105 717.904C-120.489 722.209 -144.264 716.113 -163.151 704.685C-183.197 692.553 -199.082 674.687 -210.796 653.669" stroke="url(#paint6_linear_41260_10441)" stroke-miterlimit="10"/>
<path d="M595.852 179.273C557.387 168.219 510.672 184.913 487.071 218.575C466.427 248.02 462.314 286.431 460.862 321.887C459.514 354.817 456.653 388.196 438.312 410.538C414.949 438.996 373.58 442.913 340.148 469.297C310.804 492.455 291.657 521.885 283.165 554.201C277.815 574.556 278.462 597.25 280.176 619.933C285.369 688.653 343.35 723.349 334.829 777.193C325.891 832.843 292.872 857.256 268.34 864.434C239.06 873 176.915 870.009 148.602 811.798C135.63 785.125 119.794 757.283 101.442 731.033C76.8014 695.788 31.0958 675.057 -7.89703 686.649C-36.7841 695.238 -61.3361 718.762 -93.3807 724.695C-117.409 729.145 -141.242 724.038 -160.642 713.707C-181.544 702.577 -198.707 685.605 -211.62 664.921" stroke="url(#paint7_linear_41260_10441)" stroke-miterlimit="10"/>
<path d="M596.884 181.305C557.039 171.112 509.058 187.123 484.353 221.437C463.165 250.867 458.657 289.717 457.929 325.459C457.261 358.235 455.872 391.178 439.226 414.085C418.046 443.233 378.534 449.737 345.419 476.202C315.79 499.881 294.721 528.083 284.574 560.364C278.065 581.074 277.741 604.535 279.254 627.993C283.538 694.421 338.088 729.113 329.889 781.652C321.346 835.447 290.023 860.26 265.641 868.066C236.916 877.263 169.815 877.485 148.678 819.545C138.707 792.211 118.643 766.783 100.352 740.876C76.2974 706.806 32.7553 686.361 -5.07143 696.189C-33.6272 703.609 -58.4988 725.474 -90.1518 731.49C-114.33 736.084 -138.235 731.979 -158.136 722.732C-179.908 712.616 -198.335 696.524 -212.445 676.176" stroke="url(#paint8_linear_41260_10441)" stroke-miterlimit="10"/>
<path d="M597.917 183.338C556.69 174.007 507.452 189.338 481.636 224.299C459.912 253.719 454.992 293.002 454.996 329.031C454.999 361.651 455.088 394.158 440.141 417.632C421.142 447.466 383.492 456.565 350.691 483.109C320.782 507.312 297.758 534.277 285.986 566.528C278.299 587.588 277.035 611.818 278.334 636.054C281.77 700.18 332.829 734.876 324.95 786.112C316.802 838.053 287.176 863.257 262.943 871.701C234.771 881.519 169.666 882.09 148.756 827.294C138.565 800.59 117.495 776.283 99.2634 750.721C75.7996 717.824 34.3931 697.638 -2.24394 705.731C-30.4858 711.969 -55.6598 732.192 -86.921 738.286C-111.248 743.028 -135.239 739.937 -155.626 731.759C-178.281 722.672 -197.96 707.445 -213.268 687.431" stroke="url(#paint9_linear_41260_10441)" stroke-miterlimit="10"/>
<path d="M598.949 185.368C556.342 176.899 505.854 191.557 478.917 227.16C456.664 256.574 451.315 296.284 452.061 332.602C452.727 365.066 454.304 397.134 441.055 421.177C424.236 451.696 388.453 463.395 355.963 490.013C325.774 514.745 300.769 540.46 287.397 572.691C278.516 594.096 276.341 619.098 277.412 644.113C280.059 705.933 327.568 740.639 320.01 790.569C312.258 840.656 284.326 866.242 260.244 875.332C232.622 885.76 169.605 886.683 148.831 835.041C138.336 808.95 116.349 785.78 98.1725 760.563C75.3037 728.837 36.0087 708.882 0.581068 715.269C-27.3636 720.308 -52.8227 738.909 -83.6927 745.079C-108.169 749.971 -132.253 747.908 -153.12 740.783C-176.667 732.743 -197.588 718.362 -214.094 698.685" stroke="url(#paint10_linear_41260_10441)" stroke-miterlimit="10"/>
<path d="M599.981 187.399C555.993 179.791 504.263 193.781 476.199 230.02C453.421 259.432 447.63 299.566 449.126 336.173C450.447 368.48 453.517 400.11 441.968 424.723C427.328 455.925 393.415 470.231 361.233 496.918C330.769 522.18 303.756 546.631 288.807 578.853C278.718 600.596 275.663 626.376 276.49 652.172C278.399 711.68 322.307 746.401 315.07 795.027C307.712 843.259 281.472 869.22 257.545 878.965C230.47 889.992 169.64 891.26 148.908 842.788C138.008 817.303 115.207 795.275 97.0829 770.406C74.8133 739.848 37.6067 720.09 3.40728 724.809C-24.2563 728.626 -49.9842 745.63 -80.4632 751.873C-105.088 756.918 -129.273 755.897 -150.612 749.808C-175.059 742.833 -197.214 729.281 -214.918 709.939" stroke="url(#paint11_linear_41260_10441)" stroke-miterlimit="10"/>
<path d="M601.013 189.429C555.644 182.683 502.68 196.01 473.481 232.88C450.186 262.296 443.936 302.847 446.192 339.743C448.158 371.894 452.728 403.082 442.882 428.268C430.417 460.151 398.381 477.068 366.504 503.822C335.767 529.62 306.728 552.79 290.217 585.016C278.907 607.087 275.001 633.652 275.568 660.232C276.787 717.427 317.045 752.164 310.129 799.486C303.167 845.862 278.616 872.189 254.845 882.598C228.314 894.215 178.307 890.82 148.983 850.535C132.873 828.405 114.064 804.768 95.9909 780.249C74.3247 750.856 39.1855 731.259 6.23154 734.349C-21.1634 736.917 -47.1471 752.354 -77.2356 758.668C-102.01 763.866 -126.297 763.901 -148.107 758.833C-173.455 752.942 -196.844 740.2 -215.745 721.194" stroke="url(#paint12_linear_41260_10441)" stroke-miterlimit="10"/>
<path d="M602.044 191.462C555.293 185.577 501.101 198.249 470.761 235.743C446.952 265.167 440.232 306.132 443.257 343.316C445.86 375.311 451.936 406.057 443.794 431.815C433.501 464.379 403.349 483.912 371.774 510.729C340.767 537.064 309.684 558.939 291.626 591.179C279.084 613.571 274.36 640.931 274.645 668.292C275.217 723.172 311.877 757.942 305.188 803.944C298.712 848.48 275.755 875.151 252.145 886.23C226.153 898.428 178.295 895.077 149.058 858.282C132.207 837.076 112.925 814.26 94.8987 790.092C73.8403 761.86 40.7513 742.384 9.05516 743.889C-18.081 745.178 -44.3104 759.081 -74.0087 765.462C-98.93 770.817 -123.322 771.922 -145.601 767.858C-171.853 763.07 -196.472 751.119 -216.571 732.448" stroke="url(#paint13_linear_41260_10441)" stroke-miterlimit="10"/>
<path d="M603.078 193.492C554.946 188.469 499.532 200.489 468.044 238.602C443.727 268.037 436.52 309.416 440.325 346.886C443.559 378.727 451.146 409.028 444.711 435.359C436.587 468.602 408.323 490.755 377.048 517.631C345.772 544.509 312.632 565.07 293.038 597.34C279.255 620.041 273.744 648.205 273.726 676.349C273.692 728.916 306.619 763.702 300.251 808.4C294.17 851.081 272.894 878.101 249.45 889.861C223.993 902.629 178.189 899.388 149.137 866.028C131.495 845.77 111.795 823.746 93.811 799.933C73.3652 772.86 42.3152 753.46 11.8834 753.426C-15 753.397 -41.4672 765.808 -70.7767 772.255C-95.8457 777.768 -120.34 779.954 -143.091 776.882C-170.245 773.214 -196.096 762.036 -217.395 743.701" stroke="url(#paint14_linear_41260_10441)" stroke-miterlimit="10"/>
<path d="M604.11 195.522C554.597 191.361 497.967 202.736 465.327 241.462C440.504 270.914 432.798 312.702 437.391 350.457C441.247 382.145 450.35 412 445.625 438.904C439.667 472.826 413.298 497.601 382.32 524.536C350.78 551.957 315.569 571.189 294.449 603.502C279.417 626.503 273.153 655.482 272.806 684.408C272.202 734.662 301.359 769.463 295.312 812.857C289.623 853.683 270.024 881.044 246.75 893.492C221.823 906.825 177.986 903.771 149.212 873.774C130.729 854.503 110.665 833.23 92.7203 809.775C72.8917 783.857 43.8753 764.487 14.7085 762.964C-11.9237 761.574 -38.6274 772.538 -67.5479 779.046C-92.7627 784.721 -117.359 787.999 -140.584 785.904C-168.636 783.374 -195.724 772.953 -218.219 754.953" stroke="url(#paint15_linear_41260_10441)" stroke-miterlimit="10"/>
<path d="M605.143 197.554C554.249 194.253 496.408 204.991 462.609 244.324C437.284 273.794 429.065 315.991 434.456 354.028C438.927 385.566 449.552 414.974 446.538 442.45C442.743 477.052 418.273 504.452 387.589 531.44C355.788 559.409 318.497 577.295 295.858 609.664C279.569 632.955 272.587 662.761 271.882 692.467C270.743 740.412 296.092 775.224 290.369 817.314C285.072 856.284 267.146 883.979 244.049 897.124C219.645 911.013 177.696 908.238 149.287 881.521C129.905 863.291 109.538 842.712 91.6286 819.617C72.4206 794.85 45.4418 775.465 17.5331 772.504C-8.8395 769.705 -35.7879 779.273 -64.3204 785.842C-89.6822 791.68 -114.373 796.058 -138.079 794.931C-167.023 793.553 -195.353 783.873 -219.046 766.208" stroke="url(#paint16_linear_41260_10441)" stroke-miterlimit="10"/>
<path d="M606.174 199.587C553.9 197.149 494.853 207.253 459.89 247.187C434.067 276.681 425.323 319.287 431.521 357.602C436.6 388.992 448.75 417.951 447.452 445.998C445.818 481.282 423.253 511.307 392.86 538.347C360.802 566.868 321.421 583.391 297.269 615.829C279.719 639.4 272.059 670.045 270.961 700.529C269.317 746.169 290.826 780.988 285.43 821.775C280.521 858.889 264.265 886.91 241.351 900.758C217.464 915.194 177.338 912.806 149.364 889.269C129.027 872.158 108.419 852.19 90.539 829.461C71.9577 805.841 47.0277 786.397 20.3593 782.044C-5.73894 777.785 -32.9448 786.011 -61.09 792.636C-86.5968 798.641 -111.379 804.126 -135.57 803.955C-165.401 803.745 -194.977 794.792 -219.869 777.463" stroke="url(#paint17_linear_41260_10441)" stroke-miterlimit="10"/>
<path d="M607.207 201.617C553.55 200.04 493.305 209.517 457.172 250.047C430.853 279.567 421.572 322.581 428.588 361.172C434.268 392.416 447.895 420.927 448.366 449.543C448.822 485.511 428.236 518.162 398.132 545.25C365.819 574.326 324.343 589.472 298.679 621.991C279.863 645.832 271.568 677.332 270.039 708.588C267.919 751.931 285.481 786.739 280.49 826.233C275.899 861.481 261.375 889.831 238.651 904.39C215.273 919.369 176.928 917.483 149.439 897.016C128.091 881.122 107.304 861.664 89.4477 839.304C71.4978 816.828 48.6374 797.282 23.1839 791.584C-2.61428 785.808 -30.1034 792.749 -57.8621 799.43C-83.5129 805.603 -108.379 812.201 -133.064 812.98C-163.772 813.948 -194.606 805.711 -220.696 788.716" stroke="url(#paint18_linear_41260_10441)" stroke-miterlimit="10"/>
<path d="M608.239 203.647C553.202 202.932 491.762 211.787 454.454 252.906C427.642 282.457 417.813 325.88 425.654 364.742C431.93 395.844 447.104 423.904 449.28 453.087C451.908 489.743 433.221 525.018 403.404 552.153C370.839 581.788 327.263 595.542 300.091 628.152C280.006 652.256 271.124 684.622 269.119 716.645C266.549 757.699 280.22 792.499 275.551 830.688C271.356 864.083 258.479 892.744 235.954 908.02C213.078 923.536 176.5 922.282 149.517 904.761C127.11 890.21 106.197 871.128 88.3592 849.144C71.0448 827.807 50.2851 808.126 26.0112 801.12C0.549239 793.773 -27.259 799.487 -54.6315 806.221C-80.4271 812.566 -105.371 820.281 -130.555 822.001C-162.134 824.157 -194.232 816.626 -221.519 799.967" stroke="url(#paint19_linear_41260_10441)" stroke-miterlimit="10"/>
<path d="M609.271 205.68C552.853 205.826 490.221 214.067 451.735 255.77C424.433 285.355 414.044 329.188 422.72 368.316C429.585 399.279 446.312 426.887 450.193 456.636C454.993 493.979 438.261 531.939 408.674 559.061C375.921 589.32 330.181 601.604 301.5 634.317C280.145 658.675 270.73 691.924 268.196 724.707C265.2 763.483 274.958 798.266 270.611 835.149C266.811 866.69 255.571 895.654 233.254 911.656C210.871 927.704 176.08 927.221 149.592 912.511C126.089 899.459 105.095 880.592 87.2666 858.99C70.5933 838.787 51.9751 818.942 28.8349 810.664C3.75706 801.692 -24.4043 806.285 -51.4045 813.019C-77.3305 819.586 -102.358 828.374 -128.051 831.03C-160.491 834.384 -193.861 827.549 -222.346 811.225" stroke="url(#paint20_linear_41260_10441)" stroke-miterlimit="10"/>
<path d="M610.304 207.709C552.505 208.716 488.747 216.402 449.018 258.628C421.269 288.288 410.268 332.494 419.786 371.884C427.236 402.714 445.521 429.863 451.108 460.178C458.079 498.209 443.227 538.771 413.947 565.962C380.922 596.756 333.1 607.652 302.911 640.477C280.283 665.082 270.399 699.232 267.276 732.764C263.875 769.278 269.699 804.026 265.672 839.605C262.267 869.291 252.658 898.555 230.557 915.286C208.66 931.862 175.717 932.294 149.669 920.257C125.055 908.882 104.003 890.044 86.1777 868.832C70.1497 849.758 53.7222 829.731 31.6619 820.201C7.02449 809.558 -21.5641 813.005 -48.1742 819.811C-74.2473 826.533 -99.3347 836.465 -125.542 840.053C-158.834 844.612 -193.486 838.465 -223.17 822.477" stroke="url(#paint21_linear_41260_10441)" stroke-miterlimit="10"/>
<path d="M611.335 209.743C552.155 211.611 487.156 218.637 446.299 261.491C418.02 291.152 406.481 335.811 416.851 375.459C424.881 406.156 444.73 432.845 452.022 463.727C461.164 502.446 448.191 545.608 419.217 572.871C385.921 604.199 336.019 613.698 304.322 646.643C280.42 671.486 270.14 706.561 266.354 740.827C262.568 775.093 264.438 809.792 260.732 844.067C257.722 871.898 249.733 901.456 227.858 918.922C206.439 936.023 175.454 937.51 149.745 928.007C124.037 918.504 102.918 899.492 85.0867 878.677C69.7095 860.727 55.5265 840.513 34.4867 829.743C10.3561 817.392 -18.7251 819.73 -44.9461 826.608C-71.1671 833.486 -96.3067 844.563 -123.036 849.08C-157.174 854.85 -193.115 849.387 -223.996 833.734" stroke="url(#paint22_linear_41260_10441)" stroke-miterlimit="10"/>
</g>
<g opacity="0.5" filter="url(#filter0_f_41260_10441)">
<circle cx="1466.5" cy="414.5" r="126.5" fill="url(#paint23_linear_41260_10441)"/>
</g>
<g opacity="0.5" filter="url(#filter1_f_41260_10441)">
<circle cx="-23.5" cy="1114.5" r="126.5" fill="url(#paint24_linear_41260_10441)"/>
</g>
<defs>
<filter id="filter0_f_41260_10441" x="1052.6" y="0.600006" width="827.8" height="827.8" filterUnits="userSpaceOnUse" color-interpolation-filters="sRGB">
<feFlood flood-opacity="0" result="BackgroundImageFix"/>
<feBlend mode="normal" in="SourceGraphic" in2="BackgroundImageFix" result="shape"/>
<feGaussianBlur stdDeviation="143.7" result="effect1_foregroundBlur_41260_10441"/>
</filter>
<filter id="filter1_f_41260_10441" x="-437.4" y="700.6" width="827.8" height="827.8" filterUnits="userSpaceOnUse" color-interpolation-filters="sRGB">
<feFlood flood-opacity="0" result="BackgroundImageFix"/>
<feBlend mode="normal" in="SourceGraphic" in2="BackgroundImageFix" result="shape"/>
<feGaussianBlur stdDeviation="143.7" result="effect1_foregroundBlur_41260_10441"/>
</filter>
<linearGradient id="paint0_linear_41260_10441" x1="423" y1="463" x2="899.716" y2="1149.56" gradientUnits="userSpaceOnUse">
<stop stop-color="#F4EAD8"/>
<stop offset="1" stop-color="#E0B764"/>
</linearGradient>
<linearGradient id="paint1_linear_41260_10441" x1="-212.697" y1="600.879" x2="625.177" y2="942.224" gradientUnits="userSpaceOnUse">
<stop stop-color="#F4EAD8"/>
<stop offset="1" stop-color="#E0B764"/>
</linearGradient>
<linearGradient id="paint2_linear_41260_10441" x1="-214.821" y1="605.047" x2="621.579" y2="949.19" gradientUnits="userSpaceOnUse">
<stop stop-color="#F4EAD8"/>
<stop offset="1" stop-color="#E0B764"/>
</linearGradient>
<linearGradient id="paint3_linear_41260_10441" x1="-217.886" y1="608.566" x2="618.677" y2="955.339" gradientUnits="userSpaceOnUse">
<stop stop-color="#F4EAD8"/>
<stop offset="1" stop-color="#E0B764"/>
</linearGradient>
<linearGradient id="paint4_linear_41260_10441" x1="-221.426" y1="612.34" x2="615.438" y2="962.015" gradientUnits="userSpaceOnUse">
<stop stop-color="#F4EAD8"/>
<stop offset="1" stop-color="#E0B764"/>
</linearGradient>
<linearGradient id="paint5_linear_41260_10441" x1="-225.441" y1="616.367" x2="611.856" y2="969.215" gradientUnits="userSpaceOnUse">
<stop stop-color="#F4EAD8"/>
<stop offset="1" stop-color="#E0B764"/>
</linearGradient>
<linearGradient id="paint6_linear_41260_10441" x1="-229.894" y1="620.629" x2="607.962" y2="976.889" gradientUnits="userSpaceOnUse">
<stop stop-color="#F4EAD8"/>
<stop offset="1" stop-color="#E0B764"/>
</linearGradient>
<linearGradient id="paint7_linear_41260_10441" x1="-234.644" y1="625.043" x2="603.871" y2="984.859" gradientUnits="userSpaceOnUse">
<stop stop-color="#F4EAD8"/>
<stop offset="1" stop-color="#E0B764"/>
</linearGradient>
<linearGradient id="paint8_linear_41260_10441" x1="-239.418" y1="629.457" x2="599.815" y2="992.793" gradientUnits="userSpaceOnUse">
<stop stop-color="#F4EAD8"/>
<stop offset="1" stop-color="#E0B764"/>
</linearGradient>
<linearGradient id="paint9_linear_41260_10441" x1="-244.197" y1="633.859" x2="595.817" y2="1000.67" gradientUnits="userSpaceOnUse">
<stop stop-color="#F4EAD8"/>
<stop offset="1" stop-color="#E0B764"/>
</linearGradient>
<linearGradient id="paint10_linear_41260_10441" x1="-248.986" y1="638.25" x2="591.875" y2="1008.49" gradientUnits="userSpaceOnUse">
<stop stop-color="#F4EAD8"/>
<stop offset="1" stop-color="#E0B764"/>
</linearGradient>
<linearGradient id="paint11_linear_41260_10441" x1="-253.779" y1="642.629" x2="588.002" y2="1016.25" gradientUnits="userSpaceOnUse">
<stop stop-color="#F4EAD8"/>
<stop offset="1" stop-color="#E0B764"/>
</linearGradient>
<linearGradient id="paint12_linear_41260_10441" x1="-258.581" y1="647" x2="584.192" y2="1023.96" gradientUnits="userSpaceOnUse">
<stop stop-color="#F4EAD8"/>
<stop offset="1" stop-color="#E0B764"/>
</linearGradient>
<linearGradient id="paint13_linear_41260_10441" x1="-263.386" y1="651.363" x2="580.453" y2="1031.63" gradientUnits="userSpaceOnUse">
<stop stop-color="#F4EAD8"/>
<stop offset="1" stop-color="#E0B764"/>
</linearGradient>
<linearGradient id="paint14_linear_41260_10441" x1="-268.193" y1="655.715" x2="576.789" y2="1039.24" gradientUnits="userSpaceOnUse">
<stop stop-color="#F4EAD8"/>
<stop offset="1" stop-color="#E0B764"/>
</linearGradient>
<linearGradient id="paint15_linear_41260_10441" x1="-273.006" y1="660.059" x2="573.194" y2="1046.8" gradientUnits="userSpaceOnUse">
<stop stop-color="#F4EAD8"/>
<stop offset="1" stop-color="#E0B764"/>
</linearGradient>
<linearGradient id="paint16_linear_41260_10441" x1="-277.825" y1="664.398" x2="569.665" y2="1054.33" gradientUnits="userSpaceOnUse">
<stop stop-color="#F4EAD8"/>
<stop offset="1" stop-color="#E0B764"/>
</linearGradient>
<linearGradient id="paint17_linear_41260_10441" x1="-282.646" y1="668.73" x2="566.206" y2="1061.81" gradientUnits="userSpaceOnUse">
<stop stop-color="#F4EAD8"/>
<stop offset="1" stop-color="#E0B764"/>
</linearGradient>
<linearGradient id="paint18_linear_41260_10441" x1="-287.473" y1="673.055" x2="562.797" y2="1069.26" gradientUnits="userSpaceOnUse">
<stop stop-color="#F4EAD8"/>
<stop offset="1" stop-color="#E0B764"/>
</linearGradient>
<linearGradient id="paint19_linear_41260_10441" x1="-292.3" y1="677.371" x2="559.447" y2="1076.67" gradientUnits="userSpaceOnUse">
<stop stop-color="#F4EAD8"/>
<stop offset="1" stop-color="#E0B764"/>
</linearGradient>
<linearGradient id="paint20_linear_41260_10441" x1="-297.135" y1="681.688" x2="556.159" y2="1084.05" gradientUnits="userSpaceOnUse">
<stop stop-color="#F4EAD8"/>
<stop offset="1" stop-color="#E0B764"/>
</linearGradient>
<linearGradient id="paint21_linear_41260_10441" x1="-301.954" y1="686.02" x2="552.92" y2="1091.43" gradientUnits="userSpaceOnUse">
<stop stop-color="#F4EAD8"/>
<stop offset="1" stop-color="#E0B764"/>
</linearGradient>
<linearGradient id="paint22_linear_41260_10441" x1="-306.81" y1="690.297" x2="549.86" y2="1098.7" gradientUnits="userSpaceOnUse">
<stop stop-color="#F4EAD8"/>
<stop offset="1" stop-color="#E0B764"/>
</linearGradient>
<linearGradient id="paint23_linear_41260_10441" x1="1340" y1="288" x2="1527.56" y2="574.517" gradientUnits="userSpaceOnUse">
<stop stop-color="#F4EAD8"/>
<stop offset="1" stop-color="#E0B764"/>
</linearGradient>
<linearGradient id="paint24_linear_41260_10441" x1="-150" y1="988" x2="37.5568" y2="1274.52" gradientUnits="userSpaceOnUse">
<stop stop-color="#F4EAD8"/>
<stop offset="1" stop-color="#E0B764"/>
</linearGradient>
</defs>
</svg>
